{
.appVersion = "1271";
DisplayStrings = (
"/dalet-hb/yod-hb/samekh-hb/he-hb/resh-hb/mem-hb/vav-hb/nun-hb/yod-hb/vav-hb/tav-hb",
"/qof-hb/vav-hb/nun-hb/samekh-hb/tsadi-hb/resh-hb/bet-hb/kaf-hb/pe-hb/tav-hb/tet-hb/vav-hb/resh-hb/yod-hb/vav-hb/nun-hb/ayin-hb/finalmem-hb",
"/yod-hb/shin-hb/resh-hb/alef-hb/lamed-hb/yod-hb/zayin-hb/finalmem-hb",
"543=2>5<001%",
"/alef-hb/bet-hb/gimel-hb/dalet-hb/he-hb/vav-hb/zayin-hb/het-hb/tet-hb/yod-hb/finalkaf-hb/kaf-hb/lamed-hb/finalmem-hb/mem-hb/finalnun-hb/nun-hb/samekh-hb/ayin-hb/finalpe-hb/pe-hb/finaltsadi-hb/tsadi-hb/qof-hb/resh-hb/shin-hb/tav-hb",
"$12/euro/sheqel -+/minus ร:รท=/notequal ><^12001%",
"0712737421715767879  ",
"/ayin-hb",
"/alef-hb/bet-hb/gimel-hb/dalet-hb/bet-hb/dalet-hb/bet-hb/he-hb/vav-hb/zayin-hb/het-hb/tet-hb/yod-hb/kaf-hb/lamed-hb ./mem-hb/finalmem-hb/vav-hb/finalnun-hb/nun-hb/samekh-hb/ayin-hb/finalpe-hb/pe-hb/finaltsadi-hb ./tsadi-hb/qof-hb/dalet-hb ./bet-hb/resh-hb/finalkaf-hb ./bet-hb/finalkaf-hb .,/lamed-hb/bet-hb/shin-hb/tav-hb",
$
);
copyright = "Copyright 2019 The Alephbeis Sans Project Authors (https://github.com/alephbeis/alephbeis-sans)";
customParameters = (
{
name = fsType;
value = (
);
},
{
name = vendorID;
value = MEIR;
},
{
name = license;
value = "This Font Software is licensed under the SIL Open Font License, Version 1.1. This license is available with a FAQ at: http://scripts.sil.org/OFL";
},
{
name = licenseURL;
value = "http://scripts.sil.org/OFL";
}
);
date = "2019-11-26 10:42:36 +0000";
designer = "Meir Sadan";
designerURL = "https://meirsadan.com/";
familyName = "Alephbeis Sans";
featurePrefixes = (
{
automatic = 1;
code = "languagesystem DFLT dflt;\012languagesystem hebr dflt;\012";
name = Languagesystems;
}
);
features = (
{

glyphs = (
{
glyphname = "alef-hb";
lastChange = "2019-11-26 10:54:32 +0000";
layers = (
{
anchors = (
{
name = bottom;
position = "{361, 0}";
},
{
name = bottomleft;
position = "{49, 0}";
},
{
name = center;
position = "{299, 170}";
},
{
name = top;
position = "{351, 556}";
},
{
name = topleft;
position = "{49, 556}";
}
);
layerId = "3BB9E4C4-DEF2-48EE-A047-AEFABDBAAE6E";
paths = (
{
closed = 1;
nodes = (
"608 2 LINE",
"472 207 OFFCURVE",
"386 287 OFFCURVE",
"88 561 CURVE",
"85 559 LINE",
"372 290 OFFCURVE",
"465 210 OFFCURVE",
"604 -1 CURVE"
);
},
{
closed = 1;
nodes = (
"120 0 LINE",
"120 156 OFFCURVE",
"144 344 OFFCURVE",
"229 429 CURVE",
"225 433 LINE",
"142 347 OFFCURVE",
"115 159 OFFCURVE",
"115 0 CURVE"
);
},
{
closed = 1;
nodes = (
"554 263 OFFCURVE",
"584 429 OFFCURVE",
"584 556 CURVE",
"579 556 LINE",
"579 435 OFFCURVE",
"552 268 OFFCURVE",
"480 170 CURVE",
"484 167 LINE"
);
}
);
width = 692;
},
{
anchors = (
{
name = bottom;
position = "{336, 0}";
},
{
name = bottomleft;
position = "{20, 0}";
},
{
name = center;
position = "{273, 128}";
},
{
name = top;
position = "{322, 556}";
},
{
name = topleft;
position = "{20, 556}";
}
);
layerId = "8609C873-3DB2-4A65-A2BD-5F22606290B7";
paths = (
{
closed = 1;
nodes = (
"595 26 LINE",
"377 332 OFFCURVE",
"299 401 OFFCURVE",
"104 571 CURVE",
"53 516 LINE",
"265 334 OFFCURVE",
"343 248 OFFCURVE",
"532 -15 CURVE"
);
},
{
closed = 1;
nodes = (
"153 0 LINE",
"153 175 OFFCURVE",
"159 296 OFFCURVE",
"236 397 CURVE",
"189 440 LINE",
"87 328 OFFCURVE",
"78 195 OFFCURVE",
"78 0 CURVE"
);
},
{
closed = 1;
nodes = (
"566 301 OFFCURVE",
"569 374 OFFCURVE",
"569 556 CURVE",
"494 556 LINE",
"494 403 OFFCURVE",
"494 327 OFFCURVE",
"424 201 CURVE",
"473 160 LINE"
);
}
);
width = 643;
},
{
anchors = (
{
name = bottom;
position = "{305, 0}";
},
{
name = bottomleft;
position = "{20, 0}";
},
{
name = center;
position = "{268, 89}";
},
{
name = top;
position = "{295, 556}";
},
{
name = topleft;
position = "{20, 556}";
}
);
layerId = "F5FC6CB4-8346-45E7-8DEF-2B856C43F982";
paths = (
{
closed = 1;
nodes = (
"602 0 LINE",
"495 215 OFFCURVE",
"371 384 OFFCURVE",
"235 556 CURVE",
"-2 556 LINE",
"171 346 OFFCURVE",
"256 213 OFFCURVE",
"370 0 CURVE"
);
},
{
closed = 1;
nodes = (
"229 0 LINE",
"229 163 OFFCURVE",
"228 218 OFFCURVE",
"268 257 CURVE",
"157 377 LINE",
"14 270 OFFCURVE",
"19 234 OFFCURVE",
"19 0 CURVE"
);
},
{
closed = 1;
nodes = (
"563 283 OFFCURVE",
"591 365 OFFCURVE",
"591 556 CURVE",
"381 556 LINE",
"381 459 OFFCURVE",
"381 402 OFFCURVE",
"344 349 CURVE",
"475 194 LINE"
);
}
);
width = 609;
},
{
anchors = (
{
name = bottom;
position = "{306, 0}";
},
{
name = bottomleft;
position = "{20, 0}";
},
{
name = center;
position = "{293, 92}";
},
{
name = top;
position = "{306, 556}";
},
{
name = topleft;
position = "{20, 556}";
}
);
associatedMasterId = "8609C873-3DB2-4A65-A2BD-5F22606290B7";
layerId = "E7ED19AB-3AC2-4FDA-8BD0-2EB389126517";
name = "{200}";
paths = (
{
closed = 1;
nodes = (
"588 92 LINE",
"507 216 OFFCURVE",
"365 375 OFFCURVE",
"159 589 CURVE",
"30 463 LINE",
"174 344 OFFCURVE",
"293 211 OFFCURVE",
"445 -15 CURVE"
);
},
{
closed = 1;
nodes = (
"223 0 LINE",
"223 164 OFFCURVE",
"223 224 OFFCURVE",
"266 267 CURVE",
"159 382 LINE",
"19 274 OFFCURVE",
"23 231 OFFCURVE",
"23 0 CURVE"
);
},
{
closed = 1;
nodes = (
"563 284 OFFCURVE",
"589 366 OFFCURVE",
"589 556 CURVE",
"389 556 LINE",
"389 455 OFFCURVE",
"389 396 OFFCURVE",
"350 338 CURVE",
"475 191 LINE"
);
}
);
width = 612;
}
);
unicode = 05D0;
},
{
glyphname = "bet-hb";
lastChange = "2019-10-21 20:12:51 +0000";
layers = (
{
anchors = (
{
name = bottom;
position = "{299, 0}";
},
{
name = bottomleft;
position = "{30, 0}";
},
{
name = center;
position = "{249, 278}";
},
{
name = top;
position = "{279, 556}";
},
{
name = topleft;
position = "{30, 556}";
}
);
layerId = "3BB9E4C4-DEF2-48EE-A047-AEFABDBAAE6E";
paths = (
{
closed = 1;
nodes = (
"457 0 LINE",
"457 338 LINE",
"457 487 OFFCURVE",
"400 561 OFFCURVE",
"247 561 CURVE",
"77 561 LINE",
"77 556 LINE",
"247 556 LINE",
"390 556 OFFCURVE",
"452 491 OFFCURVE",
"452 338 CURVE",
"452 0 LINE"
);
},
{
closed = 1;
nodes = (
"524 0 LINE",
"524 5 LINE",
"77 5 LINE",
"77 0 LINE"
);
}
);
width = 572;
},
{
anchors = (
{
name = bottom;
position = "{249, 0}";
},
{
name = bottomleft;
position = "{20, 0}";
},
{
name = center;
position = "{202, 273}";
},
{
name = top;
position = "{215, 556}";
},
{
name = topleft;
position = "{20, 556}";
}
);
layerId = "8609C873-3DB2-4A65-A2BD-5F22606290B7";
paths = (
{
closed = 1;
nodes = (
"449 0 LINE",
"449 298 LINE",
"449 467 OFFCURVE",
"384 556 OFFCURVE",
"214 556 CURVE",
"50 556 LINE",
"50 480 LINE",
"214 480 LINE",
"336 480 OFFCURVE",
"374 433 OFFCURVE",
"374 298 CURVE",
"374 0 LINE"
);
},
{
closed = 1;
nodes = (
"518 0 LINE",
"518 75 LINE",
"50 75 LINE",
"50 0 LINE"
);
}
);
width = 553;
},
{
anchors = (
{
name = bottom;
position = "{264, 0}";
},
{
name = bottomleft;
position = "{15, 0}";
},
{
name = center;
position = "{134, 278}";
},
{
name = top;
position = "{234, 556}";
},
{
name = topleft;
position = "{15, 539}";
}
);
layerId = "F5FC6CB4-8346-45E7-8DEF-2B856C43F982";
paths = (
{
closed = 1;
nodes = (
"472 0 LINE",
"472 295 LINE",
"472 451 OFFCURVE",
"348 556 OFFCURVE",
"165 556 CURVE",
"18 556 LINE",
"18 356 LINE",
"165 356 LINE",
"220 356 OFFCURVE",
"262 341 OFFCURVE",
"262 295 CURVE",
"262 0 LINE"
);
},
{
closed = 1;
nodes = (
"519 0 LINE",
"519 200 LINE",
"18 200 LINE",
"18 0 LINE"
);
}
);
width = 533;
}
);
unicode = 05D1;
},
{
glyphname = "gimel-hb";
lastChange = "2019-11-26 10:54:32 +0000";
layers = (
{
anchors = (
{
name = bottom;
position = "{192, 0}";
},
{
name = bottomleft;
position = "{10, 0}";
},
{
name = center;
position = "{131, 278}";
},
{
name = top;
position = "{172, 556}";
},
{
name = topleft;
position = "{10, 556}";
}
);
layerId = "3BB9E4C4-DEF2-48EE-A047-AEFABDBAAE6E";
paths = (
{
closed = 1;
nodes = (
"255 0 LINE",
"245 245 LINE",
"239 433 OFFCURVE",
"240 534 OFFCURVE",
"97 561 CURVE",
"96 556 LINE",
"236 530 OFFCURVE",
"234 430 OFFCURVE",
"240 245 CURVE",
"250 0 LINE"
);
},
{
closed = 1;
nodes = (
"131 15 OFFCURVE",
"208 155 OFFCURVE",
"245 236 CURVE",
"241 238 LINE",
"200 153 OFFCURVE",
"127 18 OFFCURVE",
"62 5 CURVE",
"63 0 LINE"
);
}
);
width = 354;
},
{
anchors = (
{
name = bottom;
position = "{182, 0}";
},
{
name = bottomleft;
position = "{20, 0}";
},
{
name = center;
position = "{106, 285}";
},
{
name = top;
position = "{182, 556}";
},
{
name = topleft;
position = "{20, 556}";
}
);
layerId = "8609C873-3DB2-4A65-A2BD-5F22606290B7";
paths = (
{
closed = 1;
nodes = (
"310 3 LINE",
"295 307 LINE SMOOTH",
"286 498 OFFCURVE",
"219 545 OFFCURVE",
"83 563 CURVE",
"73 489 LINE",
"173 476 OFFCURVE",
"210 461 OFFCURVE",
"219 289 CURVE SMOOTH",
"235 -1 LINE"
);
},
{
closed = 1;
nodes = (
"167 24 OFFCURVE",
"230 98 OFFCURVE",
"252 184 CURVE",
"231 234 LINE",
"195 143 OFFCURVE",
"128 96 OFFCURVE",
"38 69 CURVE",
"49 -12 LINE"
);
}
);
width = 364;
},
{
anchors = (
{
name = bottom;
position = "{202, 0}";
},
{
name = bottomleft;
position = "{40, 0}";
},
{
name = center;
position = "{65, 275}";
},
{
name = top;
position = "{202, 556}";
},
{
name = topleft;
position = "{40, 556}";
}
);
layerId = "F5FC6CB4-8346-45E7-8DEF-2B856C43F982";
paths = (
{
closed = 1;
nodes = (
"390 0 LINE",
"373 279 LINE SMOOTH",
"363 442 OFFCURVE",
"306 556 OFFCURVE",
"28 556 CURVE",
"28 366 LINE",
"121 366 OFFCURVE",
"156 332 OFFCURVE",
"161 267 CURVE SMOOTH",
"181 0 LINE"
);
},
{
closed = 1;
nodes = (
"141 -3 OFFCURVE",
"235 131 OFFCURVE",
"265 245 CURVE",
"205 341 LINE",
"181 247 OFFCURVE",
"116 187 OFFCURVE",
"12 187 CURVE",
"12 -3 LINE"
);
}
);
width = 398;
},
{
anchors = (
{
name = bottom;
position = "{201, 0}";
},
{
name = bottomleft;
position = "{39, 0}";
},
{
name = center;
position = "{68, 276}";
},
{
name = top;
position = "{201, 556}";
},
{
name = topleft;
position = "{39, 556}";
}
);
associatedMasterId = "8609C873-3DB2-4A65-A2BD-5F22606290B7";
layerId = "B22672E1-5A1A-435A-8DDF-4E748BF33B3D";
name = "{200}";
paths = (
{
closed = 1;
nodes = (
"384 0 LINE",
"367 281 LINE SMOOTH",
"357 446 OFFCURVE",
"288 558 OFFCURVE",
"47 571 CURVE",
"31 389 LINE",
"113 377 OFFCURVE",
"160 342 OFFCURVE",
"165 269 CURVE SMOOTH",
"185 0 LINE"
);
},
{
closed = 1;
nodes = (
"143 9 OFFCURVE",
"235 129 OFFCURVE",
"264 240 CURVE",
"207 333 LINE",
"182 239 OFFCURVE",
"117 190 OFFCURVE",
"31 169 CURVE",
"15 -13 LINE"
);
}
);
width = 395;
}
);
unicode = 05D2;
},
{
glyphname = "dalet-hb";
lastChange = "2019-10-21 20:12:01 +0000";
layers = (
{
anchors = (
{
name = bottom;
position = "{398, 0}";
},
{
name = bottomleft;
position = "{29, 0}";
},
{
name = center;
position = "{212, 278}";
},
{
name = top;
position = "{274, 556}";
},
{
name = topleft;
position = "{29, 556}";
}
);
layerId = "3BB9E4C4-DEF2-48EE-A047-AEFABDBAAE6E";
paths = (
{
closed = 1;
nodes = (
"402 4 LINE",
"402 558 LINE",
"397 558 LINE",
"397 4 LINE"
);
},
{
closed = 1;
nodes = (
"467 555 LINE",
"467 560 LINE",
"45 560 LINE",
"45 555 LINE"
);
}
);
width = 534;
},
{
anchors = (
{
name = bottom;
position = "{379, 0}";
},
{
name = bottomleft;
position = "{20, 0}";
},
{
name = center;
position = "{185, 273}";
},
{
name = top;
position = "{265, 556}";
},
{
name = topleft;
position = "{20, 556}";
}
);
layerId = "8609C873-3DB2-4A65-A2BD-5F22606290B7";
paths = (
{
closed = 1;
nodes = (
"415 0 LINE",
"415 500 LINE",
"340 500 LINE",
"340 0 LINE"
);
},
{
closed = 1;
nodes = (
"480 480 LINE",
"480 556 LINE",
"40 556 LINE",
"40 480 LINE"
);
}
);
width = 530;
},
{
anchors = (
{
name = bottom;
position = "{365, 0}";
},
{
name = bottomleft;
position = "{32, 0}";
},
{
name = center;
position = "{128, 218}";
},
{
name = top;
position = "{277, 556}";
},
{
name = topleft;
position = "{32, 556}";
}
);
layerId = "F5FC6CB4-8346-45E7-8DEF-2B856C43F982";
paths = (
{
closed = 1;
nodes = (
"464 4 LINE",
"464 411 LINE",
"254 411 LINE",
"254 4 LINE"
);
},
{
closed = 1;
nodes = (
"529 365 LINE",
"529 556 LINE",
"12 556 LINE",
"12 365 LINE"
);
}
);
width = 541;
}
);
rightKerningGroup = daletL;
unicode = 05D3;
},
{
glyphname = "he-hb";
lastChange = "2019-10-27 17:47:50 +0000";
layers = (
{
anchors = (
{
name = bottom;
position = "{316, 0}";
},
{
name = bottomleft;
position = "{0, 0}";
},
{
name = center;
position = "{308, 278}";
},
{
name = top;
position = "{285, 556}";
},
{
name = topleft;
position = "{0, 556}";
}
);
layerId = "3BB9E4C4-DEF2-48EE-A047-AEFABDBAAE6E";
paths = (
{
closed = 1;
nodes = (
"523 0 LINE",
"524 334 LINE",
"524 488 OFFCURVE",
"470 557 OFFCURVE",
"323 557 CURVE",
"96 557 LINE",
"96 552 LINE",
"323 552 LINE",
"466 552 OFFCURVE",
"519 489 OFFCURVE",
"519 334 CURVE",
"518 0 LINE"
);
},
{
closed = 1;
nodes = (
"104 0 LINE",
"105 338 LINE",
"100 338 LINE",
"99 0 LINE"
);
}
);
width = 620;
},
{
anchors = (
{
name = bottom;
position = "{315, 0}";
},
{
name = bottomleft;
position = "{20, 0}";
},
{
name = center;
position = "{305, 273}";
},
{
name = top;
position = "{305, 556}";
},
{
name = topleft;
position = "{20, 556}";
}
);
layerId = "8609C873-3DB2-4A65-A2BD-5F22606290B7";
paths = (
{
closed = 1;
nodes = (
"540 0 LINE",
"540 293 LINE",
"540 465 OFFCURVE",
"476 556 OFFCURVE",
"305 556 CURVE",
"70 556 LINE",
"70 480 LINE",
"305 480 LINE",
"427 480 OFFCURVE",
"465 433 OFFCURVE",
"465 293 CURVE",
"465 0 LINE"
);
},
{
closed = 1;
nodes = (
"149 0 LINE",
"149 348 LINE",
"74 348 LINE",
"74 0 LINE"
);
}
);
width = 610;
},
{
anchors = (
{
name = bottom;
position = "{283, 0}";
},
{
name = bottomleft;
position = "{-2, 0}";
},
{
name = center;
position = "{312, 228}";
},
{
name = top;
position = "{283, 556}";
},
{
name = topleft;
position = "{-2, 556}";
}
);
layerId = "F5FC6CB4-8346-45E7-8DEF-2B856C43F982";
paths = (
{
closed = 1;
nodes = (
"601 0 LINE",
"601 295 LINE SMOOTH",
"601 448 OFFCURVE",
"478 556 OFFCURVE",
"293 556 CURVE SMOOTH",
"18 556 LINE",
"18 366 LINE",
"293 366 LINE SMOOTH",
"350 366 OFFCURVE",
"391 331 OFFCURVE",
"391 295 CURVE SMOOTH",
"391 0 LINE"
);
},
{
closed = 1;
nodes = (
"232 0 LINE",
"232 282 LINE",
"22 282 LINE",
"22 0 LINE"
);
}
);
width = 619;
}
);
unicode = 05D4;
},
{
glyphname = "vav-hb";
lastChange = "2019-11-26 10:54:32 +0000";
layers = (
{
anchors = (
{
name = bottom;
position = "{193, -1}";
},
{
name = bottomleft;
position = "{0, 0}";
},
{
name = center;
position = "{113, 278}";
},
{
name = top;
position = "{135, 556}";
},
{
name = topleft;
position = "{184, 556}";
}
);
layerId = "3BB9E4C4-DEF2-48EE-A047-AEFABDBAAE6E";
paths = (
{
closed = 1;
nodes = (
"196 -1 LINE",
"196 392 LINE",
"196 487 OFFCURVE",
"160 540 OFFCURVE",
"81 563 CURVE",
"80 558 LINE",
"157 536 OFFCURVE",
"191 484 OFFCURVE",
"191 392 CURVE",
"191 -1 LINE"
);
}
);
width = 292;
},
{
anchors = (
{
name = bottom;
position = "{198, 0}";
},
{
name = bottomleft;
position = "{20, 0}";
},
{
name = center;
position = "{61, 273}";
},
{
name = top;
position = "{152, 556}";
},
{
name = topleft;
position = "{178, 556}";
}
);
layerId = "8609C873-3DB2-4A65-A2BD-5F22606290B7";
paths = (
{
closed = 1;
nodes = (
"234 0 LINE",
"234 330 LINE",
"234 469 OFFCURVE",
"184 549 OFFCURVE",
"50 562 CURVE",
"40 486 LINE",
"121 473 OFFCURVE",
"159 438 OFFCURVE",
"159 330 CURVE",
"159 0 LINE"
);
}
);
width = 304;
},
{
anchors = (
{
name = bottom;
position = "{213, 0}";
},
{
name = bottomleft;
position = "{54, 0}";
},
{
name = center;
position = "{23, 218}";
},
{
name = top;
position = "{146, 556}";
},
{
name = topleft;
position = "{214, 556}";
}
);
layerId = "F5FC6CB4-8346-45E7-8DEF-2B856C43F982";
paths = (
{
closed = 1;
nodes = (
"312 0 LINE",
"312 289 LINE",
"312 454 OFFCURVE",
"254 556 OFFCURVE",
"18 556 CURVE",
"18 366 LINE",
"78 366 OFFCURVE",
"102 341 OFFCURVE",
"102 289 CURVE",
"102 0 LINE"
);
}
);
width = 330;
},
{
anchors = (
{
name = bottom;
position = "{212, 0}";
},
{
name = bottomleft;
position = "{51, 0}";
},
{
name = center;
position = "{26, 222}";
},
{
name = top;
position = "{146, 556}";
},
{
name = topleft;
position = "{211, 556}";
}
);
associatedMasterId = "8609C873-3DB2-4A65-A2BD-5F22606290B7";
layerId = "83F080E6-12F2-4C05-9222-28F2F7FF63CF";
name = "{200}";
paths = (
{
closed = 1;
nodes = (
"306 0 LINE",
"306 292 LINE",
"306 474 OFFCURVE",
"227 550 OFFCURVE",
"30 565 CURVE",
"20 384 LINE",
"81 369 OFFCURVE",
"106 348 OFFCURVE",
"106 292 CURVE",
"106 0 LINE"
);
}
);
width = 328;
}
);
unicode = 05D5;
},
{
glyphname = "zayin-hb";
lastChange = "2019-11-26 10:54:32 +0000";
layers = (
{
anchors = (
{
name = bottom;
position = "{185, 0}";
},
{
name = bottomleft;
position = "{30, 0}";
},
{
name = center;
position = "{81, 278}";
},
{
name = top;
position = "{165, 556}";
},
{
name = topleft;
position = "{30, 556}";
}
);
layerId = "3BB9E4C4-DEF2-48EE-A047-AEFABDBAAE6E";
paths = (
{
closed = 1;
nodes = (
"209 3 LINE",
"195 59 OFFCURVE",
"173 159 OFFCURVE",
"167 277 CURVE SMOOTH",
"161 395 OFFCURVE",
"173 499 OFFCURVE",
"183 554 CURVE",
"178 557 LINE",
"167 499 OFFCURVE",
"156 388 OFFCURVE",
"161 277 CURVE SMOOTH",
"166 168 OFFCURVE",
"188 60 OFFCURVE",
"204 0 CURVE"
);
},
{
closed = 1;
nodes = (
"260 555 LINE",
"260 560 LINE",
"73 560 LINE",
"73 555 LINE"
);
}
);
width = 330;
},
{
anchors = (
{
name = bottom;
position = "{201, 0}";
},
{
name = bottomleft;
position = "{20, 0}";
},
{
name = center;
position = "{41, 273}";
},
{
name = top;
position = "{185, 556}";
},
{
name = topleft;
position = "{20, 556}";
}
);
layerId = "8609C873-3DB2-4A65-A2BD-5F22606290B7";
paths = (
{
closed = 1;
nodes = (
"268 16 LINE",
"228 103 OFFCURVE",
"201 199 OFFCURVE",
"201 311 CURVE SMOOTH",
"201 375 OFFCURVE",
"206 430 OFFCURVE",
"236 487 CURVE",
"184 512 LINE",
"145 434 OFFCURVE",
"126 369 OFFCURVE",
"126 303 CURVE SMOOTH",
"126 186 OFFCURVE",
"153 76 OFFCURVE",
"202 -20 CURVE"
);
},
{
closed = 1;
nodes = (
"320 481 LINE",
"320 556 LINE",
"50 556 LINE",
"50 481 LINE"
);
}
);
width = 370;
},
{
anchors = (
{
name = bottom;
position = "{194, 0}";
},
{
name = bottomleft;
position = "{20, 0}";
},
{
name = center;
position = "{-3, 258}";
},
{
name = top;
position = "{178, 556}";
},
{
name = topleft;
position = "{20, 556}";
}
);
layerId = "F5FC6CB4-8346-45E7-8DEF-2B856C43F982";
paths = (
{
closed = 1;
nodes = (
"310 0 LINE",
"290 104 OFFCURVE",
"285 177 OFFCURVE",
"282 234 CURVE SMOOTH",
"280 273 OFFCURVE",
"285 321 OFFCURVE",
"306 389 CURVE",
"99 388 LINE",
"78 328 OFFCURVE",
"69 281 OFFCURVE",
"72 223 CURVE SMOOTH",
"76 141 OFFCURVE",
"78 84 OFFCURVE",
"98 0 CURVE"
);
},
{
closed = 1;
nodes = (
"347 366 LINE",
"347 556 LINE",
"9 556 LINE",
"9 366 LINE"
);
}
);
width = 356;
},
{
anchors = (
{
name = bottom;
position = "{195, 0}";
},
{
name = bottomleft;
position = "{20, 0}";
},
{
name = center;
position = "{0, 259}";
},
{
name = top;
position = "{179, 556}";
},
{
name = topleft;
position = "{20, 556}";
}
);
associatedMasterId = "8609C873-3DB2-4A65-A2BD-5F22606290B7";
layerId = "C9E271D1-1B9F-422C-A5A9-E0BAEDB72043";
name = "{200}";
paths = (
{
closed = 1;
nodes = (
"319 23 LINE",
"288 105 OFFCURVE",
"270 181 OFFCURVE",
"268 227 CURVE SMOOTH",
"266 283 OFFCURVE",
"270 328 OFFCURVE",
"293 396 CURVE",
"97 397 LINE",
"74 343 OFFCURVE",
"64 290 OFFCURVE",
"67 217 CURVE SMOOTH",
"70 147 OFFCURVE",
"97 65 OFFCURVE",
"134 -23 CURVE"
);
},
{
closed = 1;
nodes = (
"345 375 LINE",
"345 556 LINE",
"12 556 LINE",
"12 375 LINE"
);
}
);
width = 357;
}
);
unicode = 05D6;
},
{
glyphname = "het-hb";
lastChange = "2019-10-27 17:47:46 +0000";
layers = (
{
anchors = (
{
name = bottom;
position = "{319, 0}";
},
{
name = bottomleft;
position = "{-11, 0}";
},
{
name = center;
position = "{302, 278}";
},
{
name = top;
position = "{279, 556}";
},
{
name = topleft;
position = "{-11, 556}";
}
);
layerId = "3BB9E4C4-DEF2-48EE-A047-AEFABDBAAE6E";
paths = (
{
closed = 1;
nodes = (
"526 0 LINE",
"526 338 LINE",
"526 495 OFFCURVE",
"471 561 OFFCURVE",
"326 561 CURVE",
"96 561 LINE",
"96 556 LINE",
"326 556 LINE",
"471 556 OFFCURVE",
"521 489 OFFCURVE",
"521 338 CURVE",
"521 0 LINE"
);
},
{
closed = 1;
nodes = (
"101 0 LINE",
"101 561 LINE",
"96 561 LINE",
"96 0 LINE"
);
}
);
width = 622;
},
{
anchors = (
{
name = bottom;
position = "{320, 0}";
},
{
name = bottomleft;
position = "{20, 0}";
},
{
name = center;
position = "{314, 273}";
},
{
name = top;
position = "{310, 556}";
},
{
name = topleft;
position = "{20, 556}";
}
);
layerId = "8609C873-3DB2-4A65-A2BD-5F22606290B7";
paths = (
{
closed = 1;
nodes = (
"550 0 LINE",
"550 298 LINE",
"550 466 OFFCURVE",
"485 556 OFFCURVE",
"314 556 CURVE",
"70 556 LINE",
"70 481 LINE",
"314 481 LINE",
"435 481 OFFCURVE",
"475 433 OFFCURVE",
"475 298 CURVE",
"475 0 LINE"
);
},
{
closed = 1;
nodes = (
"145 0 LINE",
"145 556 LINE",
"70 556 LINE",
"70 0 LINE"
);
}
);
width = 620;
},
{
anchors = (
{
name = bottom;
position = "{300, 0}";
},
{
name = bottomleft;
position = "{2, 0}";
},
{
name = center;
position = "{292, 278}";
},
{
name = top;
position = "{292, 556}";
},
{
name = topleft;
position = "{2, 556}";
}
);
layerId = "F5FC6CB4-8346-45E7-8DEF-2B856C43F982";
paths = (
{
closed = 1;
nodes = (
"593 0 LINE",
"593 235 LINE",
"593 437 OFFCURVE",
"482 556 OFFCURVE",
"285 556 CURVE",
"18 556 LINE",
"18 366 LINE",
"285 366 LINE",
"351 366 OFFCURVE",
"383 323 OFFCURVE",
"383 235 CURVE",
"383 0 LINE"
);
},
{
closed = 1;
nodes = (
"228 0 LINE",
"228 556 LINE",
"18 556 LINE",
"18 0 LINE"
);
}
);
width = 611;
}
);
unicode = 05D7;
},
{
glyphname = "tet-hb";
lastChange = "2019-10-21 19:48:40 +0000";
layers = (
{
anchors = (
{
name = bottom;
position = "{334, 0}";
},
{
name = bottomleft;
position = "{10, 0}";
},
{
name = center;
position = "{331, 278}";
},
{
name = top;
position = "{314, 556}";
},
{
name = topleft;
position = "{10, 556}";
}
);
layerId = "3BB9E4C4-DEF2-48EE-A047-AEFABDBAAE6E";
paths = (
{
closed = 1;
nodes = (
"500 -11 OFFCURVE",
"584 98 OFFCURVE",
"584 276 CURVE",
"584 430 OFFCURVE",
"539 559 OFFCURVE",
"423 559 CURVE",
"385 559 OFFCURVE",
"329 539 OFFCURVE",
"296 520 CURVE",
"299 516 LINE",
"331 534 OFFCURVE",
"386 554 OFFCURVE",
"423 554 CURVE",
"534 554 OFFCURVE",
"579 431 OFFCURVE",
"579 276 CURVE",
"579 104 OFFCURVE",
"500 -6 OFFCURVE",
"329 -6 CURVE",
"182 -6 OFFCURVE",
"101 144 OFFCURVE",
"101 329 CURVE",
"101 556 LINE",
"96 556 LINE",
"96 329 LINE",
"96 110 OFFCURVE",
"197 -11 OFFCURVE",
"329 -11 CURVE"
);
}
);
width = 658;
},
{
anchors = (
{
name = bottom;
position = "{324, 0}";
},
{
name = bottomleft;
position = "{20, 0}";
},
{
name = center;
position = "{329, 283}";
},
{
name = top;
position = "{324, 556}";
},
{
name = topleft;
position = "{20, 556}";
}
);
layerId = "8609C873-3DB2-4A65-A2BD-5F22606290B7";
paths = (
{
closed = 1;
nodes = (
"489 -11 OFFCURVE",
"598 104 OFFCURVE",
"598 291 CURVE SMOOTH",
"598 479 OFFCURVE",
"521 563 OFFCURVE",
"383 563 CURVE",
"344 563 OFFCURVE",
"293 544 OFFCURVE",
"254 522 CURVE",
"278 457 LINE",
"317 479 OFFCURVE",
"344 490 OFFCURVE",
"383 490 CURVE",
"465 490 OFFCURVE",
"523 440 OFFCURVE",
"523 291 CURVE SMOOTH",
"523 149 OFFCURVE",
"450 64 OFFCURVE",
"320 64 CURVE SMOOTH",
"206 64 OFFCURVE",
"144 152 OFFCURVE",
"145 321 CURVE SMOOTH",
"146 556 LINE",
"71 556 LINE",
"70 321 LINE SMOOTH",
"69 90 OFFCURVE",
"146 -11 OFFCURVE",
"320 -11 CURVE SMOOTH"
);
}
);
width = 648;
},
{
anchors = (
{
name = bottom;
position = "{353, 0}";
},
{
name = bottomleft;
position = "{39, 0}";
},
{
name = center;
position = "{339, 273}";
},
{
name = top;
position = "{343, 556}";
},
{
name = topleft;
position = "{39, 556}";
}
);
layerId = "F5FC6CB4-8346-45E7-8DEF-2B856C43F982";
paths = (
{
closed = 1;
nodes = (
"532 -20 OFFCURVE",
"662 91 OFFCURVE",
"662 293 CURVE SMOOTH",
"662 443 OFFCURVE",
"596 563 OFFCURVE",
"429 563 CURVE",
"399 563 OFFCURVE",
"368 558 OFFCURVE",
"308 547 CURVE",
"313 357 LINE",
"340 363 OFFCURVE",
"359 363 OFFCURVE",
"376 363 CURVE SMOOTH",
"426 363 OFFCURVE",
"452 319 OFFCURVE",
"452 272 CURVE SMOOTH",
"452 225 OFFCURVE",
"415 170 OFFCURVE",
"340 170 CURVE SMOOTH",
"258 170 OFFCURVE",
"228 220 OFFCURVE",
"228 276 CURVE SMOOTH",
"229 556 LINE",
"19 556 LINE",
"18 297 LINE SMOOTH",
"17 100 OFFCURVE",
"131 -20 OFFCURVE",
"340 -20 CURVE SMOOTH"
);
}
);
width = 670;
},
{
anchors = (
{
name = bottom;
position = "{351, 0}";
},
{
name = bottomleft;
position = "{38, 0}";
},
{
name = center;
position = "{338, 274}";
},
{
name = top;
position = "{342, 556}";
},
{
name = topleft;
position = "{38, 556}";
}
);
associatedMasterId = "8609C873-3DB2-4A65-A2BD-5F22606290B7";
layerId = "BF597240-00DC-4A6C-899D-4C8DFE0DAB46";
name = "{200}";
paths = (
{
closed = 1;
nodes = (
"529 -19 OFFCURVE",
"657 92 OFFCURVE",
"657 293 CURVE SMOOTH",
"657 446 OFFCURVE",
"590 575 OFFCURVE",
"426 575 CURVE",
"363 575 OFFCURVE",
"324 565 OFFCURVE",
"276 543 CURVE",
"313 365 LINE",
"339 377 OFFCURVE",
"366 382 OFFCURVE",
"384 382 CURVE",
"429 382 OFFCURVE",
"457 335 OFFCURVE",
"457 273 CURVE SMOOTH",
"457 219 OFFCURVE",
"418 162 OFFCURVE",
"339 162 CURVE SMOOTH",
"254 162 OFFCURVE",
"222 215 OFFCURVE",
"222 279 CURVE SMOOTH",
"223 556 LINE",
"23 556 LINE",
"22 299 LINE SMOOTH",
"21 99 OFFCURVE",
"132 -19 OFFCURVE",
"339 -19 CURVE SMOOTH"
);
}
);
width = 668;
}
);
unicode = 05D8;
},
{
glyphname = "yod-hb";
lastChange = "2019-11-26 10:54:32 +0000";
layers = (
{
anchors = (
{
name = bottom;
position = "{196, 0}";
},
{
name = bottomleft;
position = "{40, 0}";
},
{
name = center;
position = "{129, 341}";
},
{
name = top;
position = "{186, 556}";
},
{
name = topleft;
position = "{40, 556}";
}
);
layerId = "3BB9E4C4-DEF2-48EE-A047-AEFABDBAAE6E";
paths = (
{
closed = 1;
nodes = (
"261 311 OFFCURVE",
"267 341 OFFCURVE",
"267 392 CURVE",
"267 502 OFFCURVE",
"188 565 OFFCURVE",
"74 565 CURVE",
"74 560 LINE",
"187 560 OFFCURVE",
"262 495 OFFCURVE",
"262 392 CURVE",
"262 341 OFFCURVE",
"256 311 OFFCURVE",
"238 242 CURVE",
"243 240 LINE"
);
}
);
width = 362;
},
{
anchors = (
{
name = bottom;
position = "{190, 0}";
},
{
name = bottomleft;
position = "{24, 0}";
},
{
name = center;
position = "{88, 337}";
},
{
name = top;
position = "{170, 556}";
},
{
name = topleft;
position = "{24, 556}";
}
);
layerId = "8609C873-3DB2-4A65-A2BD-5F22606290B7";
paths = (
{
closed = 1;
nodes = (
"258 279 OFFCURVE",
"270 332 OFFCURVE",
"271 376 CURVE SMOOTH",
"273 481 OFFCURVE",
"206 560 OFFCURVE",
"48 560 CURVE",
"40 486 LINE",
"153 486 OFFCURVE",
"196 440 OFFCURVE",
"196 377 CURVE SMOOTH",
"196 341 OFFCURVE",
"185 294 OFFCURVE",
"165 205 CURVE",
"237 191 LINE"
);
}
);
width = 336;
},
{
anchors = (
{
name = bottom;
position = "{192, 0}";
},
{
name = bottomleft;
position = "{6, 0}";
},
{
name = center;
position = "{28, 273}";
},
{
name = top;
position = "{162, 556}";
},
{
name = topleft;
position = "{6, 556}";
}
);
layerId = "F5FC6CB4-8346-45E7-8DEF-2B856C43F982";
paths = (
{
closed = 1;
nodes = (
"313 201 OFFCURVE",
"333 278 OFFCURVE",
"333 344 CURVE",
"333 443 OFFCURVE",
"255 556 OFFCURVE",
"18 556 CURVE",
"18 366 LINE",
"99 361 OFFCURVE",
"123 329 OFFCURVE",
"123 299 CURVE",
"123 267 OFFCURVE",
"120 239 OFFCURVE",
"101 184 CURVE",
"280 117 LINE"
);
}
);
width = 345;
},
{
anchors = (
{
name = bottom;
position = "{192, 0}";
},
{
name = bottomleft;
position = "{7, 0}";
},
{
name = center;
position = "{32, 278}";
},
{
name = top;
position = "{163, 556}";
},
{
name = topleft;
position = "{7, 556}";
}
);
associatedMasterId = "8609C873-3DB2-4A65-A2BD-5F22606290B7";
layerId = "77F7CE6B-CE3F-4C2C-85CE-2ED38D205E6B";
name = "{200}";
paths = (
{
closed = 1;
nodes = (
"309 207 OFFCURVE",
"328 282 OFFCURVE",
"328 346 CURVE SMOOTH",
"329 446 OFFCURVE",
"261 556 OFFCURVE",
"39 572 CURVE",
"19 392 LINE",
"113 370 OFFCURVE",
"128 337 OFFCURVE",
"128 305 CURVE SMOOTH",
"128 272 OFFCURVE",
"125 243 OFFCURVE",
"106 186 CURVE",
"277 122 LINE"
);
}
);
width = 344;
}
);
unicode = 05D9;
},
{
glyphname = "finalkaf-hb";
lastChange = "2019-10-27 17:57:35 +0000";
layers = (
{
anchors = (
{
name = bottom;
position = "{237, 437}";
},
{
name = bottomleft;
position = "{20, 0}";
},
{
name = center;
position = "{235, 278}";
},
{
name = top;
position = "{275, 556}";
},
{
name = topleft;
position = "{20, 556}";
}
);
layerId = "3BB9E4C4-DEF2-48EE-A047-AEFABDBAAE6E";
paths = (
{
closed = 1;
nodes = (
"408 -122 LINE",
"408 558 LINE",
"403 558 LINE",
"403 -122 LINE"
);
},
{
closed = 1;
nodes = (
"473 552 LINE",
"473 557 LINE",
"93 557 LINE",
"93 552 LINE"
);
}
);
width = 550;
},
{
anchors = (
{
name = bottom;
position = "{184, 363}";
},
{
name = bottomleft;
position = "{20, 0}";
},
{
name = center;
position = "{205, 273}";
},
{
name = top;
position = "{275, 556}";
},
{
name = topleft;
position = "{20, 556}";
}
);
layerId = "8609C873-3DB2-4A65-A2BD-5F22606290B7";
paths = (
{
closed = 1;
nodes = (
"435 -162 LINE",
"435 551 LINE",
"360 551 LINE",
"360 -162 LINE"
);
},
{
closed = 1;
nodes = (
"500 481 LINE",
"500 556 LINE",
"50 556 LINE",
"50 481 LINE"
);
}
);
width = 550;
},
{
anchors = (
{
name = bottom;
position = "{132, 375}";
},
{
name = bottomleft;
position = "{14, 0}";
},
{
name = center;
position = "{136, 244}";
},
{
name = top;
position = "{269, 556}";
},
{
name = topleft;
position = "{14, 556}";
}
);
layerId = "F5FC6CB4-8346-45E7-8DEF-2B856C43F982";
paths = (
{
closed = 1;
nodes = (
"472 -152 LINE",
"472 556 LINE",
"262 556 LINE",
"262 -152 LINE"
);
},
{
closed = 1;
nodes = (
"537 365 LINE",
"537 556 LINE",
"12 556 LINE",
"12 365 LINE"
);
}
);
width = 549;
}
);
rightKerningGroup = daletL;
unicode = 05DA;
},
{
glyphname = "kaf-hb";
lastChange = "2019-10-06 22:54:43 +0000";
layers = (
{
anchors = (
{
name = bottom;
position = "{231, 0}";
},
{
name = bottomleft;
position = "{-12, 0}";
},
{
name = center;
position = "{202, 278}";
},
{
name = top;
position = "{221, 556}";
},
{
name = topleft;
position = "{-12, 556}";
}
);
layerId = "3BB9E4C4-DEF2-48EE-A047-AEFABDBAAE6E";
paths = (
{
closed = 1;
nodes = (
"224 0 LINE",
"377 0 OFFCURVE",
"448 112 OFFCURVE",
"448 280 CURVE",
"448 461 OFFCURVE",
"366 561 OFFCURVE",
"182 561 CURVE",
"70 561 LINE",
"70 556 LINE",
"182 556 LINE",
"361 556 OFFCURVE",
"443 461 OFFCURVE",
"443 280 CURVE",
"443 118 OFFCURVE",
"378 5 OFFCURVE",
"224 5 CURVE",
"70 5 LINE",
"70 0 LINE"
);
}
);
width = 518;
},
{
anchors = (
{
name = bottom;
position = "{223, 0}";
},
{
name = bottomleft;
position = "{20, 0}";
},
{
name = center;
position = "{186, 273}";
},
{
name = top;
position = "{187, 556}";
},
{
name = topleft;
position = "{20, 556}";
}
);
layerId = "8609C873-3DB2-4A65-A2BD-5F22606290B7";
paths = (
{
closed = 1;
nodes = (
"196 0 LINE",
"375 0 OFFCURVE",
"456 95 OFFCURVE",
"456 277 CURVE",
"456 476 OFFCURVE",
"363 556 OFFCURVE",
"154 556 CURVE",
"50 556 LINE",
"50 481 LINE",
"154 481 LINE",
"319 481 OFFCURVE",
"381 435 OFFCURVE",
"381 277 CURVE",
"381 137 OFFCURVE",
"331 75 OFFCURVE",
"196 75 CURVE",
"50 75 LINE",
"50 0 LINE"
);
}
);
width = 506;
},
{
anchors = (
{
name = bottom;
position = "{246, 0}";
},
{
name = bottomleft;
position = "{13, 0}";
},
{
name = center;
position = "{146, 278}";
},
{
name = top;
position = "{216, 556}";
},
{
name = topleft;
position = "{13, 556}";
}
);
layerId = "F5FC6CB4-8346-45E7-8DEF-2B856C43F982";
paths = (
{
closed = 1;
nodes = (
"195 0 LINE",
"411 0 OFFCURVE",
"501 79 OFFCURVE",
"501 278 CURVE",
"501 477 OFFCURVE",
"411 556 OFFCURVE",
"195 556 CURVE",
"18 556 LINE",
"18 366 LINE",
"195 366 LINE",
"258 366 OFFCURVE",
"291 341 OFFCURVE",
"291 278 CURVE",
"291 215 OFFCURVE",
"258 190 OFFCURVE",
"195 190 CURVE",
"31 190 LINE",
"31 0 LINE"
);
}
);
width = 513;
}
);
unicode = 05DB;
},
{
glyphname = "lamed-hb";
lastChange = "2019-11-26 10:54:32 +0000";
layers = (
{
anchors = (
{
name = bottom;
position = "{245, 0}";
},
{
name = bottomleft;
position = "{30, 0}";
},
{
name = center;
position = "{250, 278}";
},
{
name = top;
position = "{275, 556}";
},
{
name = topleft;
position = "{30, 556}";
}
);
layerId = "3BB9E4C4-DEF2-48EE-A047-AEFABDBAAE6E";
paths = (
{
closed = 1;
nodes = (
"366 68 OFFCURVE",
"477 213 OFFCURVE",
"477 338 CURVE",
"477 497 OFFCURVE",
"388 556 OFFCURVE",
"231 561 CURVE",
"85 556 LINE",
"85 730 LINE",
"80 730 LINE",
"80 551 LINE",
"231 556 LINE",
"381 551 OFFCURVE",
"472 496 OFFCURVE",
"472 338 CURVE",
"472 219 OFFCURVE",
"364 72 OFFCURVE",
"203 6 CURVE",
"205 1 LINE"
);
}
);
width = 540;
},
{
anchors = (
{
name = bottom;
position = "{215, 0}";
},
{
name = bottomleft;
position = "{20, 0}";
},
{
name = center;
position = "{209, 293}";
},
{
name = top;
position = "{295, 556}";
},
{
name = topleft;
position = "{20, 556}";
}
);
layerId = "8609C873-3DB2-4A65-A2BD-5F22606290B7";
paths = (
{
closed = 1;
nodes = (
"379 56 OFFCURVE",
"480 161 OFFCURVE",
"480 358 CURVE SMOOTH",
"480 476 OFFCURVE",
"379 556 OFFCURVE",
"264 556 CURVE SMOOTH",
"124 556 LINE",
"125 730 LINE",
"50 730 LINE",
"51 481 LINE",
"235 481 LINE SMOOTH",
"347 481 OFFCURVE",
"405 436 OFFCURVE",
"405 335 CURVE SMOOTH",
"405 187 OFFCURVE",
"315 107 OFFCURVE",
"156 53 CURVE",
"175 -19 LINE"
);
}
);
width = 530;
},
{
anchors = (
{
name = bottom;
position = "{273, 0}";
},
{
name = bottomleft;
position = "{35, 0}";
},
{
name = center;
position = "{160, 275}";
},
{
name = top;
position = "{273, 556}";
},
{
name = topleft;
position = "{-15, 556}";
}
);
layerId = "F5FC6CB4-8346-45E7-8DEF-2B856C43F982";
paths = (
{
closed = 1;
nodes = (
"396 3 OFFCURVE",
"524 134 OFFCURVE",
"524 305 CURVE",
"524 452 OFFCURVE",
"438 556 OFFCURVE",
"271 556 CURVE",
"229 556 LINE",
"229 678 LINE",
"18 679 LINE",
"18 366 LINE",
"131 366 LINE",
"256 366 OFFCURVE",
"314 356 OFFCURVE",
"314 281 CURVE",
"314 235 OFFCURVE",
"271 186 OFFCURVE",
"161 186 CURVE",
"161 0 LINE"
);
}
);
width = 532;
},
{
anchors = (
{
name = bottom;
position = "{269, 0}";
},
{
name = bottomleft;
position = "{34, 0}";
},
{
name = center;
position = "{164, 276}";
},
{
name = top;
position = "{275, 556}";
},
{
name = topleft;
position = "{-5, 556}";
}
);
associatedMasterId = "8609C873-3DB2-4A65-A2BD-5F22606290B7";
layerId = "9DB237C9-0313-4AD3-B6CE-1AA707B22AEB";
name = "{200}";
paths = (
{
closed = 1;
nodes = (
"395 18 OFFCURVE",
"521 136 OFFCURVE",
"521 292 CURVE SMOOTH",
"521 454 OFFCURVE",
"434 556 OFFCURVE",
"270 556 CURVE SMOOTH",
"221 556 LINE",
"221 682 LINE",
"20 683 LINE",
"20 375 LINE",
"139 375 LINE SMOOTH",
"263 375 OFFCURVE",
"321 362 OFFCURVE",
"321 285 CURVE SMOOTH",
"321 231 OFFCURVE",
"274 177 OFFCURVE",
"119 153 CURVE",
"151 -18 LINE"
);
}
);
width = 532;
}
);
unicode = 05DC;
},
{
glyphname = "finalmem-hb";
lastChange = "2019-11-26 10:54:32 +0000";
layers = (
{
anchors = (
{
name = bottom;
position = "{302, 0}";
},
{
name = bottomleft;
position = "{15, 0}";
},
{
name = center;
position = "{302, 278}";
},
{
name = top;
position = "{302, 556}";
},
{
name = topleft;
position = "{15, 556}";
}
);
layerId = "3BB9E4C4-DEF2-48EE-A047-AEFABDBAAE6E";
paths = (
{
closed = 1;
nodes = (
"539 0 LINE",
"539 356 LINE",
"539 491 OFFCURVE",
"478 555 OFFCURVE",
"337 555 CURVE",
"96 555 LINE",
"96 0 LINE"
);
},
{
closed = 1;
nodes = (
"101 550 LINE",
"337 550 LINE",
"473 550 OFFCURVE",
"534 491 OFFCURVE",
"534 356 CURVE",
"534 5 LINE",
"101 5 LINE"
);
}
);
width = 635;
},
{
anchors = (
{
name = bottom;
position = "{307, 0}";
},
{
name = bottomleft;
position = "{20, 0}";
},
{
name = center;
position = "{310, 273}";
},
{
name = top;
position = "{307, 556}";
},
{
name = topleft;
position = "{20, 556}";
}
);
layerId = "8609C873-3DB2-4A65-A2BD-5F22606290B7";
paths = (
{
closed = 1;
nodes = (
"553 0 LINE",
"553 340 LINE",
"553 470 OFFCURVE",
"461 555 OFFCURVE",
"328 556 CURVE",
"70 556 LINE",
"70 0 LINE"
);
},
{
closed = 1;
nodes = (
"145 481 LINE",
"328 481 LINE",
"422 480 OFFCURVE",
"478 426 OFFCURVE",
"478 340 CURVE",
"478 75 LINE",
"145 75 LINE"
);
}
);
width = 613;
},
{
anchors = (
{
name = bottom;
position = "{288, 0}";
},
{
name = bottomleft;
position = "{2, 0}";
},
{
name = center;
position = "{290, 277}";
},
{
name = top;
position = "{288, 556}";
},
{
name = topleft;
position = "{2, 556}";
}
);
layerId = "F5FC6CB4-8346-45E7-8DEF-2B856C43F982";
paths = (
{
closed = 1;
nodes = (
"590 0 LINE",
"590 261 LINE",
"590 432 OFFCURVE",
"467 556 OFFCURVE",
"297 556 CURVE",
"18 556 LINE",
"18 0 LINE"
);
},
{
closed = 1;
nodes = (
"228 366 LINE",
"297 366 LINE",
"351 366 OFFCURVE",
"380 336 OFFCURVE",
"380 261 CURVE",
"380 190 LINE",
"228 190 LINE"
);
}
);
width = 608;
}
);
unicode = 05DD;
},
{
glyphname = "mem-hb";
lastChange = "2019-11-26 10:54:32 +0000";
layers = (
{
anchors = (
{
name = bottom;
position = "{365, 0}";
},
{
name = bottomleft;
position = "{7, 0}";
},
{
name = center;
position = "{368, 278}";
},
{
name = top;
position = "{325, 556}";
},
{
name = topleft;
position = "{7, 556}";
}
);
layerId = "3BB9E4C4-DEF2-48EE-A047-AEFABDBAAE6E";
paths = (
{
closed = 1;
nodes = (
"537 1 OFFCURVE",
"604 125 OFFCURVE",
"604 291 CURVE",
"604 478 OFFCURVE",
"541 572 OFFCURVE",
"396 572 CURVE",
"190 571 OFFCURVE",
"125 239 OFFCURVE",
"105 62 CURVE SMOOTH",
"98 -1 LINE",
"103 -1 LINE",
"110 61 LINE SMOOTH",
"130 235 OFFCURVE",
"194 567 OFFCURVE",
"396 567 CURVE",
"535 567 OFFCURVE",
"599 477 OFFCURVE",
"599 291 CURVE",
"599 130 OFFCURVE",
"533 6 OFFCURVE",
"389 5 CURVE",
"367 5 OFFCURVE",
"350 6 OFFCURVE",
"337 8 CURVE",
"337 3 LINE",
"350 1 OFFCURVE",
"366 0 OFFCURVE",
"389 0 CURVE"
);
},
{
closed = 1;
nodes = (
"207 431 LINE",
"177 474 OFFCURVE",
"122 527 OFFCURVE",
"74 560 CURVE",
"72 556 LINE",
"119 523 OFFCURVE",
"173 471 OFFCURVE",
"203 428 CURVE"
);
}
);
width = 691;
},
{
anchors = (
{
name = bottom;
position = "{358, 0}";
},
{
name = bottomleft;
position = "{20, 0}";
},
{
name = center;
position = "{376, 273}";
},
{
name = top;
position = "{338, 556}";
},
{
name = topleft;
position = "{20, 556}";
}
);
layerId = "8609C873-3DB2-4A65-A2BD-5F22606290B7";
paths = (
{
closed = 1;
nodes = (
"537 -9 OFFCURVE",
"626 108 OFFCURVE",
"626 258 CURVE SMOOTH",
"626 432 OFFCURVE",
"543 564 OFFCURVE",
"376 564 CURVE SMOOTH",
"182 564 OFFCURVE",
"127 343 OFFCURVE",
"101 106 CURVE SMOOTH",
"89 0 LINE",
"161 0 LINE",
"172 92 LINE SMOOTH",
"195 289 OFFCURVE",
"229 489 OFFCURVE",
"376 489 CURVE SMOOTH",
"495 489 OFFCURVE",
"551 395 OFFCURVE",
"551 258 CURVE SMOOTH",
"551 159 OFFCURVE",
"488 68 OFFCURVE",
"384 68 CURVE SMOOTH",
"362 68 OFFCURVE",
"340 74 OFFCURVE",
"315 80 CURVE",
"301 4 LINE",
"328 -3 OFFCURVE",
"353 -9 OFFCURVE",
"376 -9 CURVE SMOOTH"
);
},
{
closed = 1;
nodes = (
"229 435 LINE",
"195 474 OFFCURVE",
"164 518 OFFCURVE",
"89 568 CURVE",
"50 504 LINE",
"115 461 OFFCURVE",
"152 425 OFFCURVE",
"193 380 CURVE"
);
}
);
width = 676;
},
{
anchors = (
{
name = bottom;
position = "{346, 0}";
},
{
name = bottomleft;
position = "{28, 0}";
},
{
name = center;
position = "{380, 272}";
},
{
name = top;
position = "{346, 556}";
},
{
name = topleft;
position = "{28, 556}";
}
);
layerId = "F5FC6CB4-8346-45E7-8DEF-2B856C43F982";
paths = (
{
closed = 1;
nodes = (
"576 0 OFFCURVE",
"679 87 OFFCURVE",
"679 271 CURVE",
"679 426 OFFCURVE",
"571 566 OFFCURVE",
"403 566 CURVE",
"199 566 OFFCURVE",
"75 425 OFFCURVE",
"30 106 CURVE SMOOTH",
"15 0 LINE",
"228 0 LINE",
"240 92 LINE SMOOTH",
"270 285 OFFCURVE",
"314 366 OFFCURVE",
"386 366 CURVE",
"449 366 OFFCURVE",
"469 310 OFFCURVE",
"469 271 CURVE",
"469 224 OFFCURVE",
"449 180 OFFCURVE",
"390 180 CURVE",
"365 180 OFFCURVE",
"333 180 OFFCURVE",
"295 180 CURVE",
"270 0 LINE",
"318 0 OFFCURVE",
"362 0 OFFCURVE",
"407 0 CURVE"
);
},
{
closed = 1;
nodes = (
"276 383 LINE",
"230 475 OFFCURVE",
"152 561 OFFCURVE",
"22 561 CURVE",
"22 368 LINE",
"75 368 OFFCURVE",
"157 346 OFFCURVE",
"196 256 CURVE"
);
}
);
width = 687;
},
{
anchors = (
{
name = bottom;
position = "{347, 0}";
},
{
name = bottomleft;
position = "{27, 0}";
},
{
name = center;
position = "{380, 272}";
},
{
name = top;
position = "{345, 556}";
},
{
name = topleft;
position = "{27, 556}";
}
);
associatedMasterId = "8609C873-3DB2-4A65-A2BD-5F22606290B7";
layerId = "84A7CB90-8C80-4A6B-AEC8-CDFBDE135EB6";
name = "{200}";
paths = (
{
closed = 1;
nodes = (
"573 -17 OFFCURVE",
"675 109 OFFCURVE",
"675 270 CURVE SMOOTH",
"675 426 OFFCURVE",
"569 566 OFFCURVE",
"401 566 CURVE SMOOTH",
"198 566 OFFCURVE",
"79 419 OFFCURVE",
"35 106 CURVE SMOOTH",
"20 0 LINE",
"223 0 LINE",
"235 92 LINE SMOOTH",
"264 285 OFFCURVE",
"308 375 OFFCURVE",
"385 375 CURVE SMOOTH",
"452 375 OFFCURVE",
"475 316 OFFCURVE",
"475 270 CURVE SMOOTH",
"475 212 OFFCURVE",
"452 165 OFFCURVE",
"390 165 CURVE SMOOTH",
"362 165 OFFCURVE",
"342 170 OFFCURVE",
"296 183 CURVE",
"263 4 LINE",
"311 -11 OFFCURVE",
"367 -17 OFFCURVE",
"405 -17 CURVE SMOOTH"
);
},
{
closed = 1;
nodes = (
"273 391 LINE",
"227 453 OFFCURVE",
"178 517 OFFCURVE",
"53 564 CURVE",
"15 383 LINE",
"95 358 OFFCURVE",
"157 323 OFFCURVE",
"196 270 CURVE"
);
}
);
width = 686;
}
);
unicode = 05DE;
},
{
glyphname = "finalnun-hb";
lastChange = "2019-10-21 19:49:41 +0000";
layers = (
{
anchors = (
{
name = bottom;
position = "{80, 242}";
},
{
name = bottomleft;
position = "{-2, 0}";
},
{
name = center;
position = "{99, 278}";
},
{
name = top;
position = "{131, 556}";
},
{
name = topleft;
position = "{-2, 556}";
}
);
layerId = "3BB9E4C4-DEF2-48EE-A047-AEFABDBAAE6E";
paths = (
{
closed = 1;
nodes = (
"184 -122 LINE",
"184 375 LINE",
"184 466 OFFCURVE",
"158 537 OFFCURVE",
"82 561 CURVE",
"80 556 LINE",
"153 532 OFFCURVE",
"179 468 OFFCURVE",
"179 375 CURVE",
"179 -122 LINE"
);
}
);
width = 280;
},
{
anchors = (
{
name = bottom;
position = "{16, 273}";
},
{
name = bottomleft;
position = "{20, 0}";
},
{
name = center;
position = "{65, 273}";
},
{
name = top;
position = "{153, 556}";
},
{
name = topleft;
position = "{20, 556}";
}
);
layerId = "8609C873-3DB2-4A65-A2BD-5F22606290B7";
paths = (
{
closed = 1;
nodes = (
"235 -162 LINE",
"235 330 LINE",
"235 468 OFFCURVE",
"179 528 OFFCURVE",
"73 560 CURVE",
"48 485 LINE",
"124 466 OFFCURVE",
"160 438 OFFCURVE",
"160 330 CURVE",
"160 -162 LINE"
);
}
);
width = 305;
},
{
anchors = (
{
name = bottom;
position = "{33, 223}";
},
{
name = bottomleft;
position = "{42, 0}";
},
{
name = center;
position = "{31, 263}";
},
{
name = top;
position = "{175, 556}";
},
{
name = topleft;
position = "{42, 556}";
}
);
layerId = "F5FC6CB4-8346-45E7-8DEF-2B856C43F982";
paths = (
{
closed = 1;
nodes = (
"332 -162 LINE",
"332 289 LINE",
"332 454 OFFCURVE",
"274 556 OFFCURVE",
"18 556 CURVE",
"18 366 LINE",
"98 366 OFFCURVE",
"122 341 OFFCURVE",
"122 289 CURVE",
"122 -162 LINE"
);
}
);
width = 349;
},
{
anchors = (
{
name = bottom;
position = "{50, 227}";
},
{
name = bottomleft;
position = "{58, 0}";
},
{
name = center;
position = "{51, 264}";
},
{
name = top;
position = "{191, 556}";
},
{
name = topleft;
position = "{58, 556}";
}
);
associatedMasterId = "8609C873-3DB2-4A65-A2BD-5F22606290B7";
layerId = "C9F1DAA6-86BE-431E-8D69-4500759A81BE";
name = "{200}";
paths = (
{
closed = 1;
nodes = (
"342 -162 LINE",
"342 206 LINE",
"342 444 OFFCURVE",
"279 525 OFFCURVE",
"75 585 CURVE",
"20 395 LINE",
"108 373 OFFCURVE",
"142 339 OFFCURVE",
"142 206 CURVE",
"142 -162 LINE"
);
}
);
width = 363;
}
);
unicode = 05DF;
},
{
glyphname = "nun-hb";
lastChange = "2019-10-21 19:50:05 +0000";
layers = (
{
anchors = (
{
name = bottom;
position = "{177, 0}";
},
{
name = bottomleft;
position = "{20, 0}";
},
{
name = center;
position = "{150, 278}";
},
{
name = top;
position = "{180, 556}";
},
{
name = topleft;
position = "{20, 556}";
}
);
layerId = "3BB9E4C4-DEF2-48EE-A047-AEFABDBAAE6E";
paths = (
{
closed = 1;
nodes = (
"283 0 LINE",
"283 256 LINE",
"283 424 OFFCURVE",
"224 537 OFFCURVE",
"102 561 CURVE",
"101 556 LINE",
"224 530 OFFCURVE",
"278 417 OFFCURVE",
"278 256 CURVE",
"278 5 LINE",
"82 5 LINE",
"82 0 LINE"
);
}
);
width = 379;
},
{
anchors = (
{
name = bottom;
position = "{185, 0}";
},
{
name = bottomleft;
position = "{25, 0}";
},
{
name = center;
position = "{113, 273}";
},
{
name = top;
position = "{185, 556}";
},
{
name = topleft;
position = "{25, 556}";
}
);
layerId = "8609C873-3DB2-4A65-A2BD-5F22606290B7";
paths = (
{
closed = 1;
nodes = (
"300 0 LINE",
"300 251 LINE",
"300 442 OFFCURVE",
"254 535 OFFCURVE",
"86 562 CURVE",
"72 485 LINE",
"199 469 OFFCURVE",
"225 406 OFFCURVE",
"225 251 CURVE",
"225 75 LINE",
"50 75 LINE",
"50 0 LINE"
);
}
);
width = 365;
},
{
anchors = (
{
name = bottom;
position = "{180, 0}";
},
{
name = bottomleft;
position = "{20, 0}";
},
{
name = center;
position = "{56, 278}";
},
{
name = top;
position = "{180, 556}";
},
{
name = topleft;
position = "{20, 556}";
}
);
layerId = "F5FC6CB4-8346-45E7-8DEF-2B856C43F982";
paths = (
{
closed = 1;
nodes = (
"361 0 LINE",
"361 231 LINE",
"361 431 OFFCURVE",
"271 556 OFFCURVE",
"29 556 CURVE",
"29 366 LINE",
"105 366 OFFCURVE",
"151 331 OFFCURVE",
"151 253 CURVE",
"151 190 LINE",
"26 190 LINE",
"26 0 LINE"
);
}
);
width = 380;
},
{
anchors = (
{
name = bottom;
position = "{180, 0}";
},
{
name = bottomleft;
position = "{20, 0}";
},
{
name = center;
position = "{60, 278}";
},
{
name = top;
position = "{180, 556}";
},
{
name = topleft;
position = "{20, 556}";
}
);
associatedMasterId = "8609C873-3DB2-4A65-A2BD-5F22606290B7";
layerId = "217C5AD7-33BE-4A82-B99F-8EAABF3F6D58";
name = "{200}";
paths = (
{
closed = 1;
nodes = (
"352 0 LINE",
"352 253 LINE",
"352 432 OFFCURVE",
"280 526 OFFCURVE",
"46 567 CURVE",
"17 391 LINE",
"116 380 OFFCURVE",
"152 337 OFFCURVE",
"152 253 CURVE",
"152 181 LINE",
"24 181 LINE",
"24 0 LINE"
);
}
);
width = 379;
}
);
unicode = 05E0;
},
{
glyphname = "samekh-hb";
lastChange = "2019-11-26 10:54:32 +0000";
layers = (
{
anchors = (
{
name = bottom;
position = "{351, 0}";
},
{
name = bottomleft;
position = "{12, 0}";
},
{
name = center;
position = "{341, 298}";
},
{
name = top;
position = "{321, 556}";
},
{
name = topleft;
position = "{12, 556}";
}
);
layerId = "3BB9E4C4-DEF2-48EE-A047-AEFABDBAAE6E";
paths = (
{
closed = 1;
nodes = (
"494 -3 OFFCURVE",
"589 145 OFFCURVE",
"589 336 CURVE",
"589 464 OFFCURVE",
"488 561 OFFCURVE",
"360 561 CURVE",
"72 561 LINE",
"72 556 LINE",
"360 556 LINE",
"484 556 OFFCURVE",
"584 460 OFFCURVE",
"584 336 CURVE",
"584 150 OFFCURVE",
"492 2 OFFCURVE",
"336 2 CURVE",
"190 2 OFFCURVE",
"97 169 OFFCURVE",
"97 322 CURVE",
"97 391 OFFCURVE",
"127 498 OFFCURVE",
"163 558 CURVE",
"158 558 LINE",
"122 496 OFFCURVE",
"92 388 OFFCURVE",
"92 322 CURVE",
"92 169 OFFCURVE",
"185 -3 OFFCURVE",
"336 -3 CURVE"
);
}
);
width = 663;
},
{
anchors = (
{
name = bottom;
position = "{329, 0}";
},
{
name = bottomleft;
position = "{20, 0}";
},
{
name = center;
position = "{339, 282}";
},
{
name = top;
position = "{329, 556}";
},
{
name = topleft;
position = "{20, 556}";
}
);
layerId = "8609C873-3DB2-4A65-A2BD-5F22606290B7";
paths = (
{
closed = 1;
nodes = (
"497 -11 OFFCURVE",
"607 109 OFFCURVE",
"607 279 CURVE",
"607 424 OFFCURVE",
"539 556 OFFCURVE",
"333 556 CURVE",
"60 556 LINE",
"60 481 LINE",
"333 481 LINE",
"494 481 OFFCURVE",
"532 386 OFFCURVE",
"532 279 CURVE",
"532 154 OFFCURVE",
"458 64 OFFCURVE",
"333 64 CURVE",
"218 64 OFFCURVE",
"155 176 OFFCURVE",
"155 286 CURVE",
"155 368 OFFCURVE",
"165 418 OFFCURVE",
"218 500 CURVE",
"143 500 LINE",
"98 424 OFFCURVE",
"80 365 OFFCURVE",
"80 286 CURVE",
"80 132 OFFCURVE",
"174 -11 OFFCURVE",
"333 -11 CURVE"
);
}
);
width = 657;
},
{
anchors = (
{
name = bottom;
position = "{329, 0}";
},
{
name = bottomleft;
position = "{20, 0}";
},
{
name = center;
position = "{358, 278}";
},
{
name = top;
position = "{329, 556}";
},
{
name = topleft;
position = "{20, 556}";
}
);
layerId = "F5FC6CB4-8346-45E7-8DEF-2B856C43F982";
paths = (
{
closed = 1;
nodes = (
"538 -3 OFFCURVE",
"669 117 OFFCURVE",
"669 271 CURVE SMOOTH",
"669 442 OFFCURVE",
"549 556 OFFCURVE",
"332 556 CURVE SMOOTH",
"17 556 LINE",
"17 366 LINE",
"332 366 LINE SMOOTH",
"426 366 OFFCURVE",
"459 330 OFFCURVE",
"459 282 CURVE SMOOTH",
"459 225 OFFCURVE",
"425 187 OFFCURVE",
"360 187 CURVE SMOOTH",
"303 187 OFFCURVE",
"256 219 OFFCURVE",
"256 282 CURVE SMOOTH",
"256 330 OFFCURVE",
"286 367 OFFCURVE",
"330 417 CURVE",
"103 417 LINE",
"65 366 OFFCURVE",
"46 331 OFFCURVE",
"46 271 CURVE SMOOTH",
"46 125 OFFCURVE",
"170 -3 OFFCURVE",
"353 -3 CURVE SMOOTH"
);
}
);
width = 677;
}
);
unicode = 05E1;
},
{
glyphname = "ayin-hb";
lastChange = "2019-10-21 20:07:09 +0000";
layers = (
{
anchors = (
{
name = bottom;
position = "{294, 0}";
},
{
name = bottomleft;
position = "{15, 0}";
},
{
name = center;
position = "{274, 278}";
},
{
name = top;
position = "{274, 556}";
},
{
name = topleft;
position = "{15, 556}";
}
);
layerId = "3BB9E4C4-DEF2-48EE-A047-AEFABDBAAE6E";
paths = (
{
closed = 1;
nodes = (
"201 -6 OFFCURVE",
"335 67 OFFCURVE",
"404 174 CURVE SMOOTH",
"469 275 OFFCURVE",
"478 394 OFFCURVE",
"477 558 CURVE",
"472 558 LINE",
"473 397 OFFCURVE",
"466 276 OFFCURVE",
"400 176 CURVE SMOOTH",
"333 75 OFFCURVE",
"200 -2 OFFCURVE",
"71 -39 CURVE",
"72 -44 LINE"
);
},
{
closed = 1;
nodes = (
"237 27 LINE",
"159 326 OFFCURVE",
"125 438 OFFCURVE",
"78 559 CURVE",
"73 557 LINE",
"119 440 OFFCURVE",
"153 327 OFFCURVE",
"232 26 CURVE"
);
}
);
width = 564;
},
{
anchors = (
{
name = bottom;
position = "{306, 0}";
},
{
name = bottomleft;
position = "{17, 0}";
},
{
name = center;
position = "{276, 278}";
},
{
name = top;
position = "{276, 556}";
},
{
name = topleft;
position = "{17, 556}";
}
);
layerId = "8609C873-3DB2-4A65-A2BD-5F22606290B7";
paths = (
{
closed = 1;
nodes = (
"247 -21 OFFCURVE",
"358 41 OFFCURVE",
"423 138 CURVE SMOOTH",
"487 234 OFFCURVE",
"507 364 OFFCURVE",
"504 556 CURVE",
"429 555 LINE",
"431 379 OFFCURVE",
"420 263 OFFCURVE",
"363 179 CURVE SMOOTH",
"308 97 OFFCURVE",
"209 46 OFFCURVE",
"47 -2 CURVE",
"68 -74 LINE"
);
},
{
closed = 1;
nodes = (
"280 68 LINE",
"224 264 OFFCURVE",
"187 392 OFFCURVE",
"113 568 CURVE",
"43 540 LINE",
"123 358 OFFCURVE",
"159 246 OFFCURVE",
"216 49 CURVE"
);
}
);
width = 564;
},
{
anchors = (
{
name = bottom;
position = "{329, 0}";
},
{
name = bottomleft;
position = "{54, 0}";
},
{
name = center;
position = "{313, 278}";
},
{
name = top;
position = "{313, 556}";
},
{
name = topleft;
position = "{54, 556}";
}
);
layerId = "F5FC6CB4-8346-45E7-8DEF-2B856C43F982";
paths = (
{
closed = 1;
nodes = (
"287 -35 OFFCURVE",
"437 37 OFFCURVE",
"508 149 CURVE SMOOTH",
"584 268 OFFCURVE",
"577 350 OFFCURVE",
"576 558 CURVE",
"366 556 LINE",
"368 351 OFFCURVE",
"369 321 OFFCURVE",
"329 257 CURVE SMOOTH",
"300 210 OFFCURVE",
"226 155 OFFCURVE",
"16 111 CURVE",
"16 -97 LINE"
);
},
{
closed = 1;
nodes = (
"346 66 LINE",
"311 238 OFFCURVE",
"263 406 OFFCURVE",
"204 556 CURVE",
"-6 556 LINE",
"79 372 OFFCURVE",
"133 209 OFFCURVE",
"172 -6 CURVE"
);
}
);
width = 585;
},
{
anchors = (
{
name = bottom;
position = "{317, 0}";
},
{
name = bottomleft;
position = "{41, 0}";
},
{
name = center;
position = "{300, 278}";
},
{
name = top;
position = "{300, 556}";
},
{
name = topleft;
position = "{41, 556}";
}
);
associatedMasterId = "8609C873-3DB2-4A65-A2BD-5F22606290B7";
layerId = "FE6E74EB-FCFB-4A6D-BE9D-B9ED3B277019";
name = "{200}";
paths = (
{
closed = 1;
nodes = (
"274 -4 OFFCURVE",
"421 37 OFFCURVE",
"492 148 CURVE SMOOTH",
"567 265 OFFCURVE",
"562 351 OFFCURVE",
"561 558 CURVE",
"361 556 LINE",
"363 353 OFFCURVE",
"363 317 OFFCURVE",
"322 251 CURVE SMOOTH",
"291 202 OFFCURVE",
"215 177 OFFCURVE",
"8 103 CURVE",
"73 -77 LINE"
);
},
{
closed = 1;
nodes = (
"346 60 LINE",
"312 205 OFFCURVE",
"240 415 OFFCURVE",
"165 573 CURVE",
"-12 516 LINE",
"56 381 OFFCURVE",
"149 149 OFFCURVE",
"198 -1 CURVE"
);
}
);
width = 583;
}
);
unicode = 05E2;
},
{
glyphname = "finalpe-hb";
lastChange = "2019-10-27 17:54:17 +0000";
layers = (
{
anchors = (
{
name = bottom;
position = "{269, 0}";
},
{
name = bottomleft;
position = "{26, 0}";
},
{
name = center;
position = "{319, 278}";
},
{
name = top;
position = "{299, 556}";
},
{
name = topleft;
position = "{26, 556}";
}
);
layerId = "3BB9E4C4-DEF2-48EE-A047-AEFABDBAAE6E";
paths = (
{
closed = 1;
nodes = (
"470 -122 LINE",
"470 313 LINE",
"470 477 OFFCURVE",
"393 564 OFFCURVE",
"247 564 CURVE",
"145 564 OFFCURVE",
"72 484 OFFCURVE",
"72 381 CURVE",
"72 294 OFFCURVE",
"136 218 OFFCURVE",
"217 218 CURVE",
"217 223 LINE",
"142 223 OFFCURVE",
"77 296 OFFCURVE",
"77 381 CURVE",
"77 479 OFFCURVE",
"144 559 OFFCURVE",
"247 559 CURVE",
"396 559 OFFCURVE",
"465 467 OFFCURVE",
"465 313 CURVE",
"465 -122 LINE"
);
}
);
width = 566;
},
{
anchors = (
{
name = bottom;
position = "{293, 0}";
},
{
name = bottomleft;
position = "{20, 0}";
},
{
name = center;
position = "{353, 193}";
},
{
name = top;
position = "{293, 556}";
},
{
name = topleft;
position = "{20, 556}";
}
);
layerId = "8609C873-3DB2-4A65-A2BD-5F22606290B7";
paths = (
{
closed = 1;
nodes = (
"516 -162 LINE",
"516 275 LINE",
"516 460 OFFCURVE",
"429 564 OFFCURVE",
"261 564 CURVE",
"138 564 OFFCURVE",
"50 477 OFFCURVE",
"50 342 CURVE",
"50 226 OFFCURVE",
"134 155 OFFCURVE",
"262 155 CURVE",
"275 230 LINE",
"181 230 OFFCURVE",
"125 265 OFFCURVE",
"125 342 CURVE",
"125 433 OFFCURVE",
"176 489 OFFCURVE",
"261 489 CURVE",
"384 489 OFFCURVE",
"441 421 OFFCURVE",
"441 275 CURVE",
"441 -162 LINE"
);
}
);
width = 586;
},
{
anchors = (
{
name = bottom;
position = "{326, 0}";
},
{
name = bottomleft;
position = "{53, 0}";
},
{
name = center;
position = "{305, 302}";
},
{
name = top;
position = "{306, 556}";
},
{
name = topleft;
position = "{53, 556}";
}
);
layerId = "F5FC6CB4-8346-45E7-8DEF-2B856C43F982";
paths = (
{
closed = 1;
nodes = (
"595 -165 LINE",
"595 285 LINE",
"595 457 OFFCURVE",
"476 576 OFFCURVE",
"286 576 CURVE",
"114 576 OFFCURVE",
"12 471 OFFCURVE",
"12 301 CURVE SMOOTH",
"12 118 OFFCURVE",
"133 35 OFFCURVE",
"306 35 CURVE",
"306 215 LINE",
"263 215 OFFCURVE",
"222 249 OFFCURVE",
"222 306 CURVE SMOOTH",
"222 356 OFFCURVE",
"260 386 OFFCURVE",
"305 386 CURVE SMOOTH",
"358 386 OFFCURVE",
"385 346 OFFCURVE",
"385 285 CURVE",
"385 -165 LINE"
);
}
);
width = 613;
},
{
anchors = (
{
name = bottom;
position = "{324, 0}";
},
{
name = bottomleft;
position = "{51, 0}";
},
{
name = center;
position = "{300, 303}";
},
{
name = top;
position = "{305, 556}";
},
{
name = topleft;
position = "{51, 556}";
}
);
associatedMasterId = "8609C873-3DB2-4A65-A2BD-5F22606290B7";
layerId = "C725F6C6-7514-4BB5-8B7D-9BBAA83B782C";
name = "{200}";
paths = (
{
closed = 1;
nodes = (
"586 -165 LINE",
"586 284 LINE",
"586 457 OFFCURVE",
"470 575 OFFCURVE",
"283 575 CURVE",
"116 575 OFFCURVE",
"15 471 OFFCURVE",
"15 304 CURVE",
"15 126 OFFCURVE",
"133 46 OFFCURVE",
"287 35 CURVE",
"302 207 LINE",
"257 218 OFFCURVE",
"215 250 OFFCURVE",
"215 309 CURVE",
"215 362 OFFCURVE",
"254 394 OFFCURVE",
"300 394 CURVE",
"357 394 OFFCURVE",
"386 352 OFFCURVE",
"386 284 CURVE",
"386 -165 LINE"
);
}
);
width = 608;
}
);
unicode = 05E3;
},
{
glyphname = "pe-hb";
lastChange = "2019-11-26 10:54:32 +0000";
layers = (
{
anchors = (
{
name = bottom;
position = "{313, 0}";
},
{
name = bottomleft;
position = "{18, 0}";
},
{
name = center;
position = "{380, 278}";
},
{
name = top;
position = "{296, 556}";
},
{
name = topleft;
position = "{18, 556}";
}
);
layerId = "3BB9E4C4-DEF2-48EE-A047-AEFABDBAAE6E";
paths = (
{
closed = 1;
nodes = (
"444 -2 OFFCURVE",
"528 123 OFFCURVE",
"528 280 CURVE",
"528 452 OFFCURVE",
"443 560 OFFCURVE",
"285 560 CURVE",
"165 560 OFFCURVE",
"72 489 OFFCURVE",
"72 381 CURVE",
"72 292 OFFCURVE",
"163 247 OFFCURVE",
"252 247 CURVE",
"252 252 LINE",
"160 252 OFFCURVE",
"77 299 OFFCURVE",
"77 381 CURVE",
"77 490 OFFCURVE",
"170 555 OFFCURVE",
"285 555 CURVE",
"443 555 OFFCURVE",
"523 448 OFFCURVE",
"523 280 CURVE",
"523 125 OFFCURVE",
"438 3 OFFCURVE",
"300 3 CURVE",
"204 3 OFFCURVE",
"159 25 OFFCURVE",
"111 47 CURVE",
"109 43 LINE",
"176 11 OFFCURVE",
"227 -2 OFFCURVE",
"300 -2 CURVE"
);
}
);
width = 600;
},
{
anchors = (
{
name = bottom;
position = "{293, 0}";
},
{
name = bottomleft;
position = "{20, 0}";
},
{
name = center;
position = "{338, 273}";
},
{
name = top;
position = "{272, 556}";
},
{
name = topleft;
position = "{20, 556}";
}
);
layerId = "8609C873-3DB2-4A65-A2BD-5F22606290B7";
paths = (
{
closed = 1;
nodes = (
"435 -9 OFFCURVE",
"536 117 OFFCURVE",
"536 287 CURVE",
"536 439 OFFCURVE",
"429 563 OFFCURVE",
"271 563 CURVE",
"135 563 OFFCURVE",
"50 495 OFFCURVE",
"50 383 CURVE",
"50 279 OFFCURVE",
"125 221 OFFCURVE",
"229 221 CURVE",
"240 296 LINE",
"171 296 OFFCURVE",
"125 320 OFFCURVE",
"125 383 CURVE",
"125 451 OFFCURVE",
"174 488 OFFCURVE",
"271 488 CURVE",
"384 488 OFFCURVE",
"461 400 OFFCURVE",
"461 287 CURVE",
"461 166 OFFCURVE",
"399 66 OFFCURVE",
"282 66 CURVE",
"224 66 OFFCURVE",
"165 72 OFFCURVE",
"100 104 CURVE",
"76 33 LINE",
"143 0 OFFCURVE",
"218 -9 OFFCURVE",
"282 -9 CURVE"
);
}
);
width = 586;
},
{
anchors = (
{
name = bottom;
position = "{311, 0}";
},
{
name = bottomleft;
position = "{33, 0}";
},
{
name = center;
position = "{320, 279}";
},
{
name = top;
position = "{291, 556}";
},
{
name = topleft;
position = "{33, 556}";
}
);
layerId = "F5FC6CB4-8346-45E7-8DEF-2B856C43F982";
paths = (
{
closed = 1;
nodes = (
"469 -20 OFFCURVE",
"595 132 OFFCURVE",
"595 287 CURVE SMOOTH",
"595 466 OFFCURVE",
"466 581 OFFCURVE",
"295 581 CURVE SMOOTH",
"167 581 OFFCURVE",
"8 523 OFFCURVE",
"8 397 CURVE SMOOTH",
"8 253 OFFCURVE",
"133 204 OFFCURVE",
"247 204 CURVE",
"247 345 LINE",
"245 345 OFFCURVE",
"208 351 OFFCURVE",
"208 367 CURVE SMOOTH",
"208 384 OFFCURVE",
"247 391 OFFCURVE",
"283 391 CURVE SMOOTH",
"331 391 OFFCURVE",
"395 366 OFFCURVE",
"395 277 CURVE SMOOTH",
"395 207 OFFCURVE",
"340 170 OFFCURVE",
"266 170 CURVE SMOOTH",
"222 170 OFFCURVE",
"160 185 OFFCURVE",
"43 230 CURVE",
"43 38 LINE",
"122 0 OFFCURVE",
"196 -20 OFFCURVE",
"287 -20 CURVE SMOOTH"
);
}
);
width = 603;
},
{
anchors = (
{
name = bottom;
position = "{318, 0}";
},
{
name = bottomleft;
position = "{41, 0}";
},
{
name = center;
position = "{331, 279}";
},
{
name = top;
position = "{298, 556}";
},
{
name = topleft;
position = "{41, 556}";
}
);
associatedMasterId = "8609C873-3DB2-4A65-A2BD-5F22606290B7";
layerId = "AE628311-852C-4731-96C2-3D00C966A142";
name = "{200}";
paths = (
{
closed = 1;
nodes = (
"482 -19 OFFCURVE",
"606 131 OFFCURVE",
"606 287 CURVE",
"606 464 OFFCURVE",
"478 580 OFFCURVE",
"302 580 CURVE",
"155 580 OFFCURVE",
"18 521 OFFCURVE",
"18 396 CURVE",
"18 255 OFFCURVE",
"122 211 OFFCURVE",
"246 199 CURVE",
"267 334 LINE",
"222 337 OFFCURVE",
"192 349 OFFCURVE",
"192 368 CURVE",
"192 389 OFFCURVE",
"257 398 OFFCURVE",
"285 398 CURVE SMOOTH",
"341 398 OFFCURVE",
"406 369 OFFCURVE",
"406 278 CURVE",
"406 204 OFFCURVE",
"342 162 OFFCURVE",
"295 162 CURVE",
"231 162 OFFCURVE",
"152 169 OFFCURVE",
"55 205 CURVE",
"18 26 LINE",
"116 -8 OFFCURVE",
"206 -19 OFFCURVE",
"295 -19 CURVE"
);
}
);
width = 619;
}
);
unicode = 05E4;
},
{
glyphname = "finaltsadi-hb";
lastChange = "2019-10-21 20:09:11 +0000";
layers = (
{
anchors = (
{
name = bottom;
position = "{209, 0}";
},
{
name = bottomleft;
position = "{-14, 0}";
},
{
name = center;
position = "{209, 278}";
},
{
name = top;
position = "{209, 556}";
},
{
name = topleft;
position = "{-14, 556}";
}
);
layerId = "3BB9E4C4-DEF2-48EE-A047-AEFABDBAAE6E";
paths = (
{
closed = 1;
nodes = (
"178 -122 LINE",
"178 154 LINE",
"178 307 OFFCURVE",
"145 443 OFFCURVE",
"77 562 CURVE",
"72 560 LINE",
"140 440 OFFCURVE",
"173 307 OFFCURVE",
"173 154 CURVE",
"173 -122 LINE"
);
},
{
closed = 1;
nodes = (
"292 240 OFFCURVE",
"374 390 OFFCURVE",
"374 556 CURVE",
"369 556 LINE",
"369 394 OFFCURVE",
"289 241 OFFCURVE",
"173 205 CURVE",
"175 200 LINE"
);
}
);
width = 451;
},
{
anchors = (
{
name = bottom;
position = "{243, 0}";
},
{
name = bottomleft;
position = "{20, 0}";
},
{
name = center;
position = "{243, 278}";
},
{
name = top;
position = "{243, 556}";
},
{
name = topleft;
position = "{20, 556}";
}
);
layerId = "8609C873-3DB2-4A65-A2BD-5F22606290B7";
paths = (
{
closed = 1;
nodes = (
"239 -162 LINE",
"239 149 LINE",
"239 319 OFFCURVE",
"206 403 OFFCURVE",
"110 570 CURVE",
"45 534 LINE",
"131 385 OFFCURVE",
"164 306 OFFCURVE",
"164 149 CURVE",
"164 -162 LINE"
);
},
{
closed = 1;
nodes = (
"385 209 OFFCURVE",
"435 363 OFFCURVE",
"435 556 CURVE",
"360 556 LINE",
"360 402 OFFCURVE",
"333 276 OFFCURVE",
"202 233 CURVE",
"225 162 LINE"
);
}
);
width = 485;
},
{
anchors = (
{
name = bottom;
position = "{306, 0}";
},
{
name = bottomleft;
position = "{83, 0}";
},
{
name = center;
position = "{306, 278}";
},
{
name = top;
position = "{306, 556}";
},
{
name = topleft;
position = "{83, 556}";
}
);
layerId = "F5FC6CB4-8346-45E7-8DEF-2B856C43F982";
paths = (
{
closed = 1;
nodes = (
"346 -152 LINE",
"346 152 LINE",
"346 310 OFFCURVE",
"278 431 OFFCURVE",
"210 556 CURVE",
"0 556 LINE",
"87 373 OFFCURVE",
"136 272 OFFCURVE",
"136 152 CURVE",
"136 -152 LINE"
);
},
{
closed = 1;
nodes = (
"471 162 OFFCURVE",
"562 328 OFFCURVE",
"562 556 CURVE",
"352 556 LINE",
"352 418 OFFCURVE",
"357 302 OFFCURVE",
"174 230 CURVE",
"222 80 LINE"
);
}
);
width = 570;
},
{
anchors = (
{
name = bottom;
position = "{274, 0}";
},
{
name = bottomleft;
position = "{51, 0}";
},
{
name = center;
position = "{274, 278}";
},
{
name = top;
position = "{274, 556}";
},
{
name = topleft;
position = "{51, 556}";
}
);
associatedMasterId = "8609C873-3DB2-4A65-A2BD-5F22606290B7";
layerId = "A4F84877-0D92-45B7-A6FF-825E7FAEAE9A";
name = "{200}";
paths = (
{
closed = 1;
nodes = (
"311 -153 LINE",
"311 152 LINE",
"311 311 OFFCURVE",
"246 447 OFFCURVE",
"177 572 CURVE",
"3 518 LINE",
"75 373 OFFCURVE",
"111 275 OFFCURVE",
"111 152 CURVE",
"111 -153 LINE"
);
},
{
closed = 1;
nodes = (
"391 186 OFFCURVE",
"497 322 OFFCURVE",
"524 525 CURVE",
"328 563 LINE",
"305 416 OFFCURVE",
"272 322 OFFCURVE",
"149 230 CURVE",
"254 96 LINE"
);
}
);
width = 535;
}
);
unicode = 05E5;
},
{
glyphname = "tsadi-hb";
lastChange = "2019-11-26 10:54:32 +0000";
layers = (
{
anchors = (
{
name = bottom;
position = "{280, 0}";
},
{
name = bottomleft;
position = "{40, 0}";
},
{
name = center;
position = "{127, 278}";
},
{
name = top;
position = "{300, 556}";
},
{
name = topleft;
position = "{40, 556}";
}
);
layerId = "3BB9E4C4-DEF2-48EE-A047-AEFABDBAAE6E";
paths = (
{
closed = 1;
nodes = (
"468 0 LINE",
"468 3 LINE",
"468 61 OFFCURVE",
"381 153 OFFCURVE",
"303 237 CURVE SMOOTH",
"218 328 OFFCURVE",
"138 415 OFFCURVE",
"72 561 CURVE",
"68 559 LINE",
"134 413 OFFCURVE",
"214 325 OFFCURVE",
"299 234 CURVE SMOOTH",
"375 152 OFFCURVE",
"461 61 OFFCURVE",
"463 5 CURVE",
"100 5 LINE",
"100 0 LINE"
);
},
{
closed = 1;
nodes = (
"393 285 OFFCURVE",
"469 441 OFFCURVE",
"485 560 CURVE",
"480 561 LINE",
"465 447 OFFCURVE",
"391 291 OFFCURVE",
"301 237 CURVE",
"303 233 LINE"
);
}
);
width = 553;
},
{
anchors = (
{
name = bottom;
position = "{280, 0}";
},
{
name = bottomleft;
position = "{20, 0}";
},
{
name = center;
position = "{162, 193}";
},
{
name = top;
position = "{280, 556}";
},
{
name = topleft;
position = "{20, 556}";
}
);
layerId = "8609C873-3DB2-4A65-A2BD-5F22606290B7";
paths = (
{
closed = 1;
nodes = (
"486 0 LINE",
"486 38 LINE",
"486 123 OFFCURVE",
"399 198 OFFCURVE",
"317 288 CURVE SMOOTH",
"201 416 OFFCURVE",
"164 470 OFFCURVE",
"94 571 CURVE",
"31 530 LINE",
"118 410 OFFCURVE",
"155 358 OFFCURVE",
"265 234 CURVE SMOOTH",
"314 178 OFFCURVE",
"385 125 OFFCURVE",
"403 75 CURVE",
"88 75 LINE",
"88 0 LINE"
);
},
{
closed = 1;
nodes = (
"440 298 OFFCURVE",
"486 389 OFFCURVE",
"505 551 CURVE",
"431 560 LINE",
"415 425 OFFCURVE",
"382 352 OFFCURVE",
"301 291 CURVE",
"330 234 LINE"
);
}
);
width = 560;
},
{
anchors = (
{
name = bottom;
position = "{319, 0}";
},
{
name = bottomleft;
position = "{15, 0}";
},
{
name = center;
position = "{27, 273}";
},
{
name = top;
position = "{275, 556}";
},
{
name = topleft;
position = "{15, 556}";
}
);
layerId = "F5FC6CB4-8346-45E7-8DEF-2B856C43F982";
paths = (
{
closed = 1;
nodes = (
"547 0 LINE",
"547 76 LINE",
"547 218 OFFCURVE",
"418 268 OFFCURVE",
"303 371 CURVE SMOOTH",
"266 404 OFFCURVE",
"237 456 OFFCURVE",
"218 556 CURVE",
"8 556 LINE",
"58 371 OFFCURVE",
"80 324 OFFCURVE",
"131 276 CURVE SMOOTH",
"172 237 OFFCURVE",
"203 210 OFFCURVE",
"278 190 CURVE",
"54 190 LINE",
"54 0 LINE"
);
},
{
closed = 1;
nodes = (
"528 304 OFFCURVE",
"578 404 OFFCURVE",
"578 556 CURVE",
"371 556 LINE",
"371 446 OFFCURVE",
"352 389 OFFCURVE",
"272 292 CURVE",
"408 216 LINE"
);
}
);
width = 586;
},
{
anchors = (
{
name = bottom;
position = "{283, 0}";
},
{
name = bottomleft;
position = "{-18, 0}";
},
{
name = center;
position = "{4, 267}";
},
{
name = top;
position = "{242, 556}";
},
{
name = topleft;
position = "{-18, 556}";
}
);
associatedMasterId = "8609C873-3DB2-4A65-A2BD-5F22606290B7";
layerId = "854427A1-4F2B-40B8-BEEE-7F776619FAB8";
name = "{200}";
paths = (
{
closed = 1;
nodes = (
"509 0 LINE",
"509 131 LINE",
"509 211 OFFCURVE",
"370 258 OFFCURVE",
"281 381 CURVE SMOOTH",
"252 421 OFFCURVE",
"228 463 OFFCURVE",
"175 567 CURVE",
"10 501 LINE",
"63 376 OFFCURVE",
"76 343 OFFCURVE",
"118 289 CURVE SMOOTH",
"154 243 OFFCURVE",
"205 210 OFFCURVE",
"254 181 CURVE",
"24 181 LINE",
"24 0 LINE"
);
},
{
closed = 1;
nodes = (
"470 295 OFFCURVE",
"519 394 OFFCURVE",
"543 514 CURVE",
"380 562 LINE",
"354 430 OFFCURVE",
"327 368 OFFCURVE",
"234 289 CURVE",
"362 214 LINE"
);
}
);
width = 554;
}
);
unicode = 05E6;
},
{
glyphname = "qof-hb";
lastChange = "2019-10-27 17:40:54 +0000";
layers = (
{
anchors = (
{
name = bottom;
position = "{326, 0}";
},
{
name = bottomleft;
position = "{-8, 0}";
},
{
name = center;
position = "{311, 298}";
},
{
name = top;
position = "{276, 556}";
},
{
name = topleft;
position = "{-8, 556}";
}
);
layerId = "3BB9E4C4-DEF2-48EE-A047-AEFABDBAAE6E";
paths = (
{
closed = 1;
nodes = (
"409 46 OFFCURVE",
"515 179 OFFCURVE",
"515 305 CURVE",
"515 455 OFFCURVE",
"436 555 OFFCURVE",
"269 555 CURVE",
"96 555 LINE",
"96 550 LINE",
"269 550 LINE",
"430 550 OFFCURVE",
"510 456 OFFCURVE",
"510 305 CURVE",
"510 182 OFFCURVE",
"405 50 OFFCURVE",
"293 -2 CURVE",
"295 -7 LINE"
);
},
{
closed = 1;
nodes = (
"112 -122 LINE",
"112 348 LINE",
"107 348 LINE",
"107 -122 LINE"
);
}
);
width = 575;
},
{
anchors = (
{
name = bottom;
position = "{374, 0}";
},
{
name = bottomleft;
position = "{20, 0}";
},
{
name = center;
position = "{302, 283}";
},
{
name = top;
position = "{304, 556}";
},
{
name = topleft;
position = "{20, 556}";
}
);
layerId = "8609C873-3DB2-4A65-A2BD-5F22606290B7";
paths = (
{
closed = 1;
nodes = (
"455 54 OFFCURVE",
"558 170 OFFCURVE",
"558 349 CURVE",
"558 481 OFFCURVE",
"465 556 OFFCURVE",
"334 556 CURVE",
"70 556 LINE",
"70 480 LINE",
"334 480 LINE",
"419 480 OFFCURVE",
"483 442 OFFCURVE",
"483 349 CURVE",
"483 207 OFFCURVE",
"406 117 OFFCURVE",
"261 67 CURVE",
"286 -4 LINE"
);
},
{
closed = 1;
nodes = (
"156 -162 LINE",
"156 348 LINE",
"81 348 LINE",
"81 -162 LINE"
);
}
);
width = 608;
},
{
anchors = (
{
name = bottom;
position = "{412, 0}";
},
{
name = bottomleft;
position = "{-3, 0}";
},
{
name = center;
position = "{308, 273}";
},
{
name = top;
position = "{281, 556}";
},
{
name = topleft;
position = "{-3, 556}";
}
);
layerId = "F5FC6CB4-8346-45E7-8DEF-2B856C43F982";
paths = (
{
closed = 1;
nodes = (
"493 0 OFFCURVE",
"608 112 OFFCURVE",
"608 272 CURVE SMOOTH",
"608 448 OFFCURVE",
"489 554 OFFCURVE",
"311 554 CURVE",
"18 554 LINE",
"18 364 LINE",
"311 364 LINE",
"363 364 OFFCURVE",
"398 338 OFFCURVE",
"398 279 CURVE SMOOTH",
"398 229 OFFCURVE",
"363 188 OFFCURVE",
"283 188 CURVE",
"283 0 LINE"
);
},
{
closed = 1;
nodes = (
"228 -192 LINE",
"228 299 LINE",
"18 299 LINE",
"18 -192 LINE"
);
}
);
width = 616;
},
{
anchors = (
{
name = bottom;
position = "{409, 0}";
},
{
name = bottomleft;
position = "{-1, 0}";
},
{
name = center;
position = "{311, 274}";
},
{
name = top;
position = "{283, 556}";
},
{
name = topleft;
position = "{-1, 556}";
}
);
associatedMasterId = "8609C873-3DB2-4A65-A2BD-5F22606290B7";
layerId = "2A16097D-3295-4A24-A50D-9C264A6608B8";
name = "{200}";
paths = (
{
closed = 1;
nodes = (
"490 28 OFFCURVE",
"604 138 OFFCURVE",
"604 278 CURVE",
"604 450 OFFCURVE",
"487 554 OFFCURVE",
"313 554 CURVE",
"22 554 LINE",
"22 373 LINE",
"313 373 LINE",
"367 373 OFFCURVE",
"404 346 OFFCURVE",
"404 278 CURVE",
"404 217 OFFCURVE",
"353 161 OFFCURVE",
"252 131 CURVE",
"303 -24 LINE"
);
},
{
closed = 1;
nodes = (
"222 -190 LINE",
"222 303 LINE",
"22 303 LINE",
"22 -190 LINE"
);
}
);
width = 615;
}
);
unicode = 05E7;
},
{
glyphname = "resh-hb";
lastChange = "2019-11-26 10:54:32 +0000";
layers = (
{
anchors = (
{
name = bottom;
position = "{454, 0}";
},
{
name = bottomleft;
position = "{35, 0}";
},
{
name = center;
position = "{245, 278}";
},
{
name = top;
position = "{282, 556}";
},
{
name = topleft;
position = "{35, 556}";
}
);
layerId = "3BB9E4C4-DEF2-48EE-A047-AEFABDBAAE6E";
paths = (
{
closed = 1;
nodes = (
"458 0 LINE",
"458 370 LINE",
"458 479 OFFCURVE",
"388 556 OFFCURVE",
"272 556 CURVE",
"60 556 LINE",
"60 551 LINE",
"272 551 LINE",
"379 551 OFFCURVE",
"453 483 OFFCURVE",
"453 370 CURVE",
"453 0 LINE"
);
}
);
width = 554;
},
{
anchors = (
{
name = bottom;
position = "{420, 0}";
},
{
name = bottomleft;
position = "{15, 0}";
},
{
name = center;
position = "{203, 273}";
},
{
name = top;
position = "{262, 556}";
},
{
name = topleft;
position = "{15, 556}";
}
);
layerId = "8609C873-3DB2-4A65-A2BD-5F22606290B7";
paths = (
{
closed = 1;
nodes = (
"458 0 LINE",
"458 340 LINE",
"458 470 OFFCURVE",
"366 556 OFFCURVE",
"233 556 CURVE",
"40 556 LINE",
"40 480 LINE",
"233 480 LINE",
"327 480 OFFCURVE",
"383 426 OFFCURVE",
"383 340 CURVE",
"383 0 LINE"
);
}
);
width = 528;
},
{
anchors = (
{
name = bottom;
position = "{380, 0}";
},
{
name = bottomleft;
position = "{3, 0}";
},
{
name = center;
position = "{146, 220}";
},
{
name = top;
position = "{243, 556}";
},
{
name = topleft;
position = "{3, 556}";
}
);
layerId = "F5FC6CB4-8346-45E7-8DEF-2B856C43F982";
paths = (
{
closed = 1;
nodes = (
"485 0 LINE",
"485 257 LINE",
"485 447 OFFCURVE",
"380 556 OFFCURVE",
"183 556 CURVE",
"8 556 LINE",
"8 346 LINE",
"162 346 LINE",
"242 346 OFFCURVE",
"275 309 OFFCURVE",
"275 236 CURVE",
"275 0 LINE"
);
}
);
width = 503;
}
);
rightKerningGroup = daletL;
unicode = 05E8;
},
{
glyphname = "shin-hb";
lastChange = "2019-11-26 10:54:32 +0000";
layers = (
{
anchors = (
{
name = bottom;
position = "{372, 0}";
},
{
name = bottomleft;
position = "{25, 0}";
},
{
name = center;
position = "{438, 278}";
},
{
name = top;
position = "{362, 556}";
},
{
name = topleft;
position = "{25, 556}";
},
{
name = topright;
position = "{699, 556}";
}
);
layerId = "3BB9E4C4-DEF2-48EE-A047-AEFABDBAAE6E";
paths = (
{
closed = 1;
nodes = (
"534 -2 OFFCURVE",
"634 196 OFFCURVE",
"650 556 CURVE",
"645 556 LINE",
"629 203 OFFCURVE",
"533 3 OFFCURVE",
"367 3 CURVE",
"192 3 OFFCURVE",
"82 220 OFFCURVE",
"82 556 CURVE",
"77 556 LINE",
"77 221 OFFCURVE",
"188 -2 OFFCURVE",
"367 -2 CURVE"
);
},
{
closed = 1;
nodes = (
"203 205 OFFCURVE",
"266 257 OFFCURVE",
"307 318 CURVE",
"354 387 OFFCURVE",
"379 470 OFFCURVE",
"379 556 CURVE",
"374 556 LINE",
"374 472 OFFCURVE",
"349 389 OFFCURVE",
"303 321 CURVE",
"262 260 OFFCURVE",
"202 210 OFFCURVE",
"137 193 CURVE",
"139 188 LINE"
);
}
);
width = 727;
},
{
anchors = (
{
name = bottom;
position = "{357, 0}";
},
{
name = bottomleft;
position = "{20, 0}";
},
{
name = center;
position = "{452, 273}";
},
{
name = top;
position = "{357, 556}";
},
{
name = topleft;
position = "{20, 556}";
},
{
name = topright;
position = "{694, 556}";
}
);
layerId = "8609C873-3DB2-4A65-A2BD-5F22606290B7";
paths = (
{
closed = 1;
nodes = (
"623 -6 OFFCURVE",
"646 263 OFFCURVE",
"659 556 CURVE",
"584 556 LINE",
"572 290 OFFCURVE",
"558 64 OFFCURVE",
"342 64 CURVE",
"146 64 OFFCURVE",
"129 347 OFFCURVE",
"129 556 CURVE",
"55 556 LINE",
"54 310 OFFCURVE",
"90 -11 OFFCURVE",
"342 -11 CURVE"
);
},
{
closed = 1;
nodes = (
"263 181 OFFCURVE",
"333 245 OFFCURVE",
"364 309 CURVE SMOOTH",
"396 373 OFFCURVE",
"405 454 OFFCURVE",
"405 556 CURVE",
"330 556 LINE",
"330 467 OFFCURVE",
"324 399 OFFCURVE",
"300 347 CURVE SMOOTH",
"276 299 OFFCURVE",
"225 235 OFFCURVE",
"149 226 CURVE",
"170 170 LINE"
);
}
);
width = 714;
},
{
anchors = (
{
name = bottom;
position = "{390, 0}";
},
{
name = bottomleft;
position = "{25, 0}";
},
{
name = center;
position = "{441, 278}";
},
{
name = top;
position = "{380, 556}";
},
{
name = topleft;
position = "{25, 556}";
},
{
name = topright;
position = "{735, 556}";
}
);
layerId = "F5FC6CB4-8346-45E7-8DEF-2B856C43F982";
paths = (
{
closed = 1;
nodes = (
"648 -11 OFFCURVE",
"759 168 OFFCURVE",
"759 556 CURVE",
"549 556 LINE",
"549 302 OFFCURVE",
"519 179 OFFCURVE",
"364 179 CURVE",
"236 179 OFFCURVE",
"222 367 OFFCURVE",
"222 556 CURVE",
"12 556 LINE",
"12 241 OFFCURVE",
"80 -11 OFFCURVE",
"384 -11 CURVE"
);
},
{
closed = 1;
nodes = (
"320 200 OFFCURVE",
"406 242 OFFCURVE",
"446 309 CURVE SMOOTH",
"478 362 OFFCURVE",
"489 449 OFFCURVE",
"489 556 CURVE",
"284 556 LINE",
"284 443 OFFCURVE",
"278 401 OFFCURVE",
"267 384 CURVE SMOOTH",
"256 367 OFFCURVE",
"235 351 OFFCURVE",
"195 351 CURVE",
"194 200 LINE"
);
}
);
width = 771;
}
);
unicode = 05E9;
},
{
glyphname = "tav-hb";
lastChange = "2019-10-06 22:55:49 +0000";
layers = (
{
anchors = (
{
name = bottom;
position = "{362, 0}";
},
{
name = bottomleft;
position = "{26, 0}";
},
{
name = center;
position = "{367, 278}";
},
{
name = top;
position = "{331, 556}";
},
{
name = topleft;
position = "{26, 556}";
}
);
layerId = "3BB9E4C4-DEF2-48EE-A047-AEFABDBAAE6E";
paths = (
{
closed = 1;
nodes = (
"562 0 LINE",
"562 298 LINE",
"562 452 OFFCURVE",
"508 561 OFFCURVE",
"361 561 CURVE",
"91 561 LINE",
"91 556 LINE",
"361 556 LINE",
"502 556 OFFCURVE",
"557 452 OFFCURVE",
"557 298 CURVE",
"557 0 LINE"
);
},
{
closed = 1;
nodes = (
"179 3 LINE",
"165 94 OFFCURVE",
"160 194 OFFCURVE",
"164 294 CURVE",
"169 387 OFFCURVE",
"181 478 OFFCURVE",
"199 558 CURVE",
"194 560 LINE",
"176 479 OFFCURVE",
"164 387 OFFCURVE",
"159 295 CURVE",
"155 195 OFFCURVE",
"160 96 OFFCURVE",
"173 8 CURVE",
"71 8 LINE",
"71 3 LINE"
);
}
);
width = 658;
},
{
anchors = (
{
name = bottom;
position = "{356, 0}";
},
{
name = bottomleft;
position = "{20, 0}";
},
{
name = center;
position = "{349, 273}";
},
{
name = top;
position = "{344, 556}";
},
{
name = topleft;
position = "{20, 556}";
}
);
layerId = "8609C873-3DB2-4A65-A2BD-5F22606290B7";
paths = (
{
closed = 1;
nodes = (
"580 0 LINE",
"580 293 LINE",
"580 460 OFFCURVE",
"516 556 OFFCURVE",
"345 556 CURVE",
"78 556 LINE",
"78 481 LINE",
"345 481 LINE",
"467 481 OFFCURVE",
"505 428 OFFCURVE",
"505 293 CURVE",
"505 0 LINE"
);
},
{
closed = 1;
nodes = (
"224 0 LINE",
"205 123 OFFCURVE",
"198 199 OFFCURVE",
"200 280 CURVE SMOOTH",
"203 345 OFFCURVE",
"212 410 OFFCURVE",
"231 492 CURVE",
"166 502 LINE",
"145 420 OFFCURVE",
"128 353 OFFCURVE",
"126 282 CURVE SMOOTH",
"123 219 OFFCURVE",
"127 152 OFFCURVE",
"137 75 CURVE",
"60 75 LINE",
"60 0 LINE"
);
}
);
width = 650;
},
{
anchors = (
{
name = bottom;
position = "{365, 0}";
},
{
name = bottomleft;
position = "{8, 0}";
},
{
name = center;
position = "{356, 238}";
},
{
name = top;
position = "{313, 556}";
},
{
name = topleft;
position = "{8, 556}";
}
);
layerId = "F5FC6CB4-8346-45E7-8DEF-2B856C43F982";
paths = (
{
closed = 1;
nodes = (
"649 0 LINE",
"649 245 LINE",
"649 454 OFFCURVE",
"545 556 OFFCURVE",
"341 556 CURVE",
"23 556 LINE",
"23 366 LINE",
"341 366 LINE",
"425 366 OFFCURVE",
"439 347 OFFCURVE",
"439 245 CURVE",
"439 0 LINE"
);
},
{
closed = 1;
nodes = (
"299 0 LINE",
"283 144 OFFCURVE",
"275 225 OFFCURVE",
"278 286 CURVE SMOOTH",
"280 321 OFFCURVE",
"286 359 OFFCURVE",
"290 386 CURVE",
"88 421 LINE",
"80 396 OFFCURVE",
"73 347 OFFCURVE",
"68 297 CURVE SMOOTH",
"65 265 OFFCURVE",
"66 233 OFFCURVE",
"68 200 CURVE",
"14 200 LINE",
"14 0 LINE"
);
}
);
width = 658;
}
);
unicode = 05EA;
},
{
glyphname = "alef-hb.forDagesh";
lastChange = "2019-11-26 10:54:32 +0000";
layers = (
{
anchors = (
{
name = bottom;
position = "{361, 0}";
},
{
name = bottomleft;
position = "{49, 0}";
},
{
name = center;
position = "{289, 150}";
},
{
name = top;
position = "{351, 556}";
},
{
name = topleft;
position = "{49, 556}";
}
);
layerId = "3BB9E4C4-DEF2-48EE-A047-AEFABDBAAE6E";
paths = (
{
closed = 1;
nodes = (
"608 2 LINE",
"472 207 OFFCURVE",
"386 287 OFFCURVE",
"88 561 CURVE",
"85 559 LINE",
"372 290 OFFCURVE",
"465 210 OFFCURVE",
"604 -1 CURVE"
);
},
{
closed = 1;
nodes = (
"120 0 LINE",
"120 156 OFFCURVE",
"144 344 OFFCURVE",
"229 429 CURVE",
"225 433 LINE",
"142 347 OFFCURVE",
"115 159 OFFCURVE",
"115 0 CURVE"
);
},
{
closed = 1;
nodes = (
"554 263 OFFCURVE",
"584 429 OFFCURVE",
"584 556 CURVE",
"579 556 LINE",
"579 435 OFFCURVE",
"552 268 OFFCURVE",
"480 170 CURVE",
"484 167 LINE"
);
}
);
width = 692;
},
{
anchors = (
{
name = bottom;
position = "{336, 0}";
},
{
name = bottomleft;
position = "{20, 0}";
},
{
name = center;
position = "{273, 98}";
},
{
name = top;
position = "{322, 556}";
},
{
name = topleft;
position = "{20, 556}";
}
);
layerId = "8609C873-3DB2-4A65-A2BD-5F22606290B7";
paths = (
{
closed = 1;
nodes = (
"595 26 LINE",
"377 332 OFFCURVE",
"299 401 OFFCURVE",
"104 571 CURVE",
"53 516 LINE",
"265 334 OFFCURVE",
"343 248 OFFCURVE",
"532 -15 CURVE"
);
},
{
closed = 1;
nodes = (
"153 0 LINE",
"153 175 OFFCURVE",
"159 296 OFFCURVE",
"236 397 CURVE",
"189 440 LINE",
"87 328 OFFCURVE",
"78 195 OFFCURVE",
"78 0 CURVE"
);
},
{
closed = 1;
nodes = (
"566 301 OFFCURVE",
"569 374 OFFCURVE",
"569 556 CURVE",
"494 556 LINE",
"494 403 OFFCURVE",
"494 327 OFFCURVE",
"424 201 CURVE",
"473 160 LINE"
);
}
);
width = 643;
},
{
anchors = (
{
name = bottom;
position = "{343, 0}";
},
{
name = bottomleft;
position = "{58, 0}";
},
{
name = center;
position = "{302, 77}";
},
{
name = top;
position = "{333, 556}";
},
{
name = topleft;
position = "{58, 556}";
}
);
layerId = "F5FC6CB4-8346-45E7-8DEF-2B856C43F982";
paths = (
{
closed = 1;
nodes = (
"640 0 LINE",
"605 215 OFFCURVE",
"392 322 OFFCURVE",
"235 556 CURVE",
"-2 556 LINE",
"183 277 OFFCURVE",
"366 213 OFFCURVE",
"408 0 CURVE"
);
},
{
closed = 1;
nodes = (
"227 0 LINE",
"227 182 OFFCURVE",
"258 265 OFFCURVE",
"308 282 CURVE",
"197 402 LINE",
"44 317 OFFCURVE",
"17 253 OFFCURVE",
"17 0 CURVE"
);
},
{
closed = 1;
nodes = (
"601 283 OFFCURVE",
"629 365 OFFCURVE",
"629 556 CURVE",
"419 556 LINE",
"419 459 OFFCURVE",
"419 402 OFFCURVE",
"382 349 CURVE",
"513 194 LINE"
);
}
);
width = 647;
},
{
anchors = (
{
name = bottom;
position = "{306, 0}";
},
{
name = bottomleft;
position = "{20, 0}";
},
{
name = center;
position = "{286, 89}";
},
{
name = top;
position = "{306, 556}";
},
{
name = topleft;
position = "{20, 556}";
}
);
associatedMasterId = "8609C873-3DB2-4A65-A2BD-5F22606290B7";
layerId = "E7ED19AB-3AC2-4FDA-8BD0-2EB389126517";
name = "{200}";
paths = (
{
closed = 1;
nodes = (
"588 92 LINE",
"507 216 OFFCURVE",
"365 375 OFFCURVE",
"159 589 CURVE",
"30 463 LINE",
"174 344 OFFCURVE",
"293 211 OFFCURVE",
"445 -15 CURVE"
);
},
{
closed = 1;
nodes = (
"223 0 LINE",
"223 164 OFFCURVE",
"223 224 OFFCURVE",
"266 267 CURVE",
"159 382 LINE",
"19 274 OFFCURVE",
"23 231 OFFCURVE",
"23 0 CURVE"
);
},
{
closed = 1;
nodes = (
"563 284 OFFCURVE",
"589 366 OFFCURVE",
"589 556 CURVE",
"389 556 LINE",
"389 455 OFFCURVE",
"389 396 OFFCURVE",
"350 338 CURVE",
"475 191 LINE"
);
}
);
width = 612;
}
);
},
{
glyphname = "shin-hb.forDagesh";
lastChange = "2019-11-26 10:54:32 +0000";
layers = (
{
anchors = (
{
name = bottom;
position = "{365, 0}";
},
{
name = bottomleft;
position = "{18, 0}";
},
{
name = center;
position = "{431, 278}";
},
{
name = top;
position = "{355, 556}";
},
{
name = topleft;
position = "{18, 556}";
},
{
name = topright;
position = "{692, 556}";
}
);
layerId = "3BB9E4C4-DEF2-48EE-A047-AEFABDBAAE6E";
paths = (
{
closed = 1;
nodes = (
"527 -2 OFFCURVE",
"627 196 OFFCURVE",
"643 556 CURVE",
"638 556 LINE",
"622 203 OFFCURVE",
"526 3 OFFCURVE",
"360 3 CURVE",
"185 3 OFFCURVE",
"75 220 OFFCURVE",
"75 556 CURVE",
"70 556 LINE",
"70 221 OFFCURVE",
"181 -2 OFFCURVE",
"360 -2 CURVE"
);
},
{
closed = 1;
nodes = (
"196 205 OFFCURVE",
"259 257 OFFCURVE",
"300 318 CURVE",
"347 387 OFFCURVE",
"372 470 OFFCURVE",
"372 556 CURVE",
"367 556 LINE",
"367 472 OFFCURVE",
"342 389 OFFCURVE",
"296 321 CURVE",
"255 260 OFFCURVE",
"195 210 OFFCURVE",
"130 193 CURVE",
"132 188 LINE"
);
}
);
width = 713;
},
{
anchors = (
{
name = bottom;
position = "{357, 0}";
},
{
name = bottomleft;
position = "{20, 0}";
},
{
name = center;
position = "{452, 273}";
},
{
name = top;
position = "{357, 556}";
},
{
name = topleft;
position = "{20, 556}";
},
{
name = topright;
position = "{694, 556}";
}
);
layerId = "8609C873-3DB2-4A65-A2BD-5F22606290B7";
paths = (
{
closed = 1;
nodes = (
"623 -6 OFFCURVE",
"646 263 OFFCURVE",
"659 556 CURVE",
"584 556 LINE",
"572 290 OFFCURVE",
"558 64 OFFCURVE",
"342 64 CURVE",
"146 64 OFFCURVE",
"129 347 OFFCURVE",
"129 556 CURVE",
"55 556 LINE",
"54 310 OFFCURVE",
"90 -11 OFFCURVE",
"342 -11 CURVE"
);
},
{
closed = 1;
nodes = (
"263 181 OFFCURVE",
"333 245 OFFCURVE",
"364 309 CURVE SMOOTH",
"396 373 OFFCURVE",
"405 454 OFFCURVE",
"405 556 CURVE",
"330 556 LINE",
"330 467 OFFCURVE",
"324 399 OFFCURVE",
"300 347 CURVE SMOOTH",
"276 299 OFFCURVE",
"225 235 OFFCURVE",
"149 226 CURVE",
"170 170 LINE"
);
}
);
width = 714;
},
{
anchors = (
{
name = bottom;
position = "{390, 0}";
},
{
name = bottomleft;
position = "{25, 0}";
},
{
name = center;
position = "{411, 268}";
},
{
name = top;
position = "{380, 556}";
},
{
name = topleft;
position = "{25, 556}";
},
{
name = topright;
position = "{735, 556}";
}
);
layerId = "F5FC6CB4-8346-45E7-8DEF-2B856C43F982";
paths = (
{
closed = 1;
nodes = (
"648 -11 OFFCURVE",
"759 168 OFFCURVE",
"759 556 CURVE",
"549 556 LINE",
"549 302 OFFCURVE",
"519 179 OFFCURVE",
"364 179 CURVE",
"236 179 OFFCURVE",
"222 367 OFFCURVE",
"222 556 CURVE",
"12 556 LINE",
"12 241 OFFCURVE",
"80 -11 OFFCURVE",
"384 -11 CURVE"
);
},
{
closed = 1;
nodes = (
"320 300 OFFCURVE",
"407 345 OFFCURVE",
"439 379 CURVE SMOOTH",
"464 406 OFFCURVE",
"489 449 OFFCURVE",
"489 556 CURVE",
"284 556 LINE",
"284 443 OFFCURVE",
"278 401 OFFCURVE",
"267 384 CURVE SMOOTH",
"256 367 OFFCURVE",
"235 351 OFFCURVE",
"195 351 CURVE",
"194 300 LINE"
);
}
);
width = 771;
}
);
},
{
glyphname = zero;
lastChange = "2019-11-26 10:54:32 +0000";
layers = (
{
layerId = "3BB9E4C4-DEF2-48EE-A047-AEFABDBAAE6E";
paths = (
{
closed = 1;
nodes = (
"395 0 OFFCURVE",
"484 126 OFFCURVE",
"484 303 CURVE",
"484 479 OFFCURVE",
"395 603 OFFCURVE",
"270 603 CURVE",
"145 603 OFFCURVE",
"56 479 OFFCURVE",
"56 303 CURVE",
"56 126 OFFCURVE",
"145 0 OFFCURVE",
"270 0 CURVE"
);
},
{
closed = 1;
nodes = (
"148 5 OFFCURVE",
"61 128 OFFCURVE",
"61 303 CURVE",
"61 476 OFFCURVE",
"148 598 OFFCURVE",
"270 598 CURVE",
"392 598 OFFCURVE",
"479 476 OFFCURVE",
"479 303 CURVE",
"479 128 OFFCURVE",
"392 5 OFFCURVE",
"270 5 CURVE"
);
}
);
width = 540;
},
{
layerId = "8609C873-3DB2-4A65-A2BD-5F22606290B7";
paths = (
{
closed = 1;
nodes = (
"391 -15 OFFCURVE",
"489 96 OFFCURVE",
"489 303 CURVE",
"489 503 OFFCURVE",
"392 617 OFFCURVE",
"270 617 CURVE",
"151 617 OFFCURVE",
"51 506 OFFCURVE",
"51 303 CURVE",
"51 101 OFFCURVE",
"146 -15 OFFCURVE",
"270 -15 CURVE"
);
},
{
closed = 1;
nodes = (
"193 60 OFFCURVE",
"126 139 OFFCURVE",
"126 303 CURVE",
"126 460 OFFCURVE",
"191 542 OFFCURVE",
"270 542 CURVE",
"348 542 OFFCURVE",
"414 463 OFFCURVE",
"414 303 CURVE",
"414 141 OFFCURVE",
"350 60 OFFCURVE",
"270 60 CURVE"
);
}
);
width = 540;
},
{
layerId = "F5FC6CB4-8346-45E7-8DEF-2B856C43F982";
paths = (
{
closed = 1;
nodes = (
"440 -30 OFFCURVE",
"549 124 OFFCURVE",
"549 303 CURVE SMOOTH",
"549 475 OFFCURVE",
"440 628 OFFCURVE",
"280 628 CURVE SMOOTH",
"120 628 OFFCURVE",
"11 475 OFFCURVE",
"11 303 CURVE SMOOTH",
"11 124 OFFCURVE",
"120 -30 OFFCURVE",
"280 -30 CURVE SMOOTH"
);
},
{
closed = 1;
nodes = (
"231 180 OFFCURVE",
"201 227 OFFCURVE",
"201 303 CURVE SMOOTH",
"201 373 OFFCURVE",
"231 418 OFFCURVE",
"280 418 CURVE SMOOTH",
"329 418 OFFCURVE",
"359 373 OFFCURVE",
"359 303 CURVE SMOOTH",
"359 227 OFFCURVE",
"329 180 OFFCURVE",
"280 180 CURVE SMOOTH"
);
}
);
width = 560;
}
);
unicode = 0030;
},
{
glyphname = one;
lastChange = "2019-11-26 10:54:32 +0000";
layers = (
{
layerId = "3BB9E4C4-DEF2-48EE-A047-AEFABDBAAE6E";
paths = (
{
closed = 1;
nodes = (
"255 0 LINE",
"255 607 LINE",
"69 505 LINE",
"69 500 LINE",
"250 599 LINE",
"250 0 LINE"
);
}
);
width = 390;
},
{
layerId = "8609C873-3DB2-4A65-A2BD-5F22606290B7";
paths = (
{
closed = 1;
nodes = (
"335 0 LINE",
"335 617 LINE",
"61 491 LINE",
"61 406 LINE",
"260 491 LINE",
"260 0 LINE"
);
}
);
width = 430;
},
{
layerId = "F5FC6CB4-8346-45E7-8DEF-2B856C43F982";
paths = (
{
closed = 1;
nodes = (
"341 0 LINE",
"341 624 LINE",
"14 546 LINE",
"14 311 LINE",
"151 348 LINE",
"151 0 LINE"
);
}
);
width = 365;
}
);
unicode = 0031;
},
{
glyphname = two;
lastChange = "2019-11-26 10:54:32 +0000";
layers = (
{
layerId = "3BB9E4C4-DEF2-48EE-A047-AEFABDBAAE6E";
paths = (
{
closed = 1;
nodes = (
"481 0 LINE",
"481 5 LINE",
"85 5 LINE",
"319 188 OFFCURVE",
"453 293 OFFCURVE",
"453 429 CURVE",
"453 525 OFFCURVE",
"376 608 OFFCURVE",
"268 607 CURVE",
"184 608 OFFCURVE",
"113 569 OFFCURVE",
"53 489 CURVE",
"56 486 LINE",
"114 565 OFFCURVE",
"182 603 OFFCURVE",
"268 602 CURVE",
"373 603 OFFCURVE",
"448 522 OFFCURVE",
"448 429 CURVE",
"448 294 OFFCURVE",
"310 189 OFFCURVE",
"76 5 CURVE",
"76 0 LINE"
);
}
);
width = 540;
},
{
layerId = "8609C873-3DB2-4A65-A2BD-5F22606290B7";
paths = (
{
closed = 1;
nodes = (
"481 0 LINE",
"481 75 LINE",
"187 75 LINE",
"341 195 OFFCURVE",
"465 286 OFFCURVE",
"465 416 CURVE",
"465 528 OFFCURVE",
"390 618 OFFCURVE",
"268 617 CURVE",
"152 618 OFFCURVE",
"92 551 OFFCURVE",
"53 499 CURVE",
"117 459 LINE",
"150 505 OFFCURVE",
"214 543 OFFCURVE",
"268 542 CURVE",
"345 543 OFFCURVE",
"390 489 OFFCURVE",
"390 416 CURVE",
"390 304 OFFCURVE",
"250 221 OFFCURVE",
"81 88 CURVE",
"76 0 LINE"
);
}
);
width = 540;
},
{
layerId = "F5FC6CB4-8346-45E7-8DEF-2B856C43F982";
paths = (
{
closed = 1;
nodes = (
"522 0 LINE",
"522 210 LINE",
"389 210 LINE",
"445 236 OFFCURVE",
"528 292 OFFCURVE",
"528 429 CURVE SMOOTH",
"528 533 OFFCURVE",
"456 630 OFFCURVE",
"300 630 CURVE SMOOTH",
"179 630 OFFCURVE",
"107 599 OFFCURVE",
"35 552 CURVE",
"35 342 LINE",
"139 402 OFFCURVE",
"195 418 OFFCURVE",
"248 418 CURVE SMOOTH",
"290 418 OFFCURVE",
"318 393 OFFCURVE",
"318 363 CURVE SMOOTH",
"318 318 OFFCURVE",
"267 266 OFFCURVE",
"35 207 CURVE",
"35 0 LINE"
);
}
);
width = 560;
},
{
associatedMasterId = "8609C873-3DB2-4A65-A2BD-5F22606290B7";
layerId = "245ED4A3-03EB-4ACC-AD8C-66EB3C850984";
name = "{200}";
paths = (
{
closed = 1;
nodes = (
"519 0 LINE",
"519 200 LINE",
"374 200 LINE",
"437 233 OFFCURVE",
"523 292 OFFCURVE",
"523 428 CURVE",
"523 533 OFFCURVE",
"451 629 OFFCURVE",
"298 629 CURVE",
"177 629 OFFCURVE",
"95 593 OFFCURVE",
"-14 533 CURVE",
"58 355 LINE",
"149 410 OFFCURVE",
"196 427 OFFCURVE",
"249 427 CURVE",
"294 427 OFFCURVE",
"323 400 OFFCURVE",
"323 367 CURVE",
"323 317 OFFCURVE",
"266 263 OFFCURVE",
"38 198 CURVE",
"38 0 LINE"
);
}
);
width = 559;
}
);
unicode = 0032;
},
{
glyphname = three;
lastChange = "2019-11-26 10:54:32 +0000";
layers = (
{
layerId = "3BB9E4C4-DEF2-48EE-A047-AEFABDBAAE6E";
paths = (
{
closed = 1;
nodes = (
"376 -3 OFFCURVE",
"472 84 OFFCURVE",
"472 188 CURVE",
"472 281 OFFCURVE",
"392 345 OFFCURVE",
"230 381 CURVE",
"459 597 LINE",
"459 602 LINE",
"84 602 LINE",
"84 597 LINE",
"453 597 LINE",
"431 576 LINE",
"221 378 LINE",
"397 337 OFFCURVE",
"467 275 OFFCURVE",
"467 188 CURVE",
"467 87 OFFCURVE",
"374 2 OFFCURVE",
"263 2 CURVE",
"215 2 OFFCURVE",
"137 28 OFFCURVE",
"74 64 CURVE",
"72 59 LINE",
"137 23 OFFCURVE",
"216 -3 OFFCURVE",
"263 -3 CURVE"
);
}
);
width = 540;
},
{
layerId = "8609C873-3DB2-4A65-A2BD-5F22606290B7";
paths = (
{
closed = 1;
nodes = (
"381 -15 OFFCURVE",
"472 71 OFFCURVE",
"472 188 CURVE",
"472 293 OFFCURVE",
"412 357 OFFCURVE",
"302 381 CURVE",
"448 527 LINE",
"449 602 LINE",
"74 602 LINE",
"74 527 LINE",
"350 527 LINE",
"323 500 LINE",
"152 325 LINE",
"313 311 OFFCURVE",
"397 279 OFFCURVE",
"397 188 CURVE",
"397 114 OFFCURVE",
"344 60 OFFCURVE",
"253 60 CURVE",
"186 60 OFFCURVE",
"126 83 OFFCURVE",
"88 105 CURVE",
"50 40 LINE",
"95 15 OFFCURVE",
"169 -15 OFFCURVE",
"253 -15 CURVE"
);
}
);
width = 530;
},
{
layerId = "F5FC6CB4-8346-45E7-8DEF-2B856C43F982";
paths = (
{
closed = 1;
nodes = (
"436 -28 OFFCURVE",
"537 69 OFFCURVE",
"537 179 CURVE SMOOTH",
"537 261 OFFCURVE",
"499 311 OFFCURVE",
"404 351 CURVE",
"524 442 LINE",
"524 600 LINE",
"26 600 LINE",
"26 390 LINE",
"334 390 LINE",
"334 538 LINE",
"97 243 LINE",
"242 243 OFFCURVE",
"347 236 OFFCURVE",
"347 211 CURVE SMOOTH",
"347 192 OFFCURVE",
"294 182 OFFCURVE",
"254 182 CURVE SMOOTH",
"176 182 OFFCURVE",
"126 192 OFFCURVE",
"26 217 CURVE",
"26 0 LINE",
"86 -18 OFFCURVE",
"171 -28 OFFCURVE",
"254 -28 CURVE SMOOTH"
);
}
);
width = 560;
},
{
associatedMasterId = "8609C873-3DB2-4A65-A2BD-5F22606290B7";
layerId = "CB3AC83A-FAC4-4B6E-AD5D-12BFCB18433F";
name = "{200}";
paths = (
{
closed = 1;
nodes = (
"432 -27 OFFCURVE",
"532 69 OFFCURVE",
"532 180 CURVE",
"532 263 OFFCURVE",
"493 314 OFFCURVE",
"396 353 CURVE",
"518 448 LINE",
"518 600 LINE",
"30 600 LINE",
"30 400 LINE",
"335 400 LINE",
"333 535 LINE",
"101 249 LINE",
"247 248 OFFCURVE",
"351 239 OFFCURVE",
"351 209 CURVE",
"351 186 OFFCURVE",
"298 173 OFFCURVE",
"254 173 CURVE",
"177 173 OFFCURVE",
"126 184 OFFCURVE",
"66 201 CURVE",
"1 12 LINE",
"87 -16 OFFCURVE",
"171 -27 OFFCURVE",
"254 -27 CURVE"
);
}
);
width = 558;
}
);
unicode = 0033;
},
{
glyphname = four;
lastChange = "2019-11-26 10:54:32 +0000";
layers = (
{
layerId = "3BB9E4C4-DEF2-48EE-A047-AEFABDBAAE6E";
paths = (
{
closed = 1;
nodes = (
"365 0 LINE",
"365 602 LINE",
"357 602 LINE",
"30 183 LINE",
"30 177 LINE",
"459 178 LINE",
"459 183 LINE",
"52 183 LINE",
"37 183 LINE",
"360 597 LINE",
"360 584 LINE",
"360 0 LINE"
);
}
);
width = 510;
},
{
layerId = "8609C873-3DB2-4A65-A2BD-5F22606290B7";
paths = (
{
closed = 1;
nodes = (
"415 0 LINE",
"415 602 LINE",
"357 602 LINE",
"40 188 LINE",
"40 137 LINE",
"469 138 LINE",
"469 213 LINE",
"167 212 LINE",
"142 212 LINE",
"340 457 LINE",
"340 437 LINE",
"340 0 LINE"
);
}
);
width = 530;
},
{
layerId = "F5FC6CB4-8346-45E7-8DEF-2B856C43F982";
paths = (
{
closed = 1;
nodes = (
"515 0 LINE",
"515 600 LINE",
"255 600 LINE",
"17 295 LINE",
"18 72 LINE",
"546 73 LINE",
"546 283 LINE",
"150 282 LINE",
"150 184 LINE",
"405 497 LINE",
"325 497 LINE",
"325 0 LINE"
);
}
);
width = 570;
}
);
unicode = 0034;
},
{
glyphname = five;
lastChange = "2019-11-26 10:54:32 +0000";
layers = (
{
layerId = "3BB9E4C4-DEF2-48EE-A047-AEFABDBAAE6E";
paths = (
{
closed = 1;
nodes = (
"367 -15 OFFCURVE",
"452 59 OFFCURVE",
"452 175 CURVE SMOOTH",
"452 296 OFFCURVE",
"362 367 OFFCURVE",
"255 367 CURVE SMOOTH",
"214 367 OFFCURVE",
"143 357 OFFCURVE",
"100 345 CURVE",
"107 597 LINE",
"429 597 LINE",
"429 602 LINE",
"102 602 LINE",
"94 339 LINE",
"153 354 OFFCURVE",
"197 362 OFFCURVE",
"255 362 CURVE SMOOTH",
"359 362 OFFCURVE",
"447 293 OFFCURVE",
"447 175 CURVE SMOOTH",
"447 62 OFFCURVE",
"364 -10 OFFCURVE",
"251 -10 CURVE SMOOTH",
"181 -10 OFFCURVE",
"115 11 OFFCURVE",
"82 34 CURVE",
"80 30 LINE",
"116 6 OFFCURVE",
"183 -15 OFFCURVE",
"251 -15 CURVE SMOOTH"
);
}
);
width = 540;
},
{
layerId = "8609C873-3DB2-4A65-A2BD-5F22606290B7";
paths = (
{
closed = 1;
nodes = (
"386 -15 OFFCURVE",
"472 71 OFFCURVE",
"472 191 CURVE SMOOTH",
"472 313 OFFCURVE",
"388 383 OFFCURVE",
"255 383 CURVE SMOOTH",
"235 383 OFFCURVE",
"196 379 OFFCURVE",
"170 375 CURVE",
"175 527 LINE",
"429 527 LINE",
"429 602 LINE",
"102 602 LINE",
"93 277 LINE",
"166 298 OFFCURVE",
"220 308 OFFCURVE",
"255 308 CURVE SMOOTH",
"343 308 OFFCURVE",
"397 273 OFFCURVE",
"397 191 CURVE SMOOTH",
"397 113 OFFCURVE",
"344 60 OFFCURVE",
"266 60 CURVE SMOOTH",
"200 60 OFFCURVE",
"138 92 OFFCURVE",
"108 111 CURVE",
"68 47 LINE",
"114 19 OFFCURVE",
"185 -15 OFFCURVE",
"266 -15 CURVE SMOOTH"
);
}
);
width = 540;
},
{
layerId = "F5FC6CB4-8346-45E7-8DEF-2B856C43F982";
paths = (
{
closed = 1;
nodes = (
"425 -25 OFFCURVE",
"547 47 OFFCURVE",
"547 199 CURVE SMOOTH",
"547 308 OFFCURVE",
"481 375 OFFCURVE",
"270 375 CURVE SMOOTH",
"259 375 OFFCURVE",
"239 374 OFFCURVE",
"198 372 CURVE",
"199 390 LINE",
"489 390 LINE",
"489 600 LINE",
"28 600 LINE",
"17 229 LINE",
"155 239 OFFCURVE",
"191 239 OFFCURVE",
"270 239 CURVE SMOOTH",
"321 239 OFFCURVE",
"357 229 OFFCURVE",
"357 212 CURVE SMOOTH",
"357 192 OFFCURVE",
"321 185 OFFCURVE",
"266 185 CURVE SMOOTH",
"234 185 OFFCURVE",
"158 199 OFFCURVE",
"17 217 CURVE",
"17 30 LINE",
"102 -4 OFFCURVE",
"175 -25 OFFCURVE",
"266 -25 CURVE SMOOTH"
);
}
);
width = 560;
},
{
associatedMasterId = "8609C873-3DB2-4A65-A2BD-5F22606290B7";
layerId = "484C4716-6F29-4CF6-A54F-29D5316AAF5C";
name = "{200}";
paths = (
{
closed = 1;
nodes = (
"422 -24 OFFCURVE",
"541 49 OFFCURVE",
"541 198 CURVE SMOOTH",
"541 308 OFFCURVE",
"474 376 OFFCURVE",
"269 376 CURVE SMOOTH",
"257 376 OFFCURVE",
"236 374 OFFCURVE",
"196 372 CURVE",
"197 400 LINE",
"485 400 LINE",
"485 600 LINE",
"33 600 LINE",
"23 233 LINE",
"156 243 OFFCURVE",
"193 244 OFFCURVE",
"269 244 CURVE SMOOTH",
"323 244 OFFCURVE",
"360 232 OFFCURVE",
"360 210 CURVE SMOOTH",
"360 186 OFFCURVE",
"323 176 OFFCURVE",
"266 176 CURVE SMOOTH",
"231 176 OFFCURVE",
"162 183 OFFCURVE",
"43 202 CURVE",
"-6 5 LINE",
"93 -17 OFFCURVE",
"176 -24 OFFCURVE",
"266 -24 CURVE SMOOTH"
);
}
);
width = 559;
}
);
unicode = 0035;
},
{
glyphname = six;
lastChange = "2019-11-26 10:54:32 +0000";
layers = (
{
hints = (
{
horizontal = 1;
place = "{-10, 71}";
type = Stem;
},
{
horizontal = 1;
place = "{404, 71}";
type = Stem;
},
{
horizontal = 1;
place = "{730, -20}";
target = down;
type = TopGhost;
},
{
place = "{47, 76}";
type = Stem;
},
{
place = "{465, 76}";
type = Stem;
}
);
layerId = "3BB9E4C4-DEF2-48EE-A047-AEFABDBAAE6E";
paths = (
{
closed = 1;
nodes = (
"372 -13 OFFCURVE",
"440 69 OFFCURVE",
"440 166 CURVE SMOOTH",
"440 264 OFFCURVE",
"361 341 OFFCURVE",
"258 341 CURVE SMOOTH",
"154 341 OFFCURVE",
"78 264 OFFCURVE",
"78 175 CURVE",
"78 73 OFFCURVE",
"159 -13 OFFCURVE",
"258 -13 CURVE SMOOTH"
);
},
{
closed = 1;
nodes = (
"162 -8 OFFCURVE",
"83 76 OFFCURVE",
"83 175 CURVE SMOOTH",
"83 262 OFFCURVE",
"162 336 OFFCURVE",
"258 336 CURVE SMOOTH",
"358 336 OFFCURVE",
"435 261 OFFCURVE",
"435 166 CURVE SMOOTH",
"435 71 OFFCURVE",
"370 -8 OFFCURVE",
"258 -8 CURVE SMOOTH"
);
},
{
closed = 1;
nodes = (
"83 176 LINE",
"83 317 OFFCURVE",
"152 469 OFFCURVE",
"307 603 CURVE",
"303 607 LINE",
"152 475 OFFCURVE",
"78 331 OFFCURVE",
"78 175 CURVE"
);
}
);
width = 500;
},
{
hints = (
{
horizontal = 1;
place = "{-10, 71}";
type = Stem;
},
{
horizontal = 1;
place = "{404, 71}";
type = Stem;
},
{
horizontal = 1;
place = "{730, -20}";
target = down;
type = TopGhost;
},
{
place = "{47, 76}";
type = Stem;
},
{
place = "{465, 76}";
type = Stem;
}
);
layerId = "8609C873-3DB2-4A65-A2BD-5F22606290B7";
paths = (
{
closed = 1;
nodes = (
"384 -15 OFFCURVE",
"472 77 OFFCURVE",
"472 193 CURVE SMOOTH",
"472 311 OFFCURVE",
"385 393 OFFCURVE",
"261 393 CURVE SMOOTH",
"159 393 OFFCURVE",
"50 311 OFFCURVE",
"50 202 CURVE",
"50 78 OFFCURVE",
"148 -15 OFFCURVE",
"268 -15 CURVE SMOOTH"
);
},
{
closed = 1;
nodes = (
"191 60 OFFCURVE",
"126 118 OFFCURVE",
"126 202 CURVE SMOOTH",
"126 283 OFFCURVE",
"182 318 OFFCURVE",
"261 318 CURVE SMOOTH",
"339 318 OFFCURVE",
"397 275 OFFCURVE",
"397 193 CURVE SMOOTH",
"397 118 OFFCURVE",
"342 60 OFFCURVE",
"268 60 CURVE SMOOTH"
);
},
{
closed = 1;
nodes = (
"123 202 LINE",
"123 356 OFFCURVE",
"284 503 OFFCURVE",
"349 566 CURVE",
"296 619 LINE",
"171 499 OFFCURVE",
"50 367 OFFCURVE",
"50 202 CURVE"
);
}
);
width = 520;
},
{
layerId = "F5FC6CB4-8346-45E7-8DEF-2B856C43F982";
paths = (
{
closed = 1;
nodes = (
"436 -25 OFFCURVE",
"552 55 OFFCURVE",
"552 232 CURVE SMOOTH",
"552 348 OFFCURVE",
"458 453 OFFCURVE",
"312 453 CURVE SMOOTH",
"161 453 OFFCURVE",
"5 394 OFFCURVE",
"5 232 CURVE",
"5 68 OFFCURVE",
"127 -25 OFFCURVE",
"278 -25 CURVE SMOOTH"
);
},
{
closed = 1;
nodes = (
"233 185 OFFCURVE",
"196 195 OFFCURVE",
"196 215 CURVE SMOOTH",
"196 232 OFFCURVE",
"233 243 OFFCURVE",
"282 243 CURVE SMOOTH",
"333 243 OFFCURVE",
"362 232 OFFCURVE",
"362 215 CURVE SMOOTH",
"362 195 OFFCURVE",
"333 185 OFFCURVE",
"282 185 CURVE SMOOTH"
);
},
{
closed = 1;
nodes = (
"167 232 LINE",
"203 417 OFFCURVE",
"333 500 OFFCURVE",
"436 603 CURVE",
"217 603 LINE",
"76 473 OFFCURVE",
"5 348 OFFCURVE",
"5 232 CURVE"
);
}
);
width = 560;
},
{
associatedMasterId = "8609C873-3DB2-4A65-A2BD-5F22606290B7";
hints = (
{
horizontal = 1;
place = "{-0.741, 5.259}";
type = Stem;
},
{
horizontal = 1;
place = "{29.926, 5.259}";
type = Stem;
},
{
horizontal = 1;
place = "{54.074, -20}";
target = down;
type = TopGhost;
},
{
place = "{3.481, 5.63}";
type = Stem;
},
{
place = "{34.444, 5.63}";
type = Stem;
}
);
layerId = "4F938051-D966-4C5D-9904-F94B06D2BC7C";
name = "{200}";
paths = (
{
closed = 1;
nodes = (
"432 -24 OFFCURVE",
"546 57 OFFCURVE",
"546 229 CURVE SMOOTH",
"546 345 OFFCURVE",
"453 449 OFFCURVE",
"308 449 CURVE SMOOTH",
"161 449 OFFCURVE",
"8 388 OFFCURVE",
"8 230 CURVE",
"8 69 OFFCURVE",
"129 -24 OFFCURVE",
"277 -24 CURVE SMOOTH"
);
},
{
closed = 1;
nodes = (
"230 176 OFFCURVE",
"191 189 OFFCURVE",
"191 214 CURVE SMOOTH",
"191 236 OFFCURVE",
"229 249 OFFCURVE",
"280 249 CURVE SMOOTH",
"333 249 OFFCURVE",
"365 235 OFFCURVE",
"365 213 CURVE SMOOTH",
"365 189 OFFCURVE",
"334 176 OFFCURVE",
"281 176 CURVE SMOOTH"
);
},
{
closed = 1;
nodes = (
"164 230 LINE",
"197 412 OFFCURVE",
"313 468 OFFCURVE",
"387 508 CURVE",
"289 674 LINE",
"87 536 OFFCURVE",
"8 421 OFFCURVE",
"8 230 CURVE"
);
}
);
width = 557;
}
);
unicode = 0036;
},
{
glyphname = seven;
lastChange = "2019-11-26 10:54:32 +0000";
layers = (
{
hints = (
{
horizontal = 1;
place = "{0, 21}";
target = up;
type = BottomGhost;
},
{
horizontal = 1;
place = "{655, 75}";
type = Stem;
},
{
place = "{42, 504}";
type = Stem;
}
);
layerId = "3BB9E4C4-DEF2-48EE-A047-AEFABDBAAE6E";
paths = (
{
closed = 1;
nodes = (
"432 602 LINE",
"20 602 LINE",
"20 597 LINE",
"424 597 LINE",
"169 0 LINE",
"174 0 LINE"
);
}
);
width = 460;
},
{
hints = (
{
horizontal = 1;
place = "{0, 21}";
target = up;
type = BottomGhost;
},
{
horizontal = 1;
place = "{655, 75}";
type = Stem;
},
{
place = "{42, 504}";
type = Stem;
}
);
layerId = "8609C873-3DB2-4A65-A2BD-5F22606290B7";
paths = (
{
closed = 1;
nodes = (
"478 602 LINE",
"70 602 LINE",
"70 527 LINE",
"364 527 LINE",
"137 0 LINE",
"221 0 LINE"
);
}
);
width = 490;
},
{
layerId = "F5FC6CB4-8346-45E7-8DEF-2B856C43F982";
paths = (
{
closed = 1;
nodes = (
"565 600 LINE",
"7 600 LINE",
"7 390 LINE",
"287 390 LINE",
"160 0 LINE",
"369 0 LINE"
);
}
);
width = 553;
}
);
unicode = 0037;
},
{
glyphname = eight;
lastChange = "2019-11-26 10:53:24 +0000";
layers = (
{
hints = (
{
horizontal = 1;
place = "{-10, 71}";
type = Stem;
},
{
horizontal = 1;
place = "{350, 70}";
type = Stem;
},
{
horizontal = 1;
place = "{671, 69}";
type = Stem;
},
{
place = "{48, 75}";
type = Stem;
},
{
place = "{465, 75}";
type = Stem;
},
{
place = "{70, 72}";
type = Stem;
},
{
place = "{447, 73}";
type = Stem;
}
);
layerId = "3BB9E4C4-DEF2-48EE-A047-AEFABDBAAE6E";
paths = (
{
closed = 1;
nodes = (
"352 -3 OFFCURVE",
"430 63 OFFCURVE",
"430 167 CURVE SMOOTH",
"430 258 OFFCURVE",
"364 324 OFFCURVE",
"278 337 CURVE",
"346 349 OFFCURVE",
"396 412 OFFCURVE",
"396 468 CURVE SMOOTH",
"396 534 OFFCURVE",
"331 603 OFFCURVE",
"247 603 CURVE SMOOTH",
"163 603 OFFCURVE",
"99 534 OFFCURVE",
"99 468 CURVE SMOOTH",
"99 412 OFFCURVE",
"148 349 OFFCURVE",
"216 337 CURVE",
"130 324 OFFCURVE",
"65 258 OFFCURVE",
"65 167 CURVE SMOOTH",
"65 63 OFFCURVE",
"142 -3 OFFCURVE",
"247 -3 CURVE SMOOTH"
);
},
{
closed = 1;
nodes = (
"145 3 OFFCURVE",
"70 66 OFFCURVE",
"70 167 CURVE SMOOTH",
"70 264 OFFCURVE",
"149 334 OFFCURVE",
"247 334 CURVE SMOOTH",
"345 334 OFFCURVE",
"425 264 OFFCURVE",
"425 167 CURVE SMOOTH",
"425 66 OFFCURVE",
"349 3 OFFCURVE",
"247 3 CURVE SMOOTH"
);
},
{
closed = 1;
nodes = (
"165 339 OFFCURVE",
"104 405 OFFCURVE",
"104 468 CURVE SMOOTH",
"104 532 OFFCURVE",
"166 598 OFFCURVE",
"247 598 CURVE SMOOTH",
"328 598 OFFCURVE",
"391 532 OFFCURVE",
"391 468 CURVE SMOOTH",
"391 404 OFFCURVE",
"328 339 OFFCURVE",
"247 339 CURVE SMOOTH"
);
}
);
width = 500;
},
{
hints = (
{
horizontal = 1;
place = "{-10, 71}";
type = Stem;
},
{
horizontal = 1;
place = "{350, 70}";
type = Stem;
},
{
horizontal = 1;
place = "{671, 69}";
type = Stem;
},
{
place = "{48, 75}";
type = Stem;
},
{
place = "{465, 75}";
type = Stem;
},
{
place = "{70, 72}";
type = Stem;
},
{
place = "{447, 73}";
type = Stem;
}
);
layerId = "8609C873-3DB2-4A65-A2BD-5F22606290B7";
paths = (
{
closed = 1;
nodes = (
"406 -15 OFFCURVE",
"486 65 OFFCURVE",
"486 179 CURVE SMOOTH",
"486 252 OFFCURVE",
"433 322 OFFCURVE",
"371 336 CURVE",
"412 352 OFFCURVE",
"446 412 OFFCURVE",
"446 465 CURVE SMOOTH",
"446 548 OFFCURVE",
"366 617 OFFCURVE",
"270 617 CURVE SMOOTH",
"174 617 OFFCURVE",
"94 548 OFFCURVE",
"94 465 CURVE SMOOTH",
"94 412 OFFCURVE",
"128 352 OFFCURVE",
"169 336 CURVE",
"107 322 OFFCURVE",
"54 252 OFFCURVE",
"54 179 CURVE SMOOTH",
"54 65 OFFCURVE",
"134 -15 OFFCURVE",
"270 -15 CURVE SMOOTH"
);
},
{
closed = 1;
nodes = (
"187 60 OFFCURVE",
"129 114 OFFCURVE",
"129 179 CURVE SMOOTH",
"129 254 OFFCURVE",
"209 300 OFFCURVE",
"270 300 CURVE SMOOTH",
"331 300 OFFCURVE",
"411 254 OFFCURVE",
"411 179 CURVE SMOOTH",
"411 114 OFFCURVE",
"353 60 OFFCURVE",
"270 60 CURVE SMOOTH"
);
},
{
closed = 1;
nodes = (
"209 369 OFFCURVE",
"169 409 OFFCURVE",
"169 465 CURVE SMOOTH",
"169 507 OFFCURVE",
"215 542 OFFCURVE",
"270 542 CURVE SMOOTH",
"325 542 OFFCURVE",
"371 507 OFFCURVE",
"371 465 CURVE SMOOTH",
"371 409 OFFCURVE",
"331 369 OFFCURVE",
"270 369 CURVE SMOOTH"
);
}
);
width = 540;
},
{
layerId = "F5FC6CB4-8346-45E7-8DEF-2B856C43F982";
paths = (
{
closed = 1;
nodes = (
"474 -28 OFFCURVE",
"592 62 OFFCURVE",
"592 184 CURVE SMOOTH",
"592 246 OFFCURVE",
"565 296 OFFCURVE",
"501 333 CURVE",
"545 359 OFFCURVE",
"558 393 OFFCURVE",
"558 433 CURVE SMOOTH",
"558 526 OFFCURVE",
"452 630 OFFCURVE",
"297 630 CURVE SMOOTH",
"142 630 OFFCURVE",
"36 526 OFFCURVE",
"36 433 CURVE SMOOTH",
"36 393 OFFCURVE",
"49 359 OFFCURVE",
"93 333 CURVE",
"29 296 OFFCURVE",
"2 246 OFFCURVE",
"2 184 CURVE SMOOTH",
"2 62 OFFCURVE",
"120 -28 OFFCURVE",
"297 -28 CURVE SMOOTH"
);
},
{
closed = 1;
nodes = (
"245 162 OFFCURVE",
"212 191 OFFCURVE",
"212 214 CURVE SMOOTH",
"212 240 OFFCURVE",
"249 268 OFFCURVE",
"297 268 CURVE SMOOTH",
"345 268 OFFCURVE",
"382 240 OFFCURVE",
"382 214 CURVE SMOOTH",
"382 191 OFFCURVE",
"349 162 OFFCURVE",
"297 162 CURVE SMOOTH"
);
},
{
closed = 1;
nodes = (
"265 380 OFFCURVE",
"246 394 OFFCURVE",
"246 410 CURVE SMOOTH",
"246 425 OFFCURVE",
"265 440 OFFCURVE",
"297 440 CURVE SMOOTH",
"329 440 OFFCURVE",
"348 425 OFFCURVE",
"348 410 CURVE SMOOTH",
"348 394 OFFCURVE",
"329 380 OFFCURVE",
"297 380 CURVE SMOOTH"
);
}
);
width = 594;
}
);
unicode = 0038;
},
{
glyphname = nine;
lastChange = "2019-11-26 10:54:32 +0000";
layers = (
{
hints = (
{
horizontal = 1;
place = "{0, 21}";
target = up;
type = BottomGhost;
},
{
horizontal = 1;
place = "{255, 71}";
type = Stem;
},
{
horizontal = 1;
place = "{669, 71}";
type = Stem;
},
{
place = "{47, 76}";
type = Stem;
},
{
place = "{465, 76}";
type = Stem;
}
);
layerId = "3BB9E4C4-DEF2-48EE-A047-AEFABDBAAE6E";
paths = (
{
closed = 1;
nodes = (
"344 255 OFFCURVE",
"440 329 OFFCURVE",
"440 420 CURVE",
"440 522 OFFCURVE",
"358 608 OFFCURVE",
"259 608 CURVE SMOOTH",
"145 608 OFFCURVE",
"78 526 OFFCURVE",
"78 429 CURVE SMOOTH",
"78 331 OFFCURVE",
"156 255 OFFCURVE",
"259 255 CURVE SMOOTH"
);
},
{
closed = 1;
nodes = (
"358 95 OFFCURVE",
"440 246 OFFCURVE",
"440 420 CURVE",
"435 420 LINE",
"435 237 OFFCURVE",
"342 91 OFFCURVE",
"190 0 CURVE",
"193 -4 LINE"
);
},
{
closed = 1;
nodes = (
"159 260 OFFCURVE",
"83 334 OFFCURVE",
"83 429 CURVE SMOOTH",
"83 524 OFFCURVE",
"147 603 OFFCURVE",
"259 603 CURVE SMOOTH",
"355 603 OFFCURVE",
"435 519 OFFCURVE",
"435 420 CURVE SMOOTH",
"435 329 OFFCURVE",
"339 260 OFFCURVE",
"259 260 CURVE SMOOTH"
);
}
);
width = 540;
},
{
hints = (
{
horizontal = 1;
place = "{0, 21}";
target = up;
type = BottomGhost;
},
{
horizontal = 1;
place = "{255, 71}";
type = Stem;
},
{
horizontal = 1;
place = "{669, 71}";
type = Stem;
},
{
place = "{47, 76}";
type = Stem;
},
{
place = "{465, 76}";
type = Stem;
}
);
layerId = "8609C873-3DB2-4A65-A2BD-5F22606290B7";
paths = (
{
closed = 1;
nodes = (
"384 196 OFFCURVE",
"472 296 OFFCURVE",
"472 408 CURVE",
"472 531 OFFCURVE",
"375 625 OFFCURVE",
"254 625 CURVE",
"135 625 OFFCURVE",
"50 532 OFFCURVE",
"50 402 CURVE",
"50 290 OFFCURVE",
"143 196 OFFCURVE",
"261 196 CURVE SMOOTH"
);
},
{
closed = 1;
nodes = (
"350 91 OFFCURVE",
"472 251 OFFCURVE",
"472 408 CURVE",
"397 408 LINE",
"397 251 OFFCURVE",
"281 138 OFFCURVE",
"168 19 CURVE",
"221 -35 LINE"
);
},
{
closed = 1;
nodes = (
"187 271 OFFCURVE",
"125 328 OFFCURVE",
"125 402 CURVE",
"125 490 OFFCURVE",
"176 550 OFFCURVE",
"254 550 CURVE",
"331 550 OFFCURVE",
"397 492 OFFCURVE",
"397 408 CURVE",
"397 326 OFFCURVE",
"343 271 OFFCURVE",
"261 271 CURVE"
);
}
);
width = 540;
},
{
layerId = "F5FC6CB4-8346-45E7-8DEF-2B856C43F982";
paths = (
{
closed = 1;
nodes = (
"439 152 OFFCURVE",
"552 260 OFFCURVE",
"552 357 CURVE",
"552 527 OFFCURVE",
"430 630 OFFCURVE",
"279 630 CURVE SMOOTH",
"121 630 OFFCURVE",
"5 510 OFFCURVE",
"5 389 CURVE SMOOTH",
"5 240 OFFCURVE",
"125 152 OFFCURVE",
"279 152 CURVE SMOOTH"
);
},
{
closed = 1;
nodes = (
"444 94 OFFCURVE",
"552 223 OFFCURVE",
"552 357 CURVE",
"382 357 LINE",
"382 221 OFFCURVE",
"198 39 OFFCURVE",
"164 0 CURVE",
"354 0 LINE"
);
},
{
closed = 1;
nodes = (
"225 362 OFFCURVE",
"195 375 OFFCURVE",
"195 389 CURVE SMOOTH",
"195 403 OFFCURVE",
"225 420 OFFCURVE",
"279 420 CURVE SMOOTH",
"338 420 OFFCURVE",
"362 403 OFFCURVE",
"362 389 CURVE SMOOTH",
"362 375 OFFCURVE",
"338 362 OFFCURVE",
"279 362 CURVE SMOOTH"
);
}
);
width = 560;
},
{
associatedMasterId = "8609C873-3DB2-4A65-A2BD-5F22606290B7";
hints = (
{
horizontal = 1;
place = "{0, 21}";
target = up;
type = BottomGhost;
},
{
horizontal = 1;
place = "{18.889, 5.259}";
type = Stem;
},
{
horizontal = 1;
place = "{49.556, 5.259}";
type = Stem;
},
{
place = "{3.481, 5.63}";
type = Stem;
},
{
place = "{34.444, 5.63}";
type = Stem;
}
);
layerId = "992161E1-6778-4684-BAC8-05B891124E4B";
name = "{200}";
paths = (
{
closed = 1;
nodes = (
"435 155 OFFCURVE",
"546 263 OFFCURVE",
"546 361 CURVE",
"546 527 OFFCURVE",
"426 630 OFFCURVE",
"277 630 CURVE",
"122 630 OFFCURVE",
"8 512 OFFCURVE",
"8 390 CURVE",
"8 244 OFFCURVE",
"126 155 OFFCURVE",
"278 155 CURVE SMOOTH"
);
},
{
closed = 1;
nodes = (
"422 78 OFFCURVE",
"546 244 OFFCURVE",
"546 361 CURVE",
"354 361 LINE",
"338 210 OFFCURVE",
"231 110 OFFCURVE",
"169 36 CURVE",
"306 -44 LINE"
);
},
{
closed = 1;
nodes = (
"222 355 OFFCURVE",
"190 372 OFFCURVE",
"190 390 CURVE",
"190 409 OFFCURVE",
"221 430 OFFCURVE",
"277 430 CURVE",
"337 430 OFFCURVE",
"365 410 OFFCURVE",
"365 390 CURVE",
"365 371 OFFCURVE",
"338 355 OFFCURVE",
"278 355 CURVE"
);
}
);
width = 559;
}
);
unicode = 0039;
},
{
glyphname = period;
lastChange = "2019-10-27 17:45:02 +0000";
layers = (
{
layerId = "3BB9E4C4-DEF2-48EE-A047-AEFABDBAAE6E";
paths = (
{
closed = 1;
nodes = (
"71 0 OFFCURVE",
"76 -4 OFFCURVE",
"82 -4 CURVE SMOOTH",
"88 -4 OFFCURVE",
"93 0 OFFCURVE",
"93 7 CURVE SMOOTH",
"93 13 OFFCURVE",
"89 18 OFFCURVE",
"82 18 CURVE SMOOTH",
"75 18 OFFCURVE",
"71 13 OFFCURVE",
"71 7 CURVE SMOOTH"
);
}
);
width = 163;
},
{
layerId = "8609C873-3DB2-4A65-A2BD-5F22606290B7";
paths = (
{
closed = 1;
nodes = (
"45 17 OFFCURVE",
"70 -10 OFFCURVE",
"106 -10 CURVE SMOOTH",
"142 -10 OFFCURVE",
"168 17 OFFCURVE",
"168 52 CURVE SMOOTH",
"168 87 OFFCURVE",
"142 113 OFFCURVE",
"106 113 CURVE SMOOTH",
"72 113 OFFCURVE",
"45 87 OFFCURVE",
"45 52 CURVE SMOOTH"
);
}
);
width = 213;
},
{
layerId = "F5FC6CB4-8346-45E7-8DEF-2B856C43F982";
paths = (
{
closed = 1;
nodes = (
"8 38 OFFCURVE",
"54 -8 OFFCURVE",
"122 -8 CURVE SMOOTH",
"190 -8 OFFCURVE",
"236 38 OFFCURVE",
"236 105 CURVE SMOOTH",
"236 173 OFFCURVE",
"190 220 OFFCURVE",
"122 220 CURVE SMOOTH",
"55 220 OFFCURVE",
"8 173 OFFCURVE",
"8 105 CURVE SMOOTH"
);
}
);
width = 244;
}
);
leftKerningGroup = periodR;
unicode = 002E;
},
{
glyphname = comma;
lastChange = "2019-10-21 20:13:34 +0000";
layers = (
{
layerId = "3BB9E4C4-DEF2-48EE-A047-AEFABDBAAE6E";
paths = (
{
closed = 1;
nodes = (
"42 -118 LINE",
"94 88 LINE",
"90 88 LINE",
"37 -118 LINE"
);
}
);
width = 163;
},
{
layerId = "8609C873-3DB2-4A65-A2BD-5F22606290B7";
paths = (
{
closed = 1;
nodes = (
"94 -117 LINE",
"159 87 LINE",
"71 87 LINE",
"32 -117 LINE"
);
}
);
width = 213;
},
{
layerId = "F5FC6CB4-8346-45E7-8DEF-2B856C43F982";
paths = (
{
closed = 1;
nodes = (
"168 -114 LINE",
"251 212 LINE",
"43 212 LINE",
"-4 -114 LINE"
);
}
);
width = 255;
}
);
leftKerningGroup = periodR;
unicode = 002C;
},
{
glyphname = colon;
lastChange = "2019-10-14 00:40:42 +0000";
layers = (
{
layerId = "3BB9E4C4-DEF2-48EE-A047-AEFABDBAAE6E";
paths = (
{
closed = 1;
nodes = (
"87 426 OFFCURVE",
"92 430 OFFCURVE",
"92 437 CURVE SMOOTH",
"92 443 OFFCURVE",
"88 448 OFFCURVE",
"81 448 CURVE SMOOTH",
"74 448 OFFCURVE",
"70 443 OFFCURVE",
"70 437 CURVE SMOOTH",
"70 430 OFFCURVE",
"75 426 OFFCURVE",
"81 426 CURVE SMOOTH"
);
},
{
closed = 1;
nodes = (
"87 -4 OFFCURVE",
"92 0 OFFCURVE",
"92 7 CURVE SMOOTH",
"92 13 OFFCURVE",
"88 18 OFFCURVE",
"81 18 CURVE SMOOTH",
"74 18 OFFCURVE",
"70 13 OFFCURVE",
"70 7 CURVE SMOOTH",
"70 0 OFFCURVE",
"75 -4 OFFCURVE",
"81 -4 CURVE SMOOTH"
);
}
);
width = 162;
},
{
layerId = "8609C873-3DB2-4A65-A2BD-5F22606290B7";
paths = (
{
closed = 1;
nodes = (
"142 333 OFFCURVE",
"168 360 OFFCURVE",
"168 395 CURVE SMOOTH",
"168 430 OFFCURVE",
"142 456 OFFCURVE",
"106 456 CURVE SMOOTH",
"72 456 OFFCURVE",
"45 430 OFFCURVE",
"45 395 CURVE SMOOTH",
"45 360 OFFCURVE",
"70 333 OFFCURVE",
"106 333 CURVE SMOOTH"
);
},
{
closed = 1;
nodes = (
"142 -10 OFFCURVE",
"168 17 OFFCURVE",
"168 52 CURVE SMOOTH",
"168 87 OFFCURVE",
"142 113 OFFCURVE",
"106 113 CURVE SMOOTH",
"72 113 OFFCURVE",
"45 87 OFFCURVE",
"45 52 CURVE SMOOTH",
"45 17 OFFCURVE",
"70 -10 OFFCURVE",
"106 -10 CURVE SMOOTH"
);
}
);
width = 213;
},
{
layerId = "F5FC6CB4-8346-45E7-8DEF-2B856C43F982";
paths = (
{
closed = 1;
nodes = (
"190 272 OFFCURVE",
"236 318 OFFCURVE",
"236 385 CURVE SMOOTH",
"236 453 OFFCURVE",
"190 500 OFFCURVE",
"122 500 CURVE SMOOTH",
"55 500 OFFCURVE",
"8 453 OFFCURVE",
"8 385 CURVE SMOOTH",
"8 318 OFFCURVE",
"54 272 OFFCURVE",
"122 272 CURVE SMOOTH"
);
},
{
closed = 1;
nodes = (
"190 -8 OFFCURVE",
"236 38 OFFCURVE",
"236 105 CURVE SMOOTH",
"236 173 OFFCURVE",
"190 220 OFFCURVE",
"122 220 CURVE SMOOTH",
"55 220 OFFCURVE",
"8 173 OFFCURVE",
"8 105 CURVE SMOOTH",
"8 38 OFFCURVE",
"54 -8 OFFCURVE",
"122 -8 CURVE SMOOTH"
);
}
);
width = 244;
}
);
unicode = 003A;
},
{
glyphname = semicolon;
lastChange = "2019-10-14 00:40:41 +0000";
layers = (
{
layerId = "3BB9E4C4-DEF2-48EE-A047-AEFABDBAAE6E";
paths = (
{
closed = 1;
nodes = (
"42 -118 LINE",
"94 128 LINE",
"90 128 LINE",
"37 -118 LINE"
);
},
{
closed = 1;
nodes = (
"87 426 OFFCURVE",
"92 430 OFFCURVE",
"92 437 CURVE SMOOTH",
"92 443 OFFCURVE",
"88 448 OFFCURVE",
"81 448 CURVE SMOOTH",
"74 448 OFFCURVE",
"70 443 OFFCURVE",
"70 437 CURVE SMOOTH",
"70 430 OFFCURVE",
"75 426 OFFCURVE",
"81 426 CURVE SMOOTH"
);
}
);
width = 164;
},
{
layerId = "8609C873-3DB2-4A65-A2BD-5F22606290B7";
paths = (
{
closed = 1;
nodes = (
"94 -117 LINE",
"159 87 LINE",
"71 87 LINE",
"32 -117 LINE"
);
},
{
closed = 1;
nodes = (
"142 333 OFFCURVE",
"168 360 OFFCURVE",
"168 395 CURVE SMOOTH",
"168 430 OFFCURVE",
"142 456 OFFCURVE",
"106 456 CURVE SMOOTH",
"72 456 OFFCURVE",
"45 430 OFFCURVE",
"45 395 CURVE SMOOTH",
"45 360 OFFCURVE",
"70 333 OFFCURVE",
"106 333 CURVE SMOOTH"
);
}
);
width = 213;
},
{
layerId = "F5FC6CB4-8346-45E7-8DEF-2B856C43F982";
paths = (
{
closed = 1;
nodes = (
"168 -114 LINE",
"251 212 LINE",
"43 212 LINE",
"-4 -114 LINE"
);
},
{
closed = 1;
nodes = (
"190 272 OFFCURVE",
"236 318 OFFCURVE",
"236 385 CURVE SMOOTH",
"236 453 OFFCURVE",
"190 500 OFFCURVE",
"122 500 CURVE SMOOTH",
"55 500 OFFCURVE",
"8 453 OFFCURVE",
"8 385 CURVE SMOOTH",
"8 318 OFFCURVE",
"54 272 OFFCURVE",
"122 272 CURVE SMOOTH"
);
}
);
width = 259;
}
);
unicode = 003B;
},
{
glyphname = exclam;
lastChange = "2019-10-14 00:44:30 +0000";
layers = (
{
layerId = "3BB9E4C4-DEF2-48EE-A047-AEFABDBAAE6E";
paths = (
{
closed = 1;
nodes = (
"84 108 LINE",
"84 244 OFFCURVE",
"83 395 OFFCURVE",
"83 482 CURVE SMOOTH",
"83 599 LINE",
"78 599 LINE",
"78 482 LINE SMOOTH",
"78 395 OFFCURVE",
"79 244 OFFCURVE",
"79 108 CURVE"
);
},
{
closed = 1;
nodes = (
"87 -4 OFFCURVE",
"92 0 OFFCURVE",
"92 7 CURVE SMOOTH",
"92 13 OFFCURVE",
"88 18 OFFCURVE",
"81 18 CURVE SMOOTH",
"74 18 OFFCURVE",
"70 13 OFFCURVE",
"70 7 CURVE SMOOTH",
"70 0 OFFCURVE",
"75 -4 OFFCURVE",
"81 -4 CURVE SMOOTH"
);
}
);
width = 162;
},
{
layerId = "8609C873-3DB2-4A65-A2BD-5F22606290B7";
paths = (
{
closed = 1;
nodes = (
"143 178 LINE",
"152 273 OFFCURVE",
"160 404 OFFCURVE",
"160 482 CURVE SMOOTH",
"160 599 LINE",
"82 599 LINE",
"82 482 LINE SMOOTH",
"82 404 OFFCURVE",
"90 273 OFFCURVE",
"99 178 CURVE"
);
},
{
closed = 1;
nodes = (
"60 17 OFFCURVE",
"85 -10 OFFCURVE",
"121 -10 CURVE SMOOTH",
"157 -10 OFFCURVE",
"183 17 OFFCURVE",
"183 52 CURVE SMOOTH",
"183 87 OFFCURVE",
"157 113 OFFCURVE",
"121 113 CURVE SMOOTH",
"87 113 OFFCURVE",
"60 87 OFFCURVE",
"60 52 CURVE SMOOTH"
);
}
);
width = 240;
},
{
layerId = "F5FC6CB4-8346-45E7-8DEF-2B856C43F982";
paths = (
{
closed = 1;
nodes = (
"200 238 LINE",
"209 353 OFFCURVE",
"217 404 OFFCURVE",
"217 482 CURVE SMOOTH",
"217 599 LINE",
"27 599 LINE",
"27 482 LINE SMOOTH",
"27 404 OFFCURVE",
"35 353 OFFCURVE",
"44 238 CURVE"
);
},
{
closed = 1;
nodes = (
"190 -8 OFFCURVE",
"236 38 OFFCURVE",
"236 105 CURVE SMOOTH",
"236 173 OFFCURVE",
"190 220 OFFCURVE",
"122 220 CURVE SMOOTH",
"55 220 OFFCURVE",
"8 173 OFFCURVE",
"8 105 CURVE SMOOTH",
"8 38 OFFCURVE",
"54 -8 OFFCURVE",
"122 -8 CURVE SMOOTH"
);
}
);
width = 244;
}
);
unicode = 0021;
},
{
glyphname = question;
lastChange = "2019-11-26 10:54:32 +0000";
layers = (
{
layerId = "3BB9E4C4-DEF2-48EE-A047-AEFABDBAAE6E";
paths = (
{
closed = 1;
nodes = (
"264 122 LINE",
"263 131 LINE",
"263 262 OFFCURVE",
"479 299 OFFCURVE",
"479 447 CURVE SMOOTH",
"479 542 OFFCURVE",
"388 621 OFFCURVE",
"281 621 CURVE SMOOTH",
"185 621 OFFCURVE",
"106 561 OFFCURVE",
"70 490 CURVE",
"74 488 LINE",
"110 557 OFFCURVE",
"187 616 OFFCURVE",
"281 616 CURVE SMOOTH",
"386 616 OFFCURVE",
"474 539 OFFCURVE",
"473 447 CURVE SMOOTH",
"473 303 OFFCURVE",
"259 266 OFFCURVE",
"259 131 CURVE SMOOTH",
"259 122 LINE"
);
},
{
closed = 1;
nodes = (
"269 -4 OFFCURVE",
"274 0 OFFCURVE",
"274 7 CURVE SMOOTH",
"274 13 OFFCURVE",
"270 18 OFFCURVE",
"263 18 CURVE SMOOTH",
"256 18 OFFCURVE",
"252 13 OFFCURVE",
"252 7 CURVE SMOOTH",
"252 0 OFFCURVE",
"257 -4 OFFCURVE",
"263 -4 CURVE SMOOTH"
);
}
);
width = 549;
},
{
layerId = "8609C873-3DB2-4A65-A2BD-5F22606290B7";
paths = (
{
closed = 1;
nodes = (
"293 180 LINE",
"293 189 LINE SMOOTH",
"293 322 OFFCURVE",
"470 300 OFFCURVE",
"470 447 CURVE SMOOTH",
"470 544 OFFCURVE",
"377 618 OFFCURVE",
"275 618 CURVE SMOOTH",
"180 618 OFFCURVE",
"102 559 OFFCURVE",
"66 489 CURVE",
"135 457 LINE",
"166 511 OFFCURVE",
"208 550 OFFCURVE",
"274 550 CURVE SMOOTH",
"331 550 OFFCURVE",
"391 502 OFFCURVE",
"391 448 CURVE SMOOTH",
"391 344 OFFCURVE",
"222 356 OFFCURVE",
"222 189 CURVE SMOOTH",
"222 180 LINE"
);
},
{
closed = 1;
nodes = (
"294 -10 OFFCURVE",
"320 17 OFFCURVE",
"320 52 CURVE SMOOTH",
"320 87 OFFCURVE",
"294 113 OFFCURVE",
"258 113 CURVE SMOOTH",
"224 113 OFFCURVE",
"197 87 OFFCURVE",
"197 52 CURVE SMOOTH",
"197 17 OFFCURVE",
"222 -10 OFFCURVE",
"258 -10 CURVE SMOOTH"
);
}
);
width = 547;
},
{
layerId = "F5FC6CB4-8346-45E7-8DEF-2B856C43F982";
paths = (
{
closed = 1;
nodes = (
"285 237 LINE",
"285 245 LINE SMOOTH",
"285 347 OFFCURVE",
"433 303 OFFCURVE",
"433 439 CURVE SMOOTH",
"433 562 OFFCURVE",
"301 634 OFFCURVE",
"190 634 CURVE SMOOTH",
"100 634 OFFCURVE",
"63 626 OFFCURVE",
"8 595 CURVE",
"8 419 LINE",
"76 448 OFFCURVE",
"120 457 OFFCURVE",
"172 457 CURVE SMOOTH",
"208 457 OFFCURVE",
"243 444 OFFCURVE",
"243 424 CURVE SMOOTH",
"243 394 OFFCURVE",
"95 418 OFFCURVE",
"95 245 CURVE SMOOTH",
"95 237 LINE"
);
},
{
closed = 1;
nodes = (
"258 -8 OFFCURVE",
"304 38 OFFCURVE",
"304 105 CURVE SMOOTH",
"304 173 OFFCURVE",
"258 220 OFFCURVE",
"190 220 CURVE SMOOTH",
"123 220 OFFCURVE",
"76 173 OFFCURVE",
"76 105 CURVE SMOOTH",
"76 38 OFFCURVE",
"122 -8 OFFCURVE",
"190 -8 CURVE SMOOTH"
);
}
);
width = 441;
}
);
unicode = 003F;
},
{
glyphname = periodcentered;
lastChange = "2019-10-14 00:53:30 +0000";
layers = (
{
layerId = "3BB9E4C4-DEF2-48EE-A047-AEFABDBAAE6E";
paths = (
{
closed = 1;
nodes = (
"87 274 OFFCURVE",
"92 278 OFFCURVE",
"92 285 CURVE SMOOTH",
"92 291 OFFCURVE",
"88 296 OFFCURVE",
"81 296 CURVE SMOOTH",
"74 296 OFFCURVE",
"70 291 OFFCURVE",
"70 285 CURVE SMOOTH",
"70 278 OFFCURVE",
"75 274 OFFCURVE",
"81 274 CURVE SMOOTH"
);
}
);
width = 162;
},
{
hints = (
{
horizontal = 1;
place = "{188, 123}";
type = Stem;
},
{
place = "{45, 123}";
type = Stem;
}
);
layerId = "8609C873-3DB2-4A65-A2BD-5F22606290B7";
paths = (
{
closed = 1;
nodes = (
"45 245 OFFCURVE",
"70 218 OFFCURVE",
"106 218 CURVE SMOOTH",
"142 218 OFFCURVE",
"168 245 OFFCURVE",
"168 280 CURVE SMOOTH",
"168 315 OFFCURVE",
"142 341 OFFCURVE",
"106 341 CURVE SMOOTH",
"72 341 OFFCURVE",
"45 315 OFFCURVE",
"45 280 CURVE SMOOTH"
);
}
);
width = 213;
},
{
layerId = "F5FC6CB4-8346-45E7-8DEF-2B856C43F982";
paths = (
{
closed = 1;
nodes = (
"190 166 OFFCURVE",
"236 212 OFFCURVE",
"236 279 CURVE SMOOTH",
"236 347 OFFCURVE",
"190 394 OFFCURVE",
"122 394 CURVE SMOOTH",
"55 394 OFFCURVE",
"8 347 OFFCURVE",
"8 279 CURVE SMOOTH",
"8 212 OFFCURVE",
"54 166 OFFCURVE",
"122 166 CURVE SMOOTH"
);
}
);
width = 244;
}
);
unicode = 00B7;
},
{
glyphname = bullet;
lastChange = "2019-10-14 00:54:07 +0000";
layers = (
{
layerId = "3BB9E4C4-DEF2-48EE-A047-AEFABDBAAE6E";
paths = (
{
closed = 1;
nodes = (
"118 241 OFFCURVE",
"138 257 OFFCURVE",
"138 285 CURVE SMOOTH",
"138 309 OFFCURVE",
"122 329 OFFCURVE",
"94 329 CURVE SMOOTH",
"66 329 OFFCURVE",
"50 309 OFFCURVE",
"50 285 CURVE SMOOTH",
"50 257 OFFCURVE",
"70 241 OFFCURVE",
"94 241 CURVE SMOOTH"
);
}
);
width = 188;
},
{
hints = (
{
horizontal = 1;
place = "{177, 146}";
type = Stem;
},
{
place = "{95, 146}";
type = Stem;
}
);
layerId = "8609C873-3DB2-4A65-A2BD-5F22606290B7";
paths = (
{
closed = 1;
nodes = (
"228 161 OFFCURVE",
"278 210 OFFCURVE",
"278 270 CURVE SMOOTH",
"278 330 OFFCURVE",
"228 380 OFFCURVE",
"168 380 CURVE SMOOTH",
"108 380 OFFCURVE",
"59 330 OFFCURVE",
"59 270 CURVE SMOOTH",
"59 210 OFFCURVE",
"108 161 OFFCURVE",
"168 161 CURVE SMOOTH"
);
}
);
width = 335;
},
{
layerId = "F5FC6CB4-8346-45E7-8DEF-2B856C43F982";
paths = (
{
closed = 1;
nodes = (
"281 109 OFFCURVE",
"350 178 OFFCURVE",
"350 279 CURVE SMOOTH",
"350 381 OFFCURVE",
"281 451 OFFCURVE",
"179 451 CURVE SMOOTH",
"79 451 OFFCURVE",
"8 381 OFFCURVE",
"8 279 CURVE SMOOTH",
"8 178 OFFCURVE",
"77 109 OFFCURVE",
"179 109 CURVE SMOOTH"
);
}
);
width = 358;
}
);
unicode = 2022;
},
{
glyphname = asterisk;
lastChange = "2019-11-26 10:54:32 +0000";
layers = (
{
layerId = "3BB9E4C4-DEF2-48EE-A047-AEFABDBAAE6E";
paths = (
{
closed = 1;
nodes = (
"375 409 LINE",
"377 413 LINE",
"226 499 LINE",
"375 584 LINE",
"373 588 LINE",
"225 504 LINE",
"225 671 LINE",
"220 671 LINE",
"220 503 LINE",
"72 588 LINE",
"70 584 LINE",
"217 499 LINE",
"71 416 LINE",
"73 412 LINE",
"220 496 LINE",
"220 318 LINE",
"225 318 LINE",
"225 495 LINE"
);
}
);
width = 447;
},
{
hints = (
{
horizontal = 1;
place = "{730, -20}";
target = down;
type = TopGhost;
},
{
place = "{47, 341}";
type = Stem;
},
{
horizontal = 1;
place = "{376, 354}";
type = Stem;
}
);
layerId = "8609C873-3DB2-4A65-A2BD-5F22606290B7";
paths = (
{
closed = 1;
nodes = (
"352 376 LINE",
"388 436 LINE",
"252 494 LINE",
"388 552 LINE",
"353 612 LINE",
"235 524 LINE",
"253 670 LINE",
"183 670 LINE",
"200 524 LINE",
"82 613 LINE",
"47 554 LINE",
"183 494 LINE",
"47 436 LINE",
"81 375 LINE",
"200 464 LINE",
"183 316 LINE",
"253 316 LINE",
"235 464 LINE"
);
}
);
width = 436;
},
{
layerId = "F5FC6CB4-8346-45E7-8DEF-2B856C43F982";
paths = (
{
closed = 1;
nodes = (
"386 265 LINE",
"481 430 LINE",
"388 453 LINE",
"481 476 LINE",
"386 641 LINE",
"311 563 LINE",
"342 671 LINE",
"152 671 LINE",
"181 570 LINE",
"106 645 LINE",
"12 481 LINE",
"119 453 LINE",
"12 424 LINE",
"107 260 LINE",
"177 330 LINE",
"152 238 LINE",
"342 238 LINE",
"315 339 LINE"
);
}
);
width = 493;
}
);
unicode = 002A;
},
{
glyphname = numbersign;
lastChange = "2019-11-26 10:54:32 +0000";
layers = (
{
layerId = "3BB9E4C4-DEF2-48EE-A047-AEFABDBAAE6E";
paths = (
{
closed = 1;
nodes = (
"447 -61 LINE",
"548 640 LINE",
"544 640 LINE",
"443 -61 LINE"
);
},
{
closed = 1;
nodes = (
"202 -61 LINE",
"302 640 LINE",
"298 640 LINE",
"198 -61 LINE"
);
},
{
closed = 1;
nodes = (
"677 165 LINE",
"677 170 LINE",
"62 170 LINE",
"62 165 LINE"
);
},
{
closed = 1;
nodes = (
"677 410 LINE",
"677 415 LINE",
"62 415 LINE",
"62 410 LINE"
);
}
);
width = 740;
},
{
hints = (
{
horizontal = 1;
place = "{0, 263}";
type = Stem;
},
{
horizontal = 1;
place = "{473, 75}";
type = Stem;
},
{
place = "{236, 78}";
type = Stem;
},
{
place = "{520, 78}";
type = Stem;
},
{
horizontal = 1;
place = "{188, 75}";
type = Stem;
},
{
horizontal = 1;
place = "{473, 257}";
type = Stem;
}
);
layerId = "8609C873-3DB2-4A65-A2BD-5F22606290B7";
paths = (
{
closed = 1;
nodes = (
"478 -60 LINE",
"578 640 LINE",
"498 640 LINE",
"398 -60 LINE"
);
},
{
closed = 1;
nodes = (
"234 -60 LINE",
"334 640 LINE",
"254 640 LINE",
"154 -60 LINE"
);
},
{
closed = 1;
nodes = (
"680 128 LINE",
"680 205 LINE",
"65 205 LINE",
"65 128 LINE"
);
},
{
closed = 1;
nodes = (
"680 373 LINE",
"680 450 LINE",
"65 450 LINE",
"65 373 LINE"
);
}
);
width = 743;
},
{
layerId = "F5FC6CB4-8346-45E7-8DEF-2B856C43F982";
paths = (
{
closed = 1;
nodes = (
"484 -46 LINE",
"581 629 LINE",
"389 629 LINE",
"292 -46 LINE"
);
},
{
closed = 1;
nodes = (
"239 -46 LINE",
"336 629 LINE",
"144 629 LINE",
"47 -46 LINE"
);
},
{
closed = 1;
nodes = (
"628 62 LINE",
"628 272 LINE",
"13 272 LINE",
"13 62 LINE"
);
},
{
closed = 1;
nodes = (
"628 307 LINE",
"628 517 LINE",
"13 517 LINE",
"13 307 LINE"
);
}
);
width = 641;
}
);
unicode = 0023;
},
{
glyphname = slash;
lastChange = "2019-10-14 08:17:30 +0000";
layers = (
{
layerId = "3BB9E4C4-DEF2-48EE-A047-AEFABDBAAE6E";
paths = (
{
closed = 1;
nodes = (
"75 -184 LINE",
"347 730 LINE",
"343 730 LINE",
"70 -184 LINE"
);
}
);
width = 417;
},
{
hints = (
{
horizontal = 1;
place = "{0, 21}";
target = up;
type = BottomGhost;
},
{
horizontal = 1;
place = "{730, -20}";
target = down;
type = TopGhost;
},
{
place = "{27, 429}";
type = Stem;
}
);
layerId = "8609C873-3DB2-4A65-A2BD-5F22606290B7";
paths = (
{
closed = 1;
nodes = (
"88 -185 LINE",
"361 730 LINE",
"280 730 LINE",
"7 -185 LINE"
);
}
);
width = 392;
},
{
layerId = "F5FC6CB4-8346-45E7-8DEF-2B856C43F982";
paths = (
{
closed = 1;
nodes = (
"204 -185 LINE",
"477 730 LINE",
"277 730 LINE",
"4 -185 LINE"
);
}
);
width = 481;
}
);
unicode = 002F;
},
{
glyphname = backslash;
lastChange = "2019-10-14 08:18:30 +0000";
layers = (
{
layerId = "3BB9E4C4-DEF2-48EE-A047-AEFABDBAAE6E";
paths = (
{
closed = 1;
nodes = (
"74 730 LINE",
"70 730 LINE",
"342 -184 LINE",
"347 -184 LINE"
);
}
);
width = 417;
},
{
hints = (
{
horizontal = 1;
place = "{0, 21}";
target = up;
type = BottomGhost;
},
{
horizontal = 1;
place = "{730, -20}";
target = down;
type = TopGhost;
},
{
place = "{27, 429}";
type = Stem;
}
);
layerId = "8609C873-3DB2-4A65-A2BD-5F22606290B7";
paths = (
{
closed = 1;
nodes = (
"421 -185 LINE",
"148 730 LINE",
"67 730 LINE",
"340 -185 LINE"
);
}
);
width = 482;
},
{
layerId = "F5FC6CB4-8346-45E7-8DEF-2B856C43F982";
paths = (
{
closed = 1;
nodes = (
"477 -185 LINE",
"204 730 LINE",
"4 730 LINE",
"277 -185 LINE"
);
}
);
width = 481;
}
);
unicode = 005C;
},
{
glyphname = parenleft;
lastChange = "2019-10-14 08:23:46 +0000";
layers = (
{
layerId = "3BB9E4C4-DEF2-48EE-A047-AEFABDBAAE6E";
paths = (
{
closed = 1;
nodes = (
"263 -226 LINE",
"161 -140 OFFCURVE",
"55 12 OFFCURVE",
"55 249 CURVE SMOOTH",
"55 487 OFFCURVE",
"162 635 OFFCURVE",
"261 725 CURVE",
"254 725 LINE",
"158 639 OFFCURVE",
"50 489 OFFCURVE",
"50 249 CURVE SMOOTH",
"50 10 OFFCURVE",
"157 -144 OFFCURVE",
"256 -226 CURVE"
);
}
);
width = 353;
},
{
hints = (
{
horizontal = 1;
place = "{-247, 995}";
type = Stem;
},
{
place = "{49, 83}";
type = Stem;
}
);
layerId = "8609C873-3DB2-4A65-A2BD-5F22606290B7";
paths = (
{
closed = 1;
nodes = (
"314 -187 LINE",
"219 -88 OFFCURVE",
"135 45 OFFCURVE",
"135 250 CURVE SMOOTH",
"135 454 OFFCURVE",
"220 586 OFFCURVE",
"313 686 CURVE",
"259 747 LINE",
"160 637 OFFCURVE",
"52 488 OFFCURVE",
"52 249 CURVE SMOOTH",
"52 11 OFFCURVE",
"159 -142 OFFCURVE",
"261 -248 CURVE"
);
}
);
width = 391;
},
{
layerId = "F5FC6CB4-8346-45E7-8DEF-2B856C43F982";
paths = (
{
closed = 1;
nodes = (
"334 -148 LINE",
"269 -71 OFFCURVE",
"194 66 OFFCURVE",
"194 249 CURVE SMOOTH",
"194 431 OFFCURVE",
"266 552 OFFCURVE",
"350 666 CURVE",
"168 741 LINE",
"77 621 OFFCURVE",
"4 463 OFFCURVE",
"4 249 CURVE SMOOTH",
"4 32 OFFCURVE",
"82 -137 OFFCURVE",
"169 -250 CURVE"
);
}
);
width = 354;
}
);
unicode = 0028;
},
{
glyphname = parenright;
lastChange = "2019-10-14 08:23:49 +0000";
layers = (
{
layerId = "3BB9E4C4-DEF2-48EE-A047-AEFABDBAAE6E";
paths = (
{
closed = 1;
nodes = (
"156 -144 OFFCURVE",
"263 10 OFFCURVE",
"263 249 CURVE SMOOTH",
"263 489 OFFCURVE",
"155 639 OFFCURVE",
"59 725 CURVE",
"52 725 LINE",
"151 635 OFFCURVE",
"258 487 OFFCURVE",
"258 249 CURVE SMOOTH",
"258 12 OFFCURVE",
"152 -140 OFFCURVE",
"50 -226 CURVE",
"57 -226 LINE"
);
}
);
width = 353;
},
{
hints = (
{
horizontal = 1;
place = "{-248, 995}";
type = Stem;
},
{
place = "{299, 83}";
type = Stem;
}
);
layerId = "8609C873-3DB2-4A65-A2BD-5F22606290B7";
paths = (
{
closed = 1;
nodes = (
"207 -142 OFFCURVE",
"314 11 OFFCURVE",
"314 249 CURVE SMOOTH",
"314 488 OFFCURVE",
"206 637 OFFCURVE",
"107 747 CURVE",
"53 686 LINE",
"146 586 OFFCURVE",
"231 454 OFFCURVE",
"231 250 CURVE SMOOTH",
"231 45 OFFCURVE",
"147 -88 OFFCURVE",
"52 -187 CURVE",
"105 -248 LINE"
);
}
);
width = 391;
},
{
layerId = "F5FC6CB4-8346-45E7-8DEF-2B856C43F982";
paths = (
{
closed = 1;
nodes = (
"272 -137 OFFCURVE",
"350 32 OFFCURVE",
"350 249 CURVE SMOOTH",
"350 463 OFFCURVE",
"277 621 OFFCURVE",
"186 741 CURVE",
"4 666 LINE",
"88 552 OFFCURVE",
"160 431 OFFCURVE",
"160 249 CURVE SMOOTH",
"160 66 OFFCURVE",
"85 -71 OFFCURVE",
"20 -148 CURVE",
"185 -250 LINE"
);
}
);
width = 354;
}
);
unicode = 0029;
},
{
glyphname = braceleft;
lastChange = "2019-11-26 10:53:49 +0000";
layers = (
{
layerId = "3BB9E4C4-DEF2-48EE-A047-AEFABDBAAE6E";
paths = (
{
closed = 1;
nodes = (
"322 -233 LINE",
"322 -228 LINE",
"184 -228 OFFCURVE",
"134 -178 OFFCURVE",
"134 -13 CURVE SMOOTH",
"134 107 LINE SMOOTH",
"134 203 OFFCURVE",
"126 239 OFFCURVE",
"72 248 CURVE",
"126 257 OFFCURVE",
"134 291 OFFCURVE",
"134 380 CURVE SMOOTH",
"134 513 LINE SMOOTH",
"134 676 OFFCURVE",
"182 728 OFFCURVE",
"322 728 CURVE",
"322 733 LINE",
"311 733 LINE SMOOTH",
"178 733 OFFCURVE",
"129 672 OFFCURVE",
"129 513 CURVE SMOOTH",
"129 380 LINE SMOOTH",
"129 268 OFFCURVE",
"116 251 OFFCURVE",
"30 251 CURVE",
"30 246 LINE",
"116 246 OFFCURVE",
"129 228 OFFCURVE",
"129 107 CURVE SMOOTH",
"129 -13 LINE SMOOTH",
"129 -172 OFFCURVE",
"178 -233 OFFCURVE",
"311 -233 CURVE SMOOTH"
);
}
);
width = 392;
},
{
hints = (
{
horizontal = 1;
place = "{-230, 71}";
type = Stem;
},
{
horizontal = 1;
place = "{212, 73}";
type = Stem;
},
{
horizontal = 1;
place = "{659, 71}";
type = Stem;
},
{
place = "{131, 77}";
type = Stem;
}
);
layerId = "8609C873-3DB2-4A65-A2BD-5F22606290B7";
paths = (
{
closed = 1;
nodes = (
"362 -230 LINE",
"362 -159 LINE",
"234 -159 OFFCURVE",
"208 -129 OFFCURVE",
"208 -12 CURVE SMOOTH",
"208 108 LINE SMOOTH",
"208 182 OFFCURVE",
"192 227 OFFCURVE",
"141 248 CURVE",
"191 269 OFFCURVE",
"208 314 OFFCURVE",
"208 389 CURVE SMOOTH",
"208 512 LINE SMOOTH",
"208 629 OFFCURVE",
"234 659 OFFCURVE",
"362 659 CURVE",
"362 730 LINE",
"351 730 LINE SMOOTH",
"184 730 OFFCURVE",
"131 676 OFFCURVE",
"131 513 CURVE SMOOTH",
"131 390 LINE SMOOTH",
"131 312 OFFCURVE",
"121 285 OFFCURVE",
"37 285 CURVE",
"37 212 LINE",
"121 212 OFFCURVE",
"131 185 OFFCURVE",
"131 107 CURVE SMOOTH",
"131 -13 LINE SMOOTH",
"131 -176 OFFCURVE",
"184 -230 OFFCURVE",
"351 -230 CURVE SMOOTH"
);
}
);
width = 403;
},
{
layerId = "F5FC6CB4-8346-45E7-8DEF-2B856C43F982";
paths = (
{
closed = 1;
nodes = (
"373 -245 LINE",
"373 -35 LINE",
"307 -35 OFFCURVE",
"275 -10 OFFCURVE",
"277 47 CURVE SMOOTH",
"278 83 LINE SMOOTH",
"280 159 OFFCURVE",
"241 253 OFFCURVE",
"143 253 CURVE",
"241 253 OFFCURVE",
"277 371 OFFCURVE",
"277 419 CURVE SMOOTH",
"277 440 LINE SMOOTH",
"277 498 OFFCURVE",
"308 535 OFFCURVE",
"373 535 CURVE",
"373 745 LINE",
"362 745 LINE SMOOTH",
"177 745 OFFCURVE",
"87 638 OFFCURVE",
"87 445 CURVE SMOOTH",
"87 408 LINE SMOOTH",
"87 382 OFFCURVE",
"62 355 OFFCURVE",
"4 355 CURVE",
"4 145 LINE",
"41 145 OFFCURVE",
"87 113 OFFCURVE",
"87 77 CURVE",
"87 50 LINE SMOOTH",
"95 -147 OFFCURVE",
"185 -245 OFFCURVE",
"362 -245 CURVE SMOOTH"
);
}
);
width = 381;
}
);
unicode = 007B;
},
{
glyphname = braceright;
lastChange = "2019-10-14 08:34:51 +0000";
layers = (
{
layerId = "3BB9E4C4-DEF2-48EE-A047-AEFABDBAAE6E";
paths = (
{
closed = 1;
nodes = (
"81 -233 LINE SMOOTH",
"214 -233 OFFCURVE",
"263 -172 OFFCURVE",
"263 -13 CURVE SMOOTH",
"263 107 LINE SMOOTH",
"263 228 OFFCURVE",
"276 246 OFFCURVE",
"362 246 CURVE",
"362 251 LINE",
"276 251 OFFCURVE",
"263 268 OFFCURVE",
"263 380 CURVE SMOOTH",
"263 513 LINE SMOOTH",
"263 672 OFFCURVE",
"214 733 OFFCURVE",
"81 733 CURVE SMOOTH",
"70 733 LINE",
"70 728 LINE",
"210 728 OFFCURVE",
"258 676 OFFCURVE",
"258 513 CURVE SMOOTH",
"258 380 LINE SMOOTH",
"258 291 OFFCURVE",
"266 257 OFFCURVE",
"320 248 CURVE",
"266 239 OFFCURVE",
"258 203 OFFCURVE",
"258 107 CURVE SMOOTH",
"258 -13 LINE SMOOTH",
"258 -178 OFFCURVE",
"208 -228 OFFCURVE",
"70 -228 CURVE",
"70 -233 LINE"
);
}
);
width = 392;
},
{
hints = (
{
horizontal = 1;
place = "{-230, 72}";
type = Stem;
},
{
horizontal = 1;
place = "{212, 73}";
type = Stem;
},
{
horizontal = 1;
place = "{658, 72}";
type = Stem;
},
{
place = "{196, 77}";
type = Stem;
}
);
layerId = "8609C873-3DB2-4A65-A2BD-5F22606290B7";
paths = (
{
closed = 1;
nodes = (
"53 -230 LINE SMOOTH",
"220 -230 OFFCURVE",
"273 -176 OFFCURVE",
"273 -13 CURVE SMOOTH",
"273 107 LINE SMOOTH",
"273 185 OFFCURVE",
"283 212 OFFCURVE",
"367 212 CURVE",
"367 285 LINE",
"283 285 OFFCURVE",
"273 312 OFFCURVE",
"273 390 CURVE SMOOTH",
"273 513 LINE SMOOTH",
"273 676 OFFCURVE",
"220 730 OFFCURVE",
"53 730 CURVE SMOOTH",
"42 730 LINE",
"42 658 LINE",
"169 658 OFFCURVE",
"196 629 OFFCURVE",
"196 512 CURVE SMOOTH",
"196 389 LINE SMOOTH",
"196 314 OFFCURVE",
"212 269 OFFCURVE",
"263 248 CURVE",
"211 227 OFFCURVE",
"196 182 OFFCURVE",
"196 108 CURVE SMOOTH",
"196 -12 LINE SMOOTH",
"196 -129 OFFCURVE",
"169 -158 OFFCURVE",
"42 -158 CURVE",
"42 -230 LINE"
);
}
);
width = 403;
},
{
layerId = "F5FC6CB4-8346-45E7-8DEF-2B856C43F982";
paths = (
{
closed = 1;
nodes = (
"19 -245 LINE SMOOTH",
"196 -245 OFFCURVE",
"286 -147 OFFCURVE",
"294 50 CURVE SMOOTH",
"294 77 LINE",
"294 113 OFFCURVE",
"340 145 OFFCURVE",
"377 145 CURVE",
"377 355 LINE",
"319 355 OFFCURVE",
"294 382 OFFCURVE",
"294 408 CURVE SMOOTH",
"294 445 LINE SMOOTH",
"294 638 OFFCURVE",
"204 745 OFFCURVE",
"19 745 CURVE SMOOTH",
"8 745 LINE",
"8 535 LINE",
"73 535 OFFCURVE",
"104 498 OFFCURVE",
"104 440 CURVE SMOOTH",
"104 419 LINE SMOOTH",
"104 371 OFFCURVE",
"140 253 OFFCURVE",
"238 253 CURVE",
"140 253 OFFCURVE",
"101 159 OFFCURVE",
"103 83 CURVE SMOOTH",
"104 47 LINE SMOOTH",
"106 -10 OFFCURVE",
"74 -35 OFFCURVE",
"8 -35 CURVE",
"8 -245 LINE"
);
}
);
width = 381;
}
);
unicode = 007D;
},
{
glyphname = bracketleft;
lastChange = "2019-11-26 10:54:32 +0000";
layers = (
{
layerId = "3BB9E4C4-DEF2-48EE-A047-AEFABDBAAE6E";
paths = (
{
closed = 1;
nodes = (
"185 -233 LINE",
"185 -228 LINE",
"75 -228 LINE",
"75 728 LINE",
"185 728 LINE",
"185 733 LINE",
"70 733 LINE",
"70 -233 LINE"
);
}
);
width = 255;
},
{
hints = (
{
horizontal = 1;
place = "{-230, 74}";
type = Stem;
},
{
horizontal = 1;
place = "{656, 74}";
type = Stem;
},
{
place = "{52, 78}";
type = Stem;
}
);
layerId = "8609C873-3DB2-4A65-A2BD-5F22606290B7";
paths = (
{
closed = 1;
nodes = (
"265 -230 LINE",
"265 -156 LINE",
"130 -156 LINE",
"130 656 LINE",
"265 656 LINE",
"265 730 LINE",
"52 730 LINE",
"52 -230 LINE"
);
}
);
width = 306;
},
{
layerId = "F5FC6CB4-8346-45E7-8DEF-2B856C43F982";
paths = (
{
closed = 1;
nodes = (
"266 -245 LINE",
"266 -35 LINE",
"198 -35 LINE",
"198 535 LINE",
"266 535 LINE",
"266 745 LINE",
"8 745 LINE",
"8 -245 LINE"
);
}
);
width = 274;
}
);
unicode = 005B;
},
{
glyphname = bracketright;
lastChange = "2019-10-14 08:37:30 +0000";
layers = (
{
layerId = "3BB9E4C4-DEF2-48EE-A047-AEFABDBAAE6E";
paths = (
{
closed = 1;
nodes = (
"185 -233 LINE",
"185 733 LINE",
"70 733 LINE",
"70 728 LINE",
"180 728 LINE",
"180 -228 LINE",
"70 -228 LINE",
"70 -233 LINE"
);
}
);
width = 255;
},
{
hints = (
{
horizontal = 1;
place = "{-230, 73}";
type = Stem;
},
{
horizontal = 1;
place = "{656, 74}";
type = Stem;
},
{
place = "{247, 78}";
type = Stem;
}
);
layerId = "8609C873-3DB2-4A65-A2BD-5F22606290B7";
paths = (
{
closed = 1;
nodes = (
"255 -230 LINE",
"255 730 LINE",
"42 730 LINE",
"42 656 LINE",
"177 656 LINE",
"177 -157 LINE",
"42 -157 LINE",
"42 -230 LINE"
);
}
);
width = 306;
},
{
layerId = "F5FC6CB4-8346-45E7-8DEF-2B856C43F982";
paths = (
{
closed = 1;
nodes = (
"266 -245 LINE",
"266 745 LINE",
"8 745 LINE",
"8 535 LINE",
"76 535 LINE",
"76 -35 LINE",
"8 -35 LINE",
"8 -245 LINE"
);
}
);
width = 274;
}
);
unicode = 005D;
},
{
glyphname = hyphen;
lastChange = "2019-10-15 12:22:46 +0000";
layers = (
{
layerId = "3BB9E4C4-DEF2-48EE-A047-AEFABDBAAE6E";
paths = (
{
closed = 1;
nodes = (
"72 253 LINE",
"442 253 LINE",
"442 258 LINE",
"72 258 LINE"
);
}
);
width = 514;
},
{
layerId = "8609C873-3DB2-4A65-A2BD-5F22606290B7";
paths = (
{
closed = 1;
nodes = (
"62 246 LINE",
"422 246 LINE",
"422 314 LINE",
"62 314 LINE"
);
}
);
width = 483;
},
{
layerId = "F5FC6CB4-8346-45E7-8DEF-2B856C43F982";
paths = (
{
closed = 1;
nodes = (
"21 167 LINE",
"391 167 LINE",
"391 339 LINE",
"21 339 LINE"
);
}
);
width = 412;
}
);
unicode = 002D;
},
{
glyphname = endash;
lastChange = "2019-10-14 08:39:16 +0000";
layers = (
{
layerId = "3BB9E4C4-DEF2-48EE-A047-AEFABDBAAE6E";
paths = (
{
closed = 1;
nodes = (
"472 253 LINE",
"472 258 LINE",
"52 258 LINE",
"52 253 LINE"
);
}
);
width = 524;
},
{
hints = (
{
horizontal = 1;
place = "{216, 68}";
type = Stem;
},
{
place = "{52, 420}";
type = Stem;
}
);
layerId = "8609C873-3DB2-4A65-A2BD-5F22606290B7";
paths = (
{
closed = 1;
nodes = (
"472 246 LINE",
"472 314 LINE",
"52 314 LINE",
"52 246 LINE"
);
}
);
width = 524;
},
{
layerId = "F5FC6CB4-8346-45E7-8DEF-2B856C43F982";
paths = (
{
closed = 1;
nodes = (
"501 167 LINE",
"501 339 LINE",
"21 339 LINE",
"21 167 LINE"
);
}
);
width = 522;
}
);
unicode = 2013;
},
{
glyphname = emdash;
lastChange = "2019-10-27 17:46:50 +0000";
layers = (
{
layerId = "3BB9E4C4-DEF2-48EE-A047-AEFABDBAAE6E";
paths = (
{
closed = 1;
nodes = (
"630 253 LINE",
"630 258 LINE",
"52 258 LINE",
"52 253 LINE"
);
}
);
width = 682;
},
{
hints = (
{
horizontal = 1;
place = "{216, 68}";
type = Stem;
},
{
place = "{52, 620}";
type = Stem;
}
);
layerId = "8609C873-3DB2-4A65-A2BD-5F22606290B7";
paths = (
{
closed = 1;
nodes = (
"672 246 LINE",
"672 314 LINE",
"52 314 LINE",
"52 246 LINE"
);
}
);
width = 724;
},
{
layerId = "F5FC6CB4-8346-45E7-8DEF-2B856C43F982";
paths = (
{
closed = 1;
nodes = (
"699 167 LINE",
"699 339 LINE",
"21 339 LINE",
"21 167 LINE"
);
}
);
width = 720;
}
);
unicode = 2014;
},
{
glyphname = underscore;
lastChange = "2019-10-14 08:41:13 +0000";
layers = (
{
layerId = "3BB9E4C4-DEF2-48EE-A047-AEFABDBAAE6E";
paths = (
{
closed = 1;
nodes = (
"72 0 LINE",
"442 0 LINE",
"442 5 LINE",
"72 5 LINE"
);
}
);
width = 514;
},
{
hints = (
{
horizontal = 1;
place = "{-77, 67}";
type = Stem;
},
{
place = "{52, 470}";
type = Stem;
}
);
layerId = "8609C873-3DB2-4A65-A2BD-5F22606290B7";
paths = (
{
closed = 1;
nodes = (
"52 -10 LINE",
"522 -10 LINE",
"522 57 LINE",
"52 57 LINE"
);
}
);
width = 573;
},
{
layerId = "F5FC6CB4-8346-45E7-8DEF-2B856C43F982";
paths = (
{
closed = 1;
nodes = (
"21 -40 LINE",
"391 -40 LINE",
"391 132 LINE",
"21 132 LINE"
);
}
);
width = 412;
}
);
unicode = 005F;
},
{
glyphname = quotedbl;
lastChange = "2019-10-21 22:28:48 +0000";
layers = (
{
layerId = "3BB9E4C4-DEF2-48EE-A047-AEFABDBAAE6E";
paths = (
{
closed = 1;
nodes = (
"222 365 LINE",
"294 600 LINE",
"289 600 LINE",
"217 365 LINE"
);
},
{
closed = 1;
nodes = (
"87 365 LINE",
"159 600 LINE",
"154 600 LINE",
"82 365 LINE"
);
}
);
width = 366;
},
{
hints = (
{
horizontal = 1;
place = "{500, 230}";
type = Stem;
},
{
place = "{59, 68}";
type = Stem;
},
{
place = "{176, 68}";
type = Stem;
}
);
layerId = "8609C873-3DB2-4A65-A2BD-5F22606290B7";
paths = (
{
closed = 1;
nodes = (
"249 364 LINE",
"339 599 LINE",
"252 599 LINE",
"180 364 LINE"
);
},
{
closed = 1;
nodes = (
"95 364 LINE",
"185 599 LINE",
"98 599 LINE",
"26 364 LINE"
);
}
);
width = 362;
},
{
layerId = "F5FC6CB4-8346-45E7-8DEF-2B856C43F982";
paths = (
{
closed = 1;
nodes = (
"427 304 LINE",
"510 630 LINE",
"302 630 LINE",
"255 304 LINE"
);
},
{
closed = 1;
nodes = (
"190 304 LINE",
"273 630 LINE",
"65 630 LINE",
"18 304 LINE"
);
}
);
width = 514;
}
);
unicode = 0022;
},
{
glyphname = quotesingle;
lastChange = "2019-10-14 08:43:57 +0000";
layers = (
{
layerId = "3BB9E4C4-DEF2-48EE-A047-AEFABDBAAE6E";
paths = (
{
closed = 1;
nodes = (
"87 365 LINE",
"159 600 LINE",
"154 600 LINE",
"82 365 LINE"
);
}
);
width = 231;
},
{
hints = (
{
horizontal = 1;
place = "{500, 230}";
type = Stem;
},
{
place = "{59, 68}";
type = Stem;
}
);
layerId = "8609C873-3DB2-4A65-A2BD-5F22606290B7";
paths = (
{
closed = 1;
nodes = (
"92 364 LINE",
"182 599 LINE",
"95 599 LINE",
"23 364 LINE"
);
}
);
width = 205;
},
{
layerId = "F5FC6CB4-8346-45E7-8DEF-2B856C43F982";
paths = (
{
closed = 1;
nodes = (
"190 304 LINE",
"273 630 LINE",
"65 630 LINE",
"18 304 LINE"
);
}
);
width = 277;
}
);
unicode = 0027;
},
{
glyphname = "geresh-hb";
lastChange = "2019-10-14 08:45:06 +0000";
layers = (
{
layerId = "3BB9E4C4-DEF2-48EE-A047-AEFABDBAAE6E";
paths = (
{
closed = 1;
nodes = (
"87 365 LINE",
"159 600 LINE",
"154 600 LINE",
"82 365 LINE"
);
}
);
width = 231;
},
{
layerId = "8609C873-3DB2-4A65-A2BD-5F22606290B7";
paths = (
{
closed = 1;
nodes = (
"92 364 LINE",
"182 599 LINE",
"95 599 LINE",
"23 364 LINE"
);
}
);
width = 205;
},
{
layerId = "F5FC6CB4-8346-45E7-8DEF-2B856C43F982";
paths = (
{
closed = 1;
nodes = (
"190 304 LINE",
"273 630 LINE",
"65 630 LINE",
"18 304 LINE"
);
}
);
width = 277;
}
);
unicode = 05F3;
},
{
glyphname = "gershayim-hb";
lastChange = "2019-10-14 08:45:02 +0000";
layers = (
{
layerId = "3BB9E4C4-DEF2-48EE-A047-AEFABDBAAE6E";
paths = (
{
closed = 1;
nodes = (
"222 365 LINE",
"294 600 LINE",
"289 600 LINE",
"217 365 LINE"
);
},
{
closed = 1;
nodes = (
"87 365 LINE",
"159 600 LINE",
"154 600 LINE",
"82 365 LINE"
);
}
);
width = 366;
},
{
layerId = "8609C873-3DB2-4A65-A2BD-5F22606290B7";
paths = (
{
closed = 1;
nodes = (
"249 364 LINE",
"339 599 LINE",
"252 599 LINE",
"180 364 LINE"
);
},
{
closed = 1;
nodes = (
"95 364 LINE",
"185 599 LINE",
"98 599 LINE",
"26 364 LINE"
);
}
);
width = 362;
},
{
layerId = "F5FC6CB4-8346-45E7-8DEF-2B856C43F982";
paths = (
{
closed = 1;
nodes = (
"427 304 LINE",
"510 630 LINE",
"302 630 LINE",
"255 304 LINE"
);
},
{
closed = 1;
nodes = (
"190 304 LINE",
"273 630 LINE",
"65 630 LINE",
"18 304 LINE"
);
}
);
width = 514;
}
);
unicode = 05F4;
},
{
glyphname = "maqaf-hb";
lastChange = "2019-10-06 23:39:11 +0000";
layers = (
{
layerId = "3BB9E4C4-DEF2-48EE-A047-AEFABDBAAE6E";
paths = (
{
closed = 1;
nodes = (
"72 551 LINE",
"281 551 LINE",
"281 556 LINE",
"72 556 LINE"
);
}
);
width = 353;
},
{
layerId = "8609C873-3DB2-4A65-A2BD-5F22606290B7";
paths = (
{
closed = 1;
nodes = (
"52 478 LINE",
"332 478 LINE",
"332 556 LINE",
"52 556 LINE"
);
}
);
width = 384;
},
{
layerId = "F5FC6CB4-8346-45E7-8DEF-2B856C43F982";
paths = (
{
closed = 1;
nodes = (
"21 384 LINE",
"321 384 LINE",
"321 556 LINE",
"21 556 LINE"
);
}
);
width = 344;
}
);
unicode = 05BE;
},
{
glyphname = dollar;
lastChange = "2019-11-26 10:54:10 +0000";
layers = (
{
layerId = "3BB9E4C4-DEF2-48EE-A047-AEFABDBAAE6E";
paths = (
{
closed = 1;
nodes = (
"437 -11 OFFCURVE",
"516 58 OFFCURVE",
"515 155 CURVE SMOOTH",
"515 270 OFFCURVE",
"405 302 OFFCURVE",
"299 332 CURVE SMOOTH",
"200 361 OFFCURVE",
"105 388 OFFCURVE",
"105 480 CURVE SMOOTH",
"106 559 OFFCURVE",
"176 640 OFFCURVE",
"301 640 CURVE SMOOTH",
"379 640 OFFCURVE",
"441 617 OFFCURVE",
"500 568 CURVE",
"504 572 LINE",
"443 621 OFFCURVE",
"379 645 OFFCURVE",
"301 645 CURVE SMOOTH",
"174 645 OFFCURVE",
"101 561 OFFCURVE",
"101 480 CURVE SMOOTH",
"101 384 OFFCURVE",
"199 356 OFFCURVE",
"298 327 CURVE SMOOTH",
"404 297 OFFCURVE",
"511 266 OFFCURVE",
"511 155 CURVE SMOOTH",
"511 61 OFFCURVE",
"434 -6 OFFCURVE",
"324 -6 CURVE SMOOTH",
"218 -6 OFFCURVE",
"155 17 OFFCURVE",
"89 75 CURVE",
"85 71 LINE",
"153 11 OFFCURVE",
"219 -11 OFFCURVE",
"324 -11 CURVE SMOOTH"
);
},
{
closed = 1;
nodes = (
"315 -102 LINE",
"315 730 LINE",
"310 730 LINE",
"310 -102 LINE"
);
}
);
width = 600;
},
{
hints = (
{
horizontal = 1;
place = "{-7, 21}";
target = up;
type = BottomGhost;
},
{
horizontal = 1;
place = "{738, -20}";
target = down;
type = TopGhost;
},
{
place = "{64, 79}";
type = Stem;
},
{
place = "{262, 76}";
type = Stem;
},
{
place = "{467, 80}";
type = Stem;
},
{
horizontal = 1;
place = "{737, -20}";
target = down;
type = TopGhost;
},
{
horizontal = 1;
place = "{-8, 71}";
type = Stem;
}
);
layerId = "8609C873-3DB2-4A65-A2BD-5F22606290B7";
paths = (
{
closed = 1;
nodes = (
"448 -8 OFFCURVE",
"528 76 OFFCURVE",
"528 153 CURVE SMOOTH",
"528 273 OFFCURVE",
"412 323 OFFCURVE",
"310 366 CURVE SMOOTH",
"232 399 OFFCURVE",
"162 427 OFFCURVE",
"162 480 CURVE SMOOTH",
"162 516 OFFCURVE",
"206 570 OFFCURVE",
"301 570 CURVE SMOOTH",
"387 570 OFFCURVE",
"429 528 OFFCURVE",
"459 481 CURVE",
"522 528 LINE",
"477 588 OFFCURVE",
"417 642 OFFCURVE",
"301 642 CURVE SMOOTH",
"155 642 OFFCURVE",
"83 560 OFFCURVE",
"83 480 CURVE SMOOTH",
"83 370 OFFCURVE",
"204 323 OFFCURVE",
"307 277 CURVE SMOOTH",
"383 243 OFFCURVE",
"448 210 OFFCURVE",
"448 153 CURVE SMOOTH",
"448 113 OFFCURVE",
"400 63 OFFCURVE",
"304 63 CURVE SMOOTH",
"217 63 OFFCURVE",
"169 108 OFFCURVE",
"126 166 CURVE",
"67 111 LINE",
"123 44 OFFCURVE",
"189 -8 OFFCURVE",
"304 -8 CURVE SMOOTH"
);
},
{
closed = 1;
nodes = (
"346 -102 LINE",
"346 730 LINE",
"268 730 LINE",
"268 -102 LINE"
);
}
);
width = 588;
},
{
layerId = "F5FC6CB4-8346-45E7-8DEF-2B856C43F982";
paths = (
{
closed = 1;
nodes = (
"537 -33 OFFCURVE",
"674 64 OFFCURVE",
"674 173 CURVE SMOOTH",
"674 303 OFFCURVE",
"537 370 OFFCURVE",
"353 387 CURVE SMOOTH",
"284 392 OFFCURVE",
"194 398 OFFCURVE",
"194 409 CURVE SMOOTH",
"194 415 OFFCURVE",
"263 420 OFFCURVE",
"337 420 CURVE SMOOTH",
"400 420 OFFCURVE",
"469 404 OFFCURVE",
"616 376 CURVE",
"616 586 LINE",
"507 609 OFFCURVE",
"416 630 OFFCURVE",
"337 630 CURVE SMOOTH",
"160 630 OFFCURVE",
"14 560 OFFCURVE",
"14 432 CURVE SMOOTH",
"14 303 OFFCURVE",
"133 220 OFFCURVE",
"311 212 CURVE SMOOTH",
"467 205 OFFCURVE",
"494 193 OFFCURVE",
"494 189 CURVE SMOOTH",
"494 181 OFFCURVE",
"437 177 OFFCURVE",
"360 177 CURVE SMOOTH",
"270 177 OFFCURVE",
"143 176 OFFCURVE",
"60 207 CURVE",
"60 -3 LINE",
"153 -33 OFFCURVE",
"253 -33 OFFCURVE",
"360 -33 CURVE SMOOTH"
);
},
{
closed = 1;
nodes = (
"443 -99 LINE",
"443 730 LINE",
"253 730 LINE",
"253 -99 LINE"
);
}
);
width = 688;
}
);
unicode = 0024;
},
{
glyphname = euro;
lastChange = "2019-11-26 10:54:32 +0000";
layers = (
{
layerId = "3BB9E4C4-DEF2-48EE-A047-AEFABDBAAE6E";
paths = (
{
closed = 1;
nodes = (
"484 -33 LINE",
"268 -33 OFFCURVE",
"151 152 OFFCURVE",
"151 313 CURVE SMOOTH",
"151 480 OFFCURVE",
"273 640 OFFCURVE",
"484 640 CURVE",
"484 645 LINE",
"271 645 OFFCURVE",
"146 482 OFFCURVE",
"146 313 CURVE SMOOTH",
"146 150 OFFCURVE",
"266 -38 OFFCURVE",
"484 -38 CURVE"
);
},
{
closed = 1;
nodes = (
"403 231 LINE",
"403 236 LINE",
"71 236 LINE",
"71 231 LINE"
);
},
{
closed = 1;
nodes = (
"405 370 LINE",
"405 375 LINE",
"73 375 LINE",
"73 370 LINE"
);
}
);
width = 560;
},
{
layerId = "8609C873-3DB2-4A65-A2BD-5F22606290B7";
paths = (
{
closed = 1;
nodes = (
"504 40 LINE",
"290 45 OFFCURVE",
"205 195 OFFCURVE",
"203 313 CURVE",
"203 435 OFFCURVE",
"292 567 OFFCURVE",
"504 567 CURVE",
"504 642 LINE",
"252 642 OFFCURVE",
"128 481 OFFCURVE",
"128 313 CURVE",
"128 151 OFFCURVE",
"247 -35 OFFCURVE",
"504 -35 CURVE"
);
},
{
closed = 1;
nodes = (
"413 198 LINE",
"433 273 LINE",
"61 273 LINE",
"41 198 LINE"
);
},
{
closed = 1;
nodes = (
"445 337 LINE",
"465 412 LINE",
"93 412 LINE",
"73 337 LINE"
);
}
);
width = 580;
},
{
layerId = "F5FC6CB4-8346-45E7-8DEF-2B856C43F982";
paths = (
{
closed = 1;
nodes = (
"524 180 LINE",
"368 180 OFFCURVE",
"283 209 OFFCURVE",
"283 313 CURVE SMOOTH",
"283 390 OFFCURVE",
"362 420 OFFCURVE",
"524 420 CURVE",
"524 630 LINE",
"298 630 OFFCURVE",
"93 527 OFFCURVE",
"93 313 CURVE SMOOTH",
"93 76 OFFCURVE",
"304 -30 OFFCURVE",
"524 -30 CURVE"
);
},
{
closed = 1;
nodes = (
"443 214 LINE",
"463 294 LINE",
"31 294 LINE",
"11 214 LINE"
);
},
{
closed = 1;
nodes = (
"469 313 LINE",
"489 393 LINE",
"63 393 LINE",
"43 313 LINE"
);
}
);
width = 550;
}
);
unicode = 20AC;
},
{
glyphname = sheqel;
lastChange = "2019-11-26 10:54:32 +0000";
layers = (
{
layerId = "3BB9E4C4-DEF2-48EE-A047-AEFABDBAAE6E";
paths = (
{
closed = 1;
nodes = (
"417 0 LINE SMOOTH",
"563 0 OFFCURVE",
"634 87 OFFCURVE",
"634 258 CURVE SMOOTH",
"634 556 LINE",
"629 556 LINE",
"629 258 LINE SMOOTH",
"629 88 OFFCURVE",
"559 6 OFFCURVE",
"417 6 CURVE SMOOTH",
"270 6 LINE",
"270 403 LINE",
"265 403 LINE",
"265 0 LINE"
);
},
{
closed = 1;
nodes = (
"117 0 LINE",
"117 551 LINE",
"247 551 LINE SMOOTH",
"383 551 OFFCURVE",
"451 466 OFFCURVE",
"451 298 CURVE SMOOTH",
"451 160 LINE",
"456 160 LINE",
"456 298 LINE SMOOTH",
"456 468 OFFCURVE",
"386 556 OFFCURVE",
"247 556 CURVE SMOOTH",
"112 556 LINE",
"112 0 LINE"
);
}
);
width = 720;
},
{
layerId = "8609C873-3DB2-4A65-A2BD-5F22606290B7";
paths = (
{
closed = 1;
nodes = (
"407 0 LINE SMOOTH",
"585 0 OFFCURVE",
"653 87 OFFCURVE",
"653 258 CURVE SMOOTH",
"653 556 LINE",
"578 556 LINE",
"578 258 LINE SMOOTH",
"578 125 OFFCURVE",
"540 75 OFFCURVE",
"407 75 CURVE SMOOTH",
"315 75 LINE",
"315 356 LINE",
"240 356 LINE",
"240 0 LINE"
);
},
{
closed = 1;
nodes = (
"145 0 LINE",
"145 481 LINE",
"247 481 LINE SMOOTH",
"368 481 OFFCURVE",
"408 433 OFFCURVE",
"408 298 CURVE SMOOTH",
"408 200 LINE",
"483 200 LINE",
"483 298 LINE SMOOTH",
"483 466 OFFCURVE",
"418 556 OFFCURVE",
"247 556 CURVE SMOOTH",
"70 556 LINE",
"70 0 LINE"
);
}
);
width = 723;
},
{
layerId = "F5FC6CB4-8346-45E7-8DEF-2B856C43F982";
paths = (
{
closed = 1;
nodes = (
"602 0 LINE SMOOTH",
"739 0 OFFCURVE",
"846 94 OFFCURVE",
"846 287 CURVE SMOOTH",
"846 556 LINE",
"656 556 LINE",
"656 309 LINE SMOOTH",
"656 239 OFFCURVE",
"626 210 OFFCURVE",
"570 210 CURVE SMOOTH",
"402 210 LINE",
"402 301 LINE",
"252 301 LINE",
"252 0 LINE"
);
},
{
closed = 1;
nodes = (
"209 0 LINE",
"209 346 LINE",
"378 346 LINE SMOOTH",
"434 346 OFFCURVE",
"457 324 OFFCURVE",
"457 277 CURVE SMOOTH",
"457 254 LINE",
"607 254 LINE",
"607 330 LINE SMOOTH",
"607 480 OFFCURVE",
"533 556 OFFCURVE",
"392 556 CURVE SMOOTH",
"19 556 LINE",
"19 0 LINE"
);
}
);
width = 860;
}
);
unicode = 20AA;
},
{
glyphname = plus;
lastChange = "2019-11-26 10:54:32 +0000";
layers = (
{
layerId = "3BB9E4C4-DEF2-48EE-A047-AEFABDBAAE6E";
paths = (
{
closed = 1;
nodes = (
"442 284 LINE",
"442 289 LINE",
"82 289 LINE",
"82 284 LINE"
);
},
{
closed = 1;
nodes = (
"265 288 LINE",
"265 455 LINE",
"260 455 LINE",
"260 288 LINE"
);
}
);
width = 520;
},
{
layerId = "8609C873-3DB2-4A65-A2BD-5F22606290B7";
paths = (
{
closed = 1;
nodes = (
"422 216 LINE",
"422 284 LINE",
"62 284 LINE",
"62 216 LINE"
);
},
{
closed = 1;
nodes = (
"276 240 LINE",
"276 415 LINE",
"208 415 LINE",
"208 240 LINE"
);
}
);
width = 483;
},
{
layerId = "F5FC6CB4-8346-45E7-8DEF-2B856C43F982";
paths = (
{
closed = 1;
nodes = (
"452 168 LINE",
"452 340 LINE",
"12 340 LINE",
"12 168 LINE"
);
},
{
closed = 1;
nodes = (
"327 268 LINE",
"327 455 LINE",
"137 455 LINE",
"137 268 LINE"
);
}
);
width = 464;
}
);
unicode = 002B;
},
{
glyphname = minus;
lastChange = "2019-10-15 12:22:35 +0000";
layers = (
{
layerId = "3BB9E4C4-DEF2-48EE-A047-AEFABDBAAE6E";
paths = (
{
closed = 1;
nodes = (
"442 284 LINE",
"442 289 LINE",
"82 289 LINE",
"82 284 LINE"
);
}
);
width = 520;
},
{
layerId = "8609C873-3DB2-4A65-A2BD-5F22606290B7";
paths = (
{
closed = 1;
nodes = (
"62 246 LINE",
"422 246 LINE",
"422 314 LINE",
"62 314 LINE"
);
}
);
width = 483;
},
{
layerId = "F5FC6CB4-8346-45E7-8DEF-2B856C43F982";
paths = (
{
closed = 1;
nodes = (
"452 168 LINE",
"452 340 LINE",
"12 340 LINE",
"12 168 LINE"
);
}
);
width = 464;
}
);
unicode = 2212;
},
{
glyphname = multiply;
lastChange = "2019-11-26 10:54:32 +0000";
layers = (
{
layerId = "3BB9E4C4-DEF2-48EE-A047-AEFABDBAAE6E";
paths = (
{
closed = 1;
nodes = (
"221 291 LINE",
"365 148 LINE",
"369 152 LINE",
"225 295 LINE",
"369 438 LINE",
"365 442 LINE",
"221 299 LINE",
"77 442 LINE",
"73 438 LINE",
"217 295 LINE",
"73 152 LINE",
"77 148 LINE"
);
}
);
width = 440;
},
{
hints = (
{
horizontal = 1;
place = "{196, 337}";
type = Stem;
},
{
place = "{69, 336}";
type = Stem;
}
);
layerId = "8609C873-3DB2-4A65-A2BD-5F22606290B7";
paths = (
{
closed = 1;
nodes = (
"237 228 LINE",
"359 107 LINE",
"405 153 LINE",
"283 274 LINE",
"405 396 LINE",
"359 442 LINE",
"237 320 LINE",
"115 443 LINE",
"69 397 LINE",
"191 274 LINE",
"69 152 LINE",
"115 106 LINE"
);
}
);
width = 473;
},
{
layerId = "F5FC6CB4-8346-45E7-8DEF-2B856C43F982";
paths = (
{
closed = 1;
nodes = (
"255 113 LINE",
"364 5 LINE",
"498 155 LINE",
"397 255 LINE",
"498 355 LINE",
"364 505 LINE",
"255 397 LINE",
"146 505 LINE",
"12 355 LINE",
"113 255 LINE",
"12 155 LINE",
"146 5 LINE"
);
}
);
width = 510;
}
);
unicode = 00D7;
},
{
glyphname = divide;
lastChange = "2019-10-15 12:22:29 +0000";
layers = (
{
layerId = "3BB9E4C4-DEF2-48EE-A047-AEFABDBAAE6E";
paths = (
{
closed = 1;
nodes = (
"442 284 LINE",
"442 289 LINE",
"82 289 LINE",
"82 284 LINE"
);
},
{
closed = 1;
nodes = (
"268 126 OFFCURVE",
"273 130 OFFCURVE",
"273 137 CURVE SMOOTH",
"273 143 OFFCURVE",
"269 148 OFFCURVE",
"262 148 CURVE SMOOTH",
"255 148 OFFCURVE",
"251 143 OFFCURVE",
"251 137 CURVE SMOOTH",
"251 130 OFFCURVE",
"256 126 OFFCURVE",
"262 126 CURVE SMOOTH"
);
},
{
closed = 1;
nodes = (
"268 436 OFFCURVE",
"273 440 OFFCURVE",
"273 447 CURVE SMOOTH",
"273 453 OFFCURVE",
"269 458 OFFCURVE",
"262 458 CURVE SMOOTH",
"255 458 OFFCURVE",
"251 453 OFFCURVE",
"251 447 CURVE SMOOTH",
"251 440 OFFCURVE",
"256 436 OFFCURVE",
"262 436 CURVE SMOOTH"
);
}
);
width = 520;
},
{
hints = (
{
horizontal = 1;
place = "{332, 66}";
type = Stem;
},
{
place = "{52, 370}";
type = Stem;
},
{
horizontal = 1;
place = "{151, 109}";
type = Stem;
},
{
horizontal = 1;
place = "{468, 109}";
type = Stem;
},
{
place = "{182, 109}";
type = Stem;
}
);
layerId = "8609C873-3DB2-4A65-A2BD-5F22606290B7";
paths = (
{
closed = 1;
nodes = (
"422 252 LINE",
"422 318 LINE",
"52 318 LINE",
"52 252 LINE"
);
},
{
closed = 1;
nodes = (
"268 71 OFFCURVE",
"291 95 OFFCURVE",
"291 126 CURVE SMOOTH",
"291 157 OFFCURVE",
"268 180 OFFCURVE",
"236 180 CURVE SMOOTH",
"206 180 OFFCURVE",
"182 157 OFFCURVE",
"182 126 CURVE SMOOTH",
"182 95 OFFCURVE",
"204 71 OFFCURVE",
"236 71 CURVE SMOOTH"
);
},
{
closed = 1;
nodes = (
"268 388 OFFCURVE",
"291 412 OFFCURVE",
"291 443 CURVE SMOOTH",
"291 474 OFFCURVE",
"268 497 OFFCURVE",
"236 497 CURVE SMOOTH",
"206 497 OFFCURVE",
"182 474 OFFCURVE",
"182 443 CURVE SMOOTH",
"182 412 OFFCURVE",
"204 388 OFFCURVE",
"236 388 CURVE SMOOTH"
);
}
);
width = 473;
},
{
layerId = "F5FC6CB4-8346-45E7-8DEF-2B856C43F982";
paths = (
{
closed = 1;
nodes = (
"452 208 LINE",
"452 300 LINE",
"12 300 LINE",
"12 208 LINE"
);
},
{
closed = 1;
nodes = (
"291 2 OFFCURVE",
"331 42 OFFCURVE",
"331 100 CURVE SMOOTH",
"331 159 OFFCURVE",
"291 200 OFFCURVE",
"232 200 CURVE SMOOTH",
"174 200 OFFCURVE",
"133 159 OFFCURVE",
"133 100 CURVE SMOOTH",
"133 42 OFFCURVE",
"173 2 OFFCURVE",
"232 2 CURVE SMOOTH"
);
},
{
closed = 1;
nodes = (
"291 309 OFFCURVE",
"331 349 OFFCURVE",
"331 407 CURVE SMOOTH",
"331 466 OFFCURVE",
"291 507 OFFCURVE",
"232 507 CURVE SMOOTH",
"174 507 OFFCURVE",
"133 466 OFFCURVE",
"133 407 CURVE SMOOTH",
"133 349 OFFCURVE",
"173 309 OFFCURVE",
"232 309 CURVE SMOOTH"
);
}
);
width = 464;
}
);
unicode = 00F7;
},
{
glyphname = equal;
lastChange = "2019-10-15 12:22:27 +0000";
layers = (
{
layerId = "3BB9E4C4-DEF2-48EE-A047-AEFABDBAAE6E";
paths = (
{
closed = 1;
nodes = (
"442 377 LINE",
"442 382 LINE",
"82 382 LINE",
"82 377 LINE"
);
},
{
closed = 1;
nodes = (
"442 191 LINE",
"442 196 LINE",
"82 196 LINE",
"82 191 LINE"
);
}
);
width = 520;
},
{
hints = (
{
horizontal = 1;
place = "{249, 66}";
type = Stem;
},
{
horizontal = 1;
place = "{411, 67}";
type = Stem;
},
{
place = "{52, 370}";
type = Stem;
}
);
layerId = "8609C873-3DB2-4A65-A2BD-5F22606290B7";
paths = (
{
closed = 1;
nodes = (
"442 341 LINE",
"442 408 LINE",
"52 408 LINE",
"52 341 LINE"
);
},
{
closed = 1;
nodes = (
"442 169 LINE",
"442 235 LINE",
"52 235 LINE",
"52 169 LINE"
);
}
);
width = 493;
},
{
layerId = "F5FC6CB4-8346-45E7-8DEF-2B856C43F982";
paths = (
{
closed = 1;
nodes = (
"452 276 LINE",
"452 448 LINE",
"12 448 LINE",
"12 276 LINE"
);
},
{
closed = 1;
nodes = (
"452 73 LINE",
"452 245 LINE",
"12 245 LINE",
"12 73 LINE"
);
}
);
width = 464;
}
);
unicode = 003D;
},
{
glyphname = notequal;
lastChange = "2019-10-15 12:22:24 +0000";
layers = (
{
layerId = "3BB9E4C4-DEF2-48EE-A047-AEFABDBAAE6E";
paths = (
{
closed = 1;
nodes = (
"165 83 LINE",
"363 490 LINE",
"357 490 LINE",
"159 83 LINE"
);
},
{
closed = 1;
nodes = (
"442 191 LINE",
"442 196 LINE",
"82 196 LINE",
"82 191 LINE"
);
},
{
closed = 1;
nodes = (
"442 377 LINE",
"442 382 LINE",
"82 382 LINE",
"82 377 LINE"
);
}
);
width = 520;
},
{
hints = (
{
horizontal = 1;
place = "{249, 66}";
type = Stem;
},
{
horizontal = 1;
place = "{411, 67}";
type = Stem;
},
{
place = "{52, 370}";
type = Stem;
}
);
layerId = "8609C873-3DB2-4A65-A2BD-5F22606290B7";
paths = (
{
closed = 1;
nodes = (
"175 73 LINE",
"373 480 LINE",
"302 480 LINE",
"104 73 LINE"
);
},
{
closed = 1;
nodes = (
"442 169 LINE",
"442 235 LINE",
"52 235 LINE",
"52 169 LINE"
);
},
{
closed = 1;
nodes = (
"442 341 LINE",
"442 408 LINE",
"52 408 LINE",
"52 341 LINE"
);
}
);
width = 492;
},
{
layerId = "F5FC6CB4-8346-45E7-8DEF-2B856C43F982";
paths = (
{
closed = 1;
nodes = (
"235 23 LINE",
"433 510 LINE",
"242 510 LINE",
"44 23 LINE"
);
},
{
closed = 1;
nodes = (
"452 73 LINE",
"452 245 LINE",
"12 245 LINE",
"12 73 LINE"
);
},
{
closed = 1;
nodes = (
"452 276 LINE",
"452 448 LINE",
"12 448 LINE",
"12 276 LINE"
);
}
);
width = 464;
}
);
unicode = 2260;
},
{
glyphname = greater;
lastChange = "2019-11-26 10:54:32 +0000";
layers = (
{
layerId = "3BB9E4C4-DEF2-48EE-A047-AEFABDBAAE6E";
paths = (
{
closed = 1;
nodes = (
"509 281 LINE",
"509 291 LINE",
"93 491 LINE",
"91 487 LINE",
"508 285 LINE",
"508 287 LINE",
"91 80 LINE",
"93 76 LINE"
);
}
);
width = 600;
},
{
hints = (
{
horizontal = 1;
place = "{190, 349}";
type = Stem;
},
{
place = "{52, 370}";
type = Stem;
}
);
layerId = "8609C873-3DB2-4A65-A2BD-5F22606290B7";
paths = (
{
closed = 1;
nodes = (
"506 273 LINE",
"506 339 LINE",
"52 509 LINE",
"52 439 LINE",
"429 303 LINE",
"429 309 LINE",
"52 168 LINE",
"52 98 LINE"
);
}
);
width = 556;
},
{
layerId = "F5FC6CB4-8346-45E7-8DEF-2B856C43F982";
paths = (
{
closed = 1;
nodes = (
"492 216 LINE",
"492 359 LINE",
"97 585 LINE",
"15 395 LINE",
"375 221 LINE",
"375 352 LINE",
"14 173 LINE",
"98 -15 LINE"
);
}
);
width = 506;
}
);
unicode = 003E;
},
{
glyphname = less;
lastChange = "2019-10-15 12:25:20 +0000";
layers = (
{
layerId = "3BB9E4C4-DEF2-48EE-A047-AEFABDBAAE6E";
paths = (
{
closed = 1;
nodes = (
"509 80 LINE",
"92 287 LINE",
"92 285 LINE",
"509 487 LINE",
"507 491 LINE",
"91 291 LINE",
"91 281 LINE",
"507 76 LINE"
);
}
);
width = 600;
},
{
hints = (
{
horizontal = 1;
place = "{190, 349}";
type = Stem;
},
{
place = "{52, 370}";
type = Stem;
}
);
layerId = "8609C873-3DB2-4A65-A2BD-5F22606290B7";
paths = (
{
closed = 1;
nodes = (
"506 168 LINE",
"129 309 LINE",
"129 303 LINE",
"506 439 LINE",
"506 509 LINE",
"52 339 LINE",
"52 273 LINE",
"506 98 LINE"
);
}
);
width = 556;
},
{
layerId = "F5FC6CB4-8346-45E7-8DEF-2B856C43F982";
paths = (
{
closed = 1;
nodes = (
"492 173 LINE",
"131 352 LINE",
"131 221 LINE",
"491 395 LINE",
"409 585 LINE",
"14 359 LINE",
"14 216 LINE",
"408 -15 LINE"
);
}
);
width = 506;
}
);
unicode = 003C;
},
{
glyphname = asciicircum;
lastChange = "2019-11-26 10:54:32 +0000";
layers = (
{
layerId = "3BB9E4C4-DEF2-48EE-A047-AEFABDBAAE6E";
paths = (
{
closed = 1;
nodes = (
"120 340 LINE",
"288 600 LINE",
"288 600 LINE",
"460 340 LINE",
"465 340 LINE",
"290 605 LINE",
"286 605 LINE",
"115 340 LINE"
);
}
);
width = 580;
},
{
hints = (
{
horizontal = 1;
place = "{532, 168}";
type = Stem;
},
{
place = "{96, 307}";
type = Stem;
}
);
layerId = "8609C873-3DB2-4A65-A2BD-5F22606290B7";
paths = (
{
closed = 1;
nodes = (
"127 341 LINE",
"237 550 LINE",
"217 550 LINE",
"331 341 LINE",
"407 341 LINE",
"258 602 LINE",
"195 602 LINE",
"51 341 LINE"
);
}
);
width = 458;
},
{
layerId = "F5FC6CB4-8346-45E7-8DEF-2B856C43F982";
paths = (
{
closed = 1;
nodes = (
"230 247 LINE",
"341 418 LINE",
"258 418 LINE",
"371 247 LINE",
"606 247 LINE",
"354 628 LINE",
"243 628 LINE",
"-4 247 LINE"
);
}
);
width = 602;
}
);
unicode = 005E;
},
{
glyphname = percent;
lastChange = "2019-11-26 10:54:32 +0000";
layers = (
{
layerId = "3BB9E4C4-DEF2-48EE-A047-AEFABDBAAE6E";
paths = (
{
closed = 1;
nodes = (
"701 615 LINE",
"697 619 LINE",
"147 -20 LINE",
"151 -24 LINE"
);
},
{
closed = 1;
nodes = (
"299 265 OFFCURVE",
"377 342 OFFCURVE",
"377 437 CURVE SMOOTH",
"377 532 OFFCURVE",
"300 609 OFFCURVE",
"205 609 CURVE SMOOTH",
"110 609 OFFCURVE",
"33 532 OFFCURVE",
"33 437 CURVE SMOOTH",
"33 341 OFFCURVE",
"110 265 OFFCURVE",
"205 265 CURVE SMOOTH"
);
},
{
closed = 1;
nodes = (
"113 270 OFFCURVE",
"38 344 OFFCURVE",
"38 437 CURVE SMOOTH",
"38 530 OFFCURVE",
"112 604 OFFCURVE",
"205 604 CURVE SMOOTH",
"297 604 OFFCURVE",
"372 529 OFFCURVE",
"372 437 CURVE SMOOTH",
"372 344 OFFCURVE",
"297 270 OFFCURVE",
"205 270 CURVE SMOOTH"
);
},
{
closed = 1;
nodes = (
"736 -19 OFFCURVE",
"814 59 OFFCURVE",
"814 154 CURVE SMOOTH",
"814 249 OFFCURVE",
"737 326 OFFCURVE",
"642 326 CURVE SMOOTH",
"547 326 OFFCURVE",
"470 249 OFFCURVE",
"470 154 CURVE SMOOTH",
"470 58 OFFCURVE",
"547 -19 OFFCURVE",
"642 -19 CURVE SMOOTH"
);
},
{
closed = 1;
nodes = (
"550 -14 OFFCURVE",
"475 61 OFFCURVE",
"475 154 CURVE SMOOTH",
"475 247 OFFCURVE",
"549 321 OFFCURVE",
"642 321 CURVE SMOOTH",
"734 321 OFFCURVE",
"809 246 OFFCURVE",
"809 154 CURVE SMOOTH",
"809 61 OFFCURVE",
"734 -14 OFFCURVE",
"642 -14 CURVE SMOOTH"
);
}
);
width = 855;
},
{
hints = (
{
horizontal = 1;
place = "{-11, 65}";
type = Stem;
},
{
horizontal = 1;
place = "{263, 65}";
type = Stem;
},
{
horizontal = 1;
place = "{401, 65}";
type = Stem;
},
{
horizontal = 1;
place = "{675, 65}";
type = Stem;
},
{
place = "{65, 68}";
type = Stem;
},
{
place = "{336, 68}";
type = Stem;
},
{
place = "{464, 68}";
type = Stem;
},
{
place = "{735, 68}";
type = Stem;
},
{
horizontal = 1;
place = "{0, 21}";
target = up;
type = BottomGhost;
},
{
horizontal = 1;
place = "{730, -20}";
target = down;
type = TopGhost;
}
);
layerId = "8609C873-3DB2-4A65-A2BD-5F22606290B7";
paths = (
{
closed = 1;
nodes = (
"725 594 LINE",
"670 639 LINE",
"123 1 LINE",
"176 -46 LINE"
);
},
{
closed = 1;
nodes = (
"298 277 OFFCURVE",
"374 353 OFFCURVE",
"374 447 CURVE SMOOTH",
"374 541 OFFCURVE",
"298 616 OFFCURVE",
"205 616 CURVE SMOOTH",
"111 616 OFFCURVE",
"35 541 OFFCURVE",
"35 447 CURVE SMOOTH",
"35 353 OFFCURVE",
"111 277 OFFCURVE",
"205 277 CURVE SMOOTH"
);
},
{
closed = 1;
nodes = (
"149 342 OFFCURVE",
"103 388 OFFCURVE",
"103 447 CURVE SMOOTH",
"103 506 OFFCURVE",
"149 551 OFFCURVE",
"205 551 CURVE SMOOTH",
"261 551 OFFCURVE",
"306 506 OFFCURVE",
"306 447 CURVE SMOOTH",
"306 388 OFFCURVE",
"261 342 OFFCURVE",
"205 342 CURVE SMOOTH"
);
},
{
closed = 1;
nodes = (
"737 -25 OFFCURVE",
"813 51 OFFCURVE",
"813 145 CURVE SMOOTH",
"813 239 OFFCURVE",
"737 314 OFFCURVE",
"643 314 CURVE SMOOTH",
"549 314 OFFCURVE",
"474 239 OFFCURVE",
"474 145 CURVE SMOOTH",
"474 51 OFFCURVE",
"549 -25 OFFCURVE",
"643 -25 CURVE SMOOTH"
);
},
{
closed = 1;
nodes = (
"587 40 OFFCURVE",
"542 86 OFFCURVE",
"542 145 CURVE SMOOTH",
"542 204 OFFCURVE",
"587 249 OFFCURVE",
"643 249 CURVE SMOOTH",
"699 249 OFFCURVE",
"745 204 OFFCURVE",
"745 145 CURVE SMOOTH",
"745 86 OFFCURVE",
"699 40 OFFCURVE",
"643 40 CURVE SMOOTH"
);
}
);
width = 856;
},
{
layerId = "F5FC6CB4-8346-45E7-8DEF-2B856C43F982";
paths = (
{
closed = 1;
nodes = (
"813 606 LINE",
"647 708 LINE",
"241 -32 LINE",
"407 -134 LINE"
);
},
{
closed = 1;
nodes = (
"356 216 OFFCURVE",
"453 321 OFFCURVE",
"453 447 CURVE SMOOTH",
"453 573 OFFCURVE",
"357 677 OFFCURVE",
"233 677 CURVE SMOOTH",
"109 677 OFFCURVE",
"12 573 OFFCURVE",
"12 447 CURVE SMOOTH",
"12 321 OFFCURVE",
"109 216 OFFCURVE",
"233 216 CURVE SMOOTH"
);
},
{
closed = 1;
nodes = (
"207 419 OFFCURVE",
"191 433 OFFCURVE",
"191 447 CURVE SMOOTH",
"191 461 OFFCURVE",
"206 474 OFFCURVE",
"233 474 CURVE SMOOTH",
"259 474 OFFCURVE",
"274 461 OFFCURVE",
"274 447 CURVE SMOOTH",
"274 433 OFFCURVE",
"258 419 OFFCURVE",
"233 419 CURVE SMOOTH"
);
},
{
closed = 1;
nodes = (
"953 -87 OFFCURVE",
"1050 18 OFFCURVE",
"1050 144 CURVE SMOOTH",
"1050 270 OFFCURVE",
"954 374 OFFCURVE",
"830 374 CURVE SMOOTH",
"706 374 OFFCURVE",
"609 270 OFFCURVE",
"609 144 CURVE SMOOTH",
"609 18 OFFCURVE",
"706 -87 OFFCURVE",
"830 -87 CURVE SMOOTH"
);
},
{
closed = 1;
nodes = (
"803 116 OFFCURVE",
"788 129 OFFCURVE",
"788 144 CURVE SMOOTH",
"788 158 OFFCURVE",
"803 171 OFFCURVE",
"830 171 CURVE SMOOTH",
"856 171 OFFCURVE",
"871 158 OFFCURVE",
"871 144 CURVE SMOOTH",
"871 129 OFFCURVE",
"856 116 OFFCURVE",
"830 116 CURVE SMOOTH"
);
}
);
width = 1062;
}
);
unicode = 0025;
},
{
glyphname = upArrow;
lastChange = "2019-11-26 10:54:32 +0000";
layers = (
{
layerId = "3BB9E4C4-DEF2-48EE-A047-AEFABDBAAE6E";
paths = (
{
closed = 1;
nodes = (
"528 348 LINE",
"314 565 LINE",
"100 348 LINE",
"104 344 LINE",
"314 557 LINE",
"524 344 LINE"
);
},
{
closed = 1;
nodes = (
"317 0 LINE",
"317 559 LINE",
"312 559 LINE",
"312 0 LINE"
);
}
);
width = 628;
},
{
layerId = "8609C873-3DB2-4A65-A2BD-5F22606290B7";
paths = (
{
closed = 1;
nodes = (
"555 348 LINE",
"314 589 LINE",
"75 350 LINE",
"128 297 LINE",
"314 483 LINE",
"502 295 LINE"
);
},
{
closed = 1;
nodes = (
"352 0 LINE",
"352 536 LINE",
"277 536 LINE",
"277 0 LINE"
);
}
);
width = 630;
},
{
layerId = "F5FC6CB4-8346-45E7-8DEF-2B856C43F982";
paths = (
{
closed = 1;
nodes = (
"652 355 LINE",
"332 678 LINE",
"12 355 LINE",
"148 207 LINE",
"332 404 LINE",
"516 207 LINE"
);
},
{
closed = 1;
nodes = (
"427 0 LINE",
"427 536 LINE",
"237 536 LINE",
"237 0 LINE"
);
}
);
width = 664;
}
);
unicode = 2191;
},
{
glyphname = northEastArrow;
lastChange = "2019-10-14 09:25:40 +0000";
layers = (
{
layerId = "3BB9E4C4-DEF2-48EE-A047-AEFABDBAAE6E";
paths = (
{
closed = 1;
nodes = (
"475 550 LINE",
"471 553 LINE",
"76 158 LINE",
"79 155 LINE"
);
},
{
closed = 1;
nodes = (
"475 251 LINE",
"477 556 LINE",
"172 554 LINE",
"172 549 LINE",
"472 552 LINE",
"470 251 LINE"
);
}
);
width = 573;
},
{
layerId = "8609C873-3DB2-4A65-A2BD-5F22606290B7";
paths = (
{
closed = 1;
nodes = (
"509 492 LINE",
"456 545 LINE",
"77 166 LINE",
"130 113 LINE"
);
},
{
closed = 1;
nodes = (
"520 216 LINE",
"520 556 LINE",
"181 556 LINE",
"181 481 LINE",
"445 481 LINE",
"445 216 LINE"
);
}
);
width = 630;
},
{
layerId = "F5FC6CB4-8346-45E7-8DEF-2B856C43F982";
paths = (
{
closed = 1;
nodes = (
"517 390 LINE",
"383 524 LINE",
"4 145 LINE",
"138 11 LINE"
);
},
{
closed = 1;
nodes = (
"550 103 LINE",
"550 557 LINE",
"96 557 LINE",
"96 355 LINE",
"370 368 LINE",
"348 103 LINE"
);
}
);
width = 574;
}
);
unicode = 2197;
},
{
glyphname = rightArrow;
lastChange = "2019-10-14 09:22:57 +0000";
layers = (
{
layerId = "3BB9E4C4-DEF2-48EE-A047-AEFABDBAAE6E";
paths = (
{
closed = 1;
nodes = (
"613 287 LINE",
"396 501 LINE",
"392 497 LINE",
"605 287 LINE",
"392 77 LINE",
"396 73 LINE"
);
},
{
closed = 1;
nodes = (
"607 284 LINE",
"607 289 LINE",
"48 289 LINE",
"48 284 LINE"
);
}
);
width = 647;
},
{
layerId = "8609C873-3DB2-4A65-A2BD-5F22606290B7";
paths = (
{
closed = 1;
nodes = (
"618 288 LINE",
"378 527 LINE",
"325 474 LINE",
"512 288 LINE",
"324 100 LINE",
"377 47 LINE"
);
},
{
closed = 1;
nodes = (
"565 249 LINE",
"565 324 LINE",
"28 324 LINE",
"28 249 LINE"
);
}
);
width = 630;
},
{
layerId = "F5FC6CB4-8346-45E7-8DEF-2B856C43F982";
paths = (
{
closed = 1;
nodes = (
"690 286 LINE",
"367 606 LINE",
"219 470 LINE",
"416 286 LINE",
"219 102 LINE",
"367 -34 LINE"
);
},
{
closed = 1;
nodes = (
"548 191 LINE",
"548 381 LINE",
"12 381 LINE",
"12 191 LINE"
);
}
);
width = 694;
}
);
unicode = 2192;
},
{
glyphname = southEastArrow;
lastChange = "2019-10-14 09:25:42 +0000";
layers = (
{
layerId = "3BB9E4C4-DEF2-48EE-A047-AEFABDBAAE6E";
paths = (
{
closed = 1;
nodes = (
"475 6 LINE",
"79 401 LINE",
"76 398 LINE",
"471 3 LINE"
);
},
{
closed = 1;
nodes = (
"477 0 LINE",
"475 305 LINE",
"470 305 LINE",
"472 4 LINE",
"172 7 LINE",
"172 2 LINE"
);
}
);
width = 573;
},
{
layerId = "8609C873-3DB2-4A65-A2BD-5F22606290B7";
paths = (
{
closed = 1;
nodes = (
"509 64 LINE",
"130 443 LINE",
"77 390 LINE",
"456 11 LINE"
);
},
{
closed = 1;
nodes = (
"521 0 LINE",
"521 339 LINE",
"446 339 LINE",
"446 75 LINE",
"180 75 LINE",
"180 0 LINE"
);
}
);
width = 630;
},
{
layerId = "F5FC6CB4-8346-45E7-8DEF-2B856C43F982";
paths = (
{
closed = 1;
nodes = (
"383 33 LINE",
"517 167 LINE",
"138 546 LINE",
"4 412 LINE"
);
},
{
closed = 1;
nodes = (
"96 0 LINE",
"550 0 LINE",
"550 454 LINE",
"348 454 LINE",
"361 180 LINE",
"96 202 LINE"
);
}
);
width = 574;
}
);
unicode = 2198;
},
{
glyphname = downArrow;
lastChange = "2019-10-14 09:19:36 +0000";
layers = (
{
layerId = "3BB9E4C4-DEF2-48EE-A047-AEFABDBAAE6E";
paths = (
{
closed = 1;
nodes = (
"528 198 LINE",
"524 202 LINE",
"314 -11 LINE",
"104 202 LINE",
"100 198 LINE",
"314 -19 LINE"
);
},
{
closed = 1;
nodes = (
"316 -13 LINE",
"316 556 LINE",
"311 556 LINE",
"311 -13 LINE"
);
}
);
width = 628;
},
{
layerId = "8609C873-3DB2-4A65-A2BD-5F22606290B7";
paths = (
{
closed = 1;
nodes = (
"555 206 LINE",
"502 259 LINE",
"316 73 LINE",
"128 261 LINE",
"75 208 LINE",
"316 -33 LINE"
);
},
{
closed = 1;
nodes = (
"352 20 LINE",
"352 556 LINE",
"277 556 LINE",
"277 20 LINE"
);
}
);
width = 630;
},
{
layerId = "F5FC6CB4-8346-45E7-8DEF-2B856C43F982";
paths = (
{
closed = 1;
nodes = (
"652 201 LINE",
"516 349 LINE",
"332 152 LINE",
"148 349 LINE",
"12 201 LINE",
"332 -122 LINE"
);
},
{
closed = 1;
nodes = (
"427 20 LINE",
"427 556 LINE",
"237 556 LINE",
"237 20 LINE"
);
}
);
width = 664;
}
);
unicode = 2193;
},
{
glyphname = southWestArrow;
lastChange = "2019-10-14 09:25:37 +0000";
layers = (
{
layerId = "3BB9E4C4-DEF2-48EE-A047-AEFABDBAAE6E";
paths = (
{
closed = 1;
nodes = (
"497 398 LINE",
"494 401 LINE",
"98 6 LINE",
"102 3 LINE"
);
},
{
closed = 1;
nodes = (
"401 2 LINE",
"401 7 LINE",
"101 4 LINE",
"103 305 LINE",
"98 305 LINE",
"96 0 LINE"
);
}
);
width = 573;
},
{
layerId = "8609C873-3DB2-4A65-A2BD-5F22606290B7";
paths = (
{
closed = 1;
nodes = (
"521 391 LINE",
"468 444 LINE",
"88 65 LINE",
"142 12 LINE"
);
},
{
closed = 1;
nodes = (
"417 0 LINE",
"417 75 LINE",
"153 75 LINE",
"153 341 LINE",
"78 341 LINE",
"78 0 LINE"
);
}
);
width = 630;
},
{
layerId = "F5FC6CB4-8346-45E7-8DEF-2B856C43F982";
paths = (
{
closed = 1;
nodes = (
"436 546 LINE",
"57 167 LINE",
"191 33 LINE",
"570 412 LINE"
);
},
{
closed = 1;
nodes = (
"213 180 LINE",
"226 454 LINE",
"24 454 LINE",
"24 0 LINE",
"478 0 LINE",
"478 202 LINE"
);
}
);
width = 574;
}
);
unicode = 2199;
},
{
glyphname = leftArrow;
lastChange = "2019-10-14 09:23:12 +0000";
layers = (
{
layerId = "3BB9E4C4-DEF2-48EE-A047-AEFABDBAAE6E";
paths = (
{
closed = 1;
nodes = (
"269 77 LINE",
"56 287 LINE",
"269 497 LINE",
"265 501 LINE",
"48 287 LINE",
"265 73 LINE"
);
},
{
closed = 1;
nodes = (
"613 284 LINE",
"613 289 LINE",
"54 289 LINE",
"54 284 LINE"
);
}
);
width = 647;
},
{
layerId = "8609C873-3DB2-4A65-A2BD-5F22606290B7";
paths = (
{
closed = 1;
nodes = (
"305 100 LINE",
"118 286 LINE",
"306 474 LINE",
"253 527 LINE",
"12 286 LINE",
"252 47 LINE"
);
},
{
closed = 1;
nodes = (
"602 249 LINE",
"602 324 LINE",
"65 324 LINE",
"65 249 LINE"
);
}
);
width = 630;
},
{
layerId = "F5FC6CB4-8346-45E7-8DEF-2B856C43F982";
paths = (
{
closed = 1;
nodes = (
"475 102 LINE",
"278 286 LINE",
"475 470 LINE",
"327 606 LINE",
"4 286 LINE",
"327 -34 LINE"
);
},
{
closed = 1;
nodes = (
"682 191 LINE",
"682 381 LINE",
"146 381 LINE",
"146 191 LINE"
);
}
);
width = 694;
}
);
unicode = 2190;
},
{
glyphname = northWestArrow;
lastChange = "2019-10-14 09:25:45 +0000";
layers = (
{
layerId = "3BB9E4C4-DEF2-48EE-A047-AEFABDBAAE6E";
paths = (
{
closed = 1;
nodes = (
"497 158 LINE",
"102 553 LINE",
"98 550 LINE",
"494 155 LINE"
);
},
{
closed = 1;
nodes = (
"103 251 LINE",
"101 552 LINE",
"401 549 LINE",
"401 554 LINE",
"96 556 LINE",
"98 251 LINE"
);
}
);
width = 573;
},
{
layerId = "8609C873-3DB2-4A65-A2BD-5F22606290B7";
paths = (
{
closed = 1;
nodes = (
"529 167 LINE",
"149 546 LINE",
"96 493 LINE",
"476 114 LINE"
);
},
{
closed = 1;
nodes = (
"160 218 LINE",
"160 481 LINE",
"426 481 LINE",
"426 556 LINE",
"85 556 LINE",
"85 218 LINE"
);
}
);
width = 630;
},
{
layerId = "F5FC6CB4-8346-45E7-8DEF-2B856C43F982";
paths = (
{
closed = 1;
nodes = (
"570 145 LINE",
"191 524 LINE",
"57 390 LINE",
"436 11 LINE"
);
},
{
closed = 1;
nodes = (
"226 103 LINE",
"204 368 LINE",
"478 355 LINE",
"478 557 LINE",
"24 557 LINE",
"24 103 LINE"
);
}
);
width = 574;
}
);
unicode = 2196;
},
{
glyphname = leftRightArrow;
lastChange = "2019-10-14 09:20:46 +0000";
layers = (
{
layerId = "3BB9E4C4-DEF2-48EE-A047-AEFABDBAAE6E";
paths = (
{
closed = 1;
nodes = (
"620 287 LINE",
"423 481 LINE",
"419 477 LINE",
"612 287 LINE",
"419 97 LINE",
"423 93 LINE"
);
},
{
closed = 1;
nodes = (
"249 97 LINE",
"56 287 LINE",
"249 477 LINE",
"245 481 LINE",
"48 287 LINE",
"245 93 LINE"
);
},
{
closed = 1;
nodes = (
"614 284 LINE",
"614 289 LINE",
"55 289 LINE",
"55 284 LINE"
);
}
);
width = 668;
},
{
layerId = "8609C873-3DB2-4A65-A2BD-5F22606290B7";
paths = (
{
closed = 1;
nodes = (
"734 277 LINE",
"530 482 LINE",
"477 429 LINE",
"628 277 LINE",
"475 125 LINE",
"528 72 LINE"
);
},
{
closed = 1;
nodes = (
"274 125 LINE",
"122 276 LINE",
"275 429 LINE",
"222 482 LINE",
"16 276 LINE",
"221 72 LINE"
);
},
{
closed = 1;
nodes = (
"699 239 LINE",
"699 314 LINE",
"76 314 LINE",
"76 239 LINE"
);
}
);
width = 750;
},
{
layerId = "F5FC6CB4-8346-45E7-8DEF-2B856C43F982";
paths = (
{
closed = 1;
nodes = (
"1059 279 LINE",
"736 599 LINE",
"588 463 LINE",
"785 279 LINE",
"588 95 LINE",
"736 -41 LINE"
);
},
{
closed = 1;
nodes = (
"475 95 LINE",
"278 279 LINE",
"475 463 LINE",
"327 599 LINE",
"4 279 LINE",
"327 -41 LINE"
);
},
{
closed = 1;
nodes = (
"917 184 LINE",
"917 374 LINE",
"227 374 LINE",
"227 184 LINE"
);
}
);
width = 1063;
}
);
unicode = 2194;
},
{
glyphname = upDownArrow;
lastChange = "2019-10-14 09:22:18 +0000";
layers = (
{
layerId = "3BB9E4C4-DEF2-48EE-A047-AEFABDBAAE6E";
paths = (
{
closed = 1;
nodes = (
"508 368 LINE",
"314 565 LINE",
"120 368 LINE",
"124 364 LINE",
"314 557 LINE",
"504 364 LINE"
);
},
{
closed = 1;
nodes = (
"508 178 LINE",
"504 182 LINE",
"314 -11 LINE",
"124 182 LINE",
"120 178 LINE",
"314 -19 LINE"
);
},
{
closed = 1;
nodes = (
"317 -12 LINE",
"317 559 LINE",
"312 559 LINE",
"312 -12 LINE"
);
}
);
width = 600;
},
{
layerId = "8609C873-3DB2-4A65-A2BD-5F22606290B7";
paths = (
{
closed = 1;
nodes = (
"520 391 LINE",
"314 597 LINE",
"110 392 LINE",
"163 339 LINE",
"314 491 LINE",
"467 338 LINE"
);
},
{
closed = 1;
nodes = (
"520 144 LINE",
"467 197 LINE",
"316 45 LINE",
"163 198 LINE",
"110 145 LINE",
"316 -61 LINE"
);
},
{
closed = 1;
nodes = (
"353 4 LINE",
"353 557 LINE",
"278 557 LINE",
"278 4 LINE"
);
}
);
width = 630;
},
{
layerId = "F5FC6CB4-8346-45E7-8DEF-2B856C43F982";
paths = (
{
closed = 1;
nodes = (
"592 464 LINE",
"302 757 LINE",
"12 464 LINE",
"148 316 LINE",
"302 483 LINE",
"456 316 LINE"
);
},
{
closed = 1;
nodes = (
"592 105 LINE",
"456 253 LINE",
"302 86 LINE",
"148 253 LINE",
"12 105 LINE",
"302 -188 LINE"
);
},
{
closed = 1;
nodes = (
"397 -26 LINE",
"397 665 LINE",
"207 665 LINE",
"207 -25 LINE"
);
}
);
width = 604;
}
);
unicode = 2195;
},
{
glyphname = copyright;
lastChange = "2019-11-26 10:54:32 +0000";
layers = (
{
layerId = "3BB9E4C4-DEF2-48EE-A047-AEFABDBAAE6E";
paths = (
{
closed = 1;
nodes = (
"617 -63 OFFCURVE",
"781 96 OFFCURVE",
"781 285 CURVE SMOOTH",
"781 474 OFFCURVE",
"617 633 OFFCURVE",
"423 633 CURVE SMOOTH",
"235 633 OFFCURVE",
"76 474 OFFCURVE",
"76 285 CURVE SMOOTH",
"76 96 OFFCURVE",
"235 -63 OFFCURVE",
"423 -63 CURVE SMOOTH"
);
},
{
closed = 1;
nodes = (
"503 84 OFFCURVE",
"572 126 OFFCURVE",
"606 192 CURVE",
"602 194 LINE",
"569 130 OFFCURVE",
"501 89 OFFCURVE",
"427 89 CURVE SMOOTH",
"316 89 OFFCURVE",
"230 175 OFFCURVE",
"230 285 CURVE SMOOTH",
"230 397 OFFCURVE",
"316 482 OFFCURVE",
"427 482 CURVE SMOOTH",
"499 482 OFFCURVE",
"566 443 OFFCURVE",
"599 383 CURVE",
"603 385 LINE",
"569 447 OFFCURVE",
"501 487 OFFCURVE",
"427 487 CURVE SMOOTH",
"314 487 OFFCURVE",
"225 397 OFFCURVE",
"225 285 CURVE SMOOTH",
"225 170 OFFCURVE",
"313 84 OFFCURVE",
"427 84 CURVE SMOOTH"
);
},
{
closed = 1;
nodes = (
"237 -58 OFFCURVE",
"81 99 OFFCURVE",
"81 285 CURVE SMOOTH",
"81 471 OFFCURVE",
"237 628 OFFCURVE",
"423 628 CURVE SMOOTH",
"615 628 OFFCURVE",
"776 471 OFFCURVE",
"776 285 CURVE SMOOTH",
"776 99 OFFCURVE",
"615 -58 OFFCURVE",
"423 -58 CURVE SMOOTH"
);
}
);
width = 847;
},
{
hints = (
{
horizontal = 1;
place = "{-10, 69}";
type = Stem;
},
{
horizontal = 1;
place = "{166, 72}";
type = Stem;
},
{
horizontal = 1;
place = "{492, 72}";
type = Stem;
},
{
horizontal = 1;
place = "{671, 69}";
type = Stem;
},
{
place = "{49, 75}";
type = Stem;
},
{
place = "{228, 73}";
type = Stem;
},
{
place = "{724, 75}";
type = Stem;
}
);
layerId = "8609C873-3DB2-4A65-A2BD-5F22606290B7";
paths = (
{
closed = 1;
nodes = (
"631 -90 OFFCURVE",
"799 78 OFFCURVE",
"799 285 CURVE SMOOTH",
"799 492 OFFCURVE",
"631 660 OFFCURVE",
"424 660 CURVE SMOOTH",
"217 660 OFFCURVE",
"49 492 OFFCURVE",
"49 285 CURVE SMOOTH",
"49 78 OFFCURVE",
"217 -90 OFFCURVE",
"424 -90 CURVE SMOOTH"
);
},
{
closed = 1;
nodes = (
"506 86 OFFCURVE",
"573 131 OFFCURVE",
"605 193 CURVE",
"538 230 LINE",
"521 189 OFFCURVE",
"479 158 OFFCURVE",
"427 158 CURVE SMOOTH",
"358 158 OFFCURVE",
"301 214 OFFCURVE",
"301 285 CURVE SMOOTH",
"301 355 OFFCURVE",
"358 412 OFFCURVE",
"427 412 CURVE SMOOTH",
"477 412 OFFCURVE",
"518 382 OFFCURVE",
"536 344 CURVE",
"602 384 LINE",
"570 442 OFFCURVE",
"504 484 OFFCURVE",
"428 484 CURVE SMOOTH",
"315 484 OFFCURVE",
"228 395 OFFCURVE",
"228 285 CURVE SMOOTH",
"228 175 OFFCURVE",
"314 86 OFFCURVE",
"428 86 CURVE SMOOTH"
);
},
{
closed = 1;
nodes = (
"253 -21 OFFCURVE",
"124 117 OFFCURVE",
"124 285 CURVE SMOOTH",
"124 453 OFFCURVE",
"253 591 OFFCURVE",
"424 591 CURVE SMOOTH",
"595 591 OFFCURVE",
"724 453 OFFCURVE",
"724 285 CURVE SMOOTH",
"724 117 OFFCURVE",
"595 -21 OFFCURVE",
"424 -21 CURVE SMOOTH"
);
}
);
width = 847;
},
{
layerId = "F5FC6CB4-8346-45E7-8DEF-2B856C43F982";
paths = (
{
closed = 1;
nodes = (
"650 -132 OFFCURVE",
"833 55 OFFCURVE",
"833 285 CURVE SMOOTH",
"833 515 OFFCURVE",
"650 702 OFFCURVE",
"424 702 CURVE SMOOTH",
"198 702 OFFCURVE",
"15 515 OFFCURVE",
"15 285 CURVE SMOOTH",
"15 55 OFFCURVE",
"198 -132 OFFCURVE",
"424 -132 CURVE SMOOTH"
);
},
{
closed = 1;
nodes = (
"507 60 OFFCURVE",
"580 106 OFFCURVE",
"619 181 CURVE",
"494 253 LINE",
"483 232 OFFCURVE",
"455 215 OFFCURVE",
"426 215 CURVE SMOOTH",
"381 215 OFFCURVE",
"348 246 OFFCURVE",
"348 285 CURVE SMOOTH",
"348 324 OFFCURVE",
"381 355 OFFCURVE",
"426 355 CURVE SMOOTH",
"454 355 OFFCURVE",
"483 339 OFFCURVE",
"493 321 CURVE",
"616 396 LINE",
"577 467 OFFCURVE",
"506 510 OFFCURVE",
"426 510 CURVE SMOOTH",
"303 510 OFFCURVE",
"207 410 OFFCURVE",
"207 285 CURVE SMOOTH",
"207 159 OFFCURVE",
"303 60 OFFCURVE",
"426 60 CURVE SMOOTH"
);
},
{
closed = 1;
nodes = (
"269 15 OFFCURVE",
"144 136 OFFCURVE",
"144 285 CURVE SMOOTH",
"144 434 OFFCURVE",
"269 555 OFFCURVE",
"424 555 CURVE SMOOTH",
"579 555 OFFCURVE",
"704 434 OFFCURVE",
"704 285 CURVE SMOOTH",
"704 136 OFFCURVE",
"579 15 OFFCURVE",
"424 15 CURVE SMOOTH"
);
}
);
width = 848;
}
);
unicode = 00A9;
},
{
glyphname = registered;
lastChange = "2019-11-26 10:54:32 +0000";
layers = (
{
layerId = "3BB9E4C4-DEF2-48EE-A047-AEFABDBAAE6E";
paths = (
{
closed = 1;
nodes = (
"405 206 OFFCURVE",
"494 294 OFFCURVE",
"494 402 CURVE SMOOTH",
"494 509 OFFCURVE",
"406 598 OFFCURVE",
"298 598 CURVE SMOOTH",
"190 598 OFFCURVE",
"102 509 OFFCURVE",
"102 402 CURVE SMOOTH",
"102 294 OFFCURVE",
"189 206 OFFCURVE",
"298 206 CURVE SMOOTH"
);
},
{
closed = 1;
nodes = (
"192 211 OFFCURVE",
"107 297 OFFCURVE",
"107 402 CURVE SMOOTH",
"107 507 OFFCURVE",
"192 593 OFFCURVE",
"298 593 CURVE SMOOTH",
"403 593 OFFCURVE",
"489 506 OFFCURVE",
"489 402 CURVE SMOOTH",
"489 296 OFFCURVE",
"403 211 OFFCURVE",
"298 211 CURVE SMOOTH"
);
},
{
closed = 1;
nodes = (
"248 300 LINE",
"248 382 LINE",
"311 382 LINE",
"365 300 LINE",
"370 300 LINE",
"316 383 LINE",
"351 389 OFFCURVE",
"372 408 OFFCURVE",
"372 438 CURVE SMOOTH",
"372 477 OFFCURVE",
"341 502 OFFCURVE",
"295 502 CURVE SMOOTH",
"243 502 LINE",
"243 300 LINE"
);
},
{
closed = 1;
nodes = (
"248 497 LINE",
"295 497 LINE SMOOTH",
"339 497 OFFCURVE",
"367 474 OFFCURVE",
"367 438 CURVE SMOOTH",
"367 406 OFFCURVE",
"340 386 OFFCURVE",
"295 387 CURVE SMOOTH",
"248 387 LINE"
);
}
);
width = 600;
},
{
layerId = "8609C873-3DB2-4A65-A2BD-5F22606290B7";
paths = (
{
closed = 1;
nodes = (
"382 187 OFFCURVE",
"478 283 OFFCURVE",
"478 401 CURVE SMOOTH",
"478 519 OFFCURVE",
"382 615 OFFCURVE",
"264 615 CURVE SMOOTH",
"146 615 OFFCURVE",
"50 519 OFFCURVE",
"50 401 CURVE SMOOTH",
"50 283 OFFCURVE",
"146 187 OFFCURVE",
"264 187 CURVE SMOOTH"
);
},
{
closed = 1;
nodes = (
"166 226 OFFCURVE",
"93 305 OFFCURVE",
"93 401 CURVE SMOOTH",
"93 497 OFFCURVE",
"166 576 OFFCURVE",
"264 576 CURVE SMOOTH",
"362 576 OFFCURVE",
"435 497 OFFCURVE",
"435 401 CURVE SMOOTH",
"435 305 OFFCURVE",
"362 226 OFFCURVE",
"264 226 CURVE SMOOTH"
);
},
{
closed = 1;
nodes = (
"229 299 LINE",
"229 370 LINE",
"265 370 LINE",
"309 299 LINE",
"354 299 LINE",
"306 372 LINE",
"338 382 OFFCURVE",
"354 410 OFFCURVE",
"354 442 CURVE SMOOTH",
"354 480 OFFCURVE",
"322 512 OFFCURVE",
"271 512 CURVE SMOOTH",
"188 512 LINE",
"188 299 LINE"
);
},
{
closed = 1;
nodes = (
"229 476 LINE",
"265 476 LINE SMOOTH",
"290 476 OFFCURVE",
"311 466 OFFCURVE",
"311 440 CURVE SMOOTH",
"311 415 OFFCURVE",
"291 399 OFFCURVE",
"265 399 CURVE SMOOTH",
"229 399 LINE"
);
}
);
width = 528;
},
{
layerId = "F5FC6CB4-8346-45E7-8DEF-2B856C43F982";
paths = (
{
closed = 1;
nodes = (
"373 172 OFFCURVE",
"477 275 OFFCURVE",
"477 402 CURVE SMOOTH",
"477 528 OFFCURVE",
"373 631 OFFCURVE",
"246 631 CURVE SMOOTH",
"118 631 OFFCURVE",
"14 528 OFFCURVE",
"14 402 CURVE SMOOTH",
"14 275 OFFCURVE",
"118 172 OFFCURVE",
"246 172 CURVE SMOOTH"
);
},
{
closed = 1;
nodes = (
"156 236 OFFCURVE",
"82 311 OFFCURVE",
"82 402 CURVE SMOOTH",
"82 493 OFFCURVE",
"156 567 OFFCURVE",
"246 567 CURVE SMOOTH",
"335 567 OFFCURVE",
"409 492 OFFCURVE",
"409 402 CURVE SMOOTH",
"409 311 OFFCURVE",
"335 236 OFFCURVE",
"246 236 CURVE SMOOTH"
);
},
{
closed = 1;
nodes = (
"229 287 LINE",
"229 335 LINE",
"237 335 LINE",
"257 286 LINE",
"347 285 LINE",
"315 354 LINE",
"339 370 OFFCURVE",
"353 394 OFFCURVE",
"353 425 CURVE SMOOTH",
"353 484 OFFCURVE",
"306 522 OFFCURVE",
"241 522 CURVE SMOOTH",
"153 522 LINE",
"153 287 LINE"
);
},
{
closed = 1;
nodes = (
"229 450 LINE",
"241 450 LINE SMOOTH",
"267 450 OFFCURVE",
"277 441 OFFCURVE",
"277 425 CURVE SMOOTH",
"277 414 OFFCURVE",
"269 407 OFFCURVE",
"241 407 CURVE SMOOTH",
"229 407 LINE"
);
}
);
width = 491;
}
);
unicode = 00AE;
},
{
glyphname = trademark;
lastChange = "2019-11-26 10:54:32 +0000";
layers = (
{
layerId = "3BB9E4C4-DEF2-48EE-A047-AEFABDBAAE6E";
paths = (
{
closed = 1;
nodes = (
"333 272 LINE",
"333 527 LINE",
"468 380 LINE",
"604 528 LINE",
"604 272 LINE",
"609 272 LINE",
"609 534 LINE",
"603 534 LINE",
"468 388 LINE",
"333 534 LINE",
"328 534 LINE",
"328 272 LINE"
);
},
{
closed = 1;
nodes = (
"160 272 LINE",
"160 532 LINE",
"276 532 LINE",
"276 537 LINE",
"40 537 LINE",
"40 532 LINE",
"155 532 LINE",
"155 272 LINE"
);
}
);
width = 689;
},
{
hints = (
{
horizontal = 1;
place = "{440, 290}";
type = Stem;
},
{
place = "{133, 56}";
type = Stem;
},
{
place = "{310, 56}";
type = Stem;
},
{
place = "{572, 57}";
type = Stem;
},
{
horizontal = 1;
place = "{678, 52}";
type = Stem;
}
);
layerId = "8609C873-3DB2-4A65-A2BD-5F22606290B7";
paths = (
{
closed = 1;
nodes = (
"366 270 LINE",
"366 467 LINE",
"469 339 LINE",
"572 466 LINE",
"572 270 LINE",
"629 270 LINE",
"629 560 LINE",
"580 560 LINE",
"469 419 LINE",
"363 560 LINE",
"310 560 LINE",
"310 270 LINE"
);
},
{
closed = 1;
nodes = (
"189 270 LINE",
"189 508 LINE",
"280 508 LINE",
"280 560 LINE",
"41 560 LINE",
"41 508 LINE",
"133 508 LINE",
"133 270 LINE"
);
}
);
width = 683;
},
{
layerId = "F5FC6CB4-8346-45E7-8DEF-2B856C43F982";
paths = (
{
closed = 1;
nodes = (
"389 272 LINE",
"389 389 LINE",
"472 299 LINE",
"555 389 LINE",
"555 272 LINE",
"665 272 LINE",
"665 594 LINE",
"567 594 LINE",
"472 469 LINE",
"377 594 LINE",
"279 594 LINE",
"279 272 LINE"
);
},
{
closed = 1;
nodes = (
"196 272 LINE",
"196 474 LINE",
"260 474 LINE",
"260 594 LINE",
"24 594 LINE",
"24 474 LINE",
"86 474 LINE",
"86 272 LINE"
);
}
);
width = 689;
}
);
unicode = 2122;
},
{
glyphname = degree;
lastChange = "2019-10-15 14:47:47 +0000";
layers = (
{
layerId = "3BB9E4C4-DEF2-48EE-A047-AEFABDBAAE6E";
paths = (
{
closed = 1;
nodes = (
"249 448 OFFCURVE",
"300 499 OFFCURVE",
"300 562 CURVE SMOOTH",
"300 625 OFFCURVE",
"250 676 OFFCURVE",
"186 676 CURVE SMOOTH",
"123 676 OFFCURVE",
"72 625 OFFCURVE",
"72 562 CURVE SMOOTH",
"72 499 OFFCURVE",
"122 448 OFFCURVE",
"186 448 CURVE SMOOTH"
);
},
{
closed = 1;
nodes = (
"125 453 OFFCURVE",
"77 502 OFFCURVE",
"77 562 CURVE SMOOTH",
"77 623 OFFCURVE",
"125 671 OFFCURVE",
"186 671 CURVE SMOOTH",
"247 671 OFFCURVE",
"295 622 OFFCURVE",
"295 562 CURVE SMOOTH",
"295 501 OFFCURVE",
"247 453 OFFCURVE",
"186 453 CURVE SMOOTH"
);
}
);
width = 372;
},
{
hints = (
{
horizontal = 1;
place = "{483, 65}";
type = Stem;
},
{
horizontal = 1;
place = "{674, 66}";
type = Stem;
},
{
place = "{87, 66}";
type = Stem;
},
{
place = "{279, 65}";
type = Stem;
}
);
layerId = "8609C873-3DB2-4A65-A2BD-5F22606290B7";
paths = (
{
closed = 1;
nodes = (
"287 433 OFFCURVE",
"344 491 OFFCURVE",
"344 562 CURVE SMOOTH",
"344 633 OFFCURVE",
"287 690 OFFCURVE",
"216 690 CURVE SMOOTH",
"145 690 OFFCURVE",
"87 633 OFFCURVE",
"87 562 CURVE SMOOTH",
"87 491 OFFCURVE",
"145 433 OFFCURVE",
"216 433 CURVE SMOOTH"
);
},
{
closed = 1;
nodes = (
"182 498 OFFCURVE",
"153 527 OFFCURVE",
"153 561 CURVE SMOOTH",
"153 595 OFFCURVE",
"182 624 OFFCURVE",
"216 624 CURVE SMOOTH",
"250 624 OFFCURVE",
"279 595 OFFCURVE",
"279 561 CURVE SMOOTH",
"279 527 OFFCURVE",
"250 498 OFFCURVE",
"216 498 CURVE SMOOTH"
);
}
);
width = 431;
},
{
layerId = "F5FC6CB4-8346-45E7-8DEF-2B856C43F982";
paths = (
{
closed = 1;
nodes = (
"340 304 OFFCURVE",
"433 394 OFFCURVE",
"433 505 CURVE SMOOTH",
"433 616 OFFCURVE",
"340 704 OFFCURVE",
"225 704 CURVE SMOOTH",
"112 704 OFFCURVE",
"18 616 OFFCURVE",
"18 505 CURVE SMOOTH",
"18 394 OFFCURVE",
"112 304 OFFCURVE",
"225 304 CURVE SMOOTH"
);
},
{
closed = 1;
nodes = (
"200 449 OFFCURVE",
"178 474 OFFCURVE",
"177 505 CURVE SMOOTH",
"176 536 OFFCURVE",
"199 560 OFFCURVE",
"226 560 CURVE SMOOTH",
"252 560 OFFCURVE",
"273 536 OFFCURVE",
"273 505 CURVE SMOOTH",
"273 473 OFFCURVE",
"252 449 OFFCURVE",
"226 449 CURVE SMOOTH"
);
}
);
width = 451;
}
);
unicode = 00B0;
},
{
glyphname = bar;
lastChange = "2019-10-15 14:48:51 +0000";
layers = (
{
layerId = "3BB9E4C4-DEF2-48EE-A047-AEFABDBAAE6E";
paths = (
{
closed = 1;
nodes = (
"77 730 LINE",
"72 730 LINE",
"72 -230 LINE",
"77 -230 LINE"
);
}
);
width = 149;
},
{
hints = (
{
horizontal = 1;
place = "{-230, 21}";
target = up;
type = BottomGhost;
},
{
horizontal = 1;
place = "{730, -20}";
target = down;
type = TopGhost;
},
{
place = "{62, 78}";
type = Stem;
}
);
layerId = "8609C873-3DB2-4A65-A2BD-5F22606290B7";
paths = (
{
closed = 1;
nodes = (
"62 -230 LINE",
"140 -230 LINE",
"140 730 LINE",
"62 730 LINE"
);
}
);
width = 201;
},
{
layerId = "F5FC6CB4-8346-45E7-8DEF-2B856C43F982";
paths = (
{
closed = 1;
nodes = (
"226 730 LINE",
"36 730 LINE",
"36 -230 LINE",
"226 -230 LINE"
);
}
);
width = 262;
}
);
unicode = 007C;
},
{
glyphname = "shindot-hb";
lastChange = "2019-10-06 22:52:19 +0000";
layers = (
{
anchors = (
{
name = _topright;
position = "{0, 556}";
}
);
layerId = "3BB9E4C4-DEF2-48EE-A047-AEFABDBAAE6E";
paths = (
{
closed = 1;
nodes = (
"-65 656 OFFCURVE",
"-59 662 OFFCURVE",
"-59 670 CURVE SMOOTH",
"-59 678 OFFCURVE",
"-65 684 OFFCURVE",
"-72 684 CURVE SMOOTH",
"-80 684 OFFCURVE",
"-86 678 OFFCURVE",
"-86 670 CURVE",
"-86 662 OFFCURVE",
"-80 656 OFFCURVE",
"-72 656 CURVE SMOOTH"
);
}
);
width = 600;
},
{
anchors = (
{
name = _topright;
position = "{0, 556}";
}
);
layerId = "8609C873-3DB2-4A65-A2BD-5F22606290B7";
paths = (
{
closed = 1;
nodes = (
"-49 628 OFFCURVE",
"-31 647 OFFCURVE",
"-31 670 CURVE SMOOTH",
"-31 693 OFFCURVE",
"-49 712 OFFCURVE",
"-72 712 CURVE SMOOTH",
"-96 712 OFFCURVE",
"-114 693 OFFCURVE",
"-114 670 CURVE",
"-114 647 OFFCURVE",
"-96 628 OFFCURVE",
"-72 628 CURVE SMOOTH"
);
}
);
width = 600;
},
{
anchors = (
{
name = _topright;
position = "{0, 556}";
}
);
layerId = "F5FC6CB4-8346-45E7-8DEF-2B856C43F982";
paths = (
{
closed = 1;
nodes = (
"-40 611 OFFCURVE",
"-14 638 OFFCURVE",
"-14 670 CURVE SMOOTH",
"-14 702 OFFCURVE",
"-40 729 OFFCURVE",
"-72 729 CURVE SMOOTH",
"-105 729 OFFCURVE",
"-131 702 OFFCURVE",
"-131 670 CURVE",
"-131 638 OFFCURVE",
"-105 611 OFFCURVE",
"-72 611 CURVE SMOOTH"
);
}
);
width = 600;
}
);
unicode = 05C1;
},
{
glyphname = "sheva-hb";
lastChange = "2019-10-06 23:57:45 +0000";
layers = (
{
anchors = (
{
name = _bottom;
position = "{0, 0}";
}
);
layerId = "3BB9E4C4-DEF2-48EE-A047-AEFABDBAAE6E";
paths = (
{
closed = 1;
nodes = (
"7 -118 OFFCURVE",
"13 -112 OFFCURVE",
"13 -104 CURVE SMOOTH",
"13 -96 OFFCURVE",
"7 -90 OFFCURVE",
"0 -90 CURVE SMOOTH",
"-8 -90 OFFCURVE",
"-14 -96 OFFCURVE",
"-14 -104 CURVE",
"-14 -112 OFFCURVE",
"-8 -118 OFFCURVE",
"0 -118 CURVE SMOOTH"
);
},
{
closed = 1;
nodes = (
"7 -233 OFFCURVE",
"13 -227 OFFCURVE",
"13 -219 CURVE SMOOTH",
"13 -211 OFFCURVE",
"7 -205 OFFCURVE",
"0 -205 CURVE SMOOTH",
"-8 -205 OFFCURVE",
"-14 -211 OFFCURVE",
"-14 -219 CURVE",
"-14 -227 OFFCURVE",
"-8 -233 OFFCURVE",
"0 -233 CURVE SMOOTH"
);
}
);
width = 600;
},
{
anchors = (
{
name = _bottom;
position = "{0, 0}";
}
);
layerId = "8609C873-3DB2-4A65-A2BD-5F22606290B7";
paths = (
{
closed = 1;
nodes = (
"23 -176 OFFCURVE",
"41 -157 OFFCURVE",
"41 -134 CURVE SMOOTH",
"41 -111 OFFCURVE",
"23 -92 OFFCURVE",
"0 -92 CURVE SMOOTH",
"-24 -92 OFFCURVE",
"-42 -111 OFFCURVE",
"-42 -134 CURVE",
"-42 -157 OFFCURVE",
"-24 -176 OFFCURVE",
"0 -176 CURVE SMOOTH"
);
},
{
closed = 1;
nodes = (
"23 -291 OFFCURVE",
"41 -272 OFFCURVE",
"41 -249 CURVE SMOOTH",
"41 -226 OFFCURVE",
"23 -207 OFFCURVE",
"0 -207 CURVE SMOOTH",
"-24 -207 OFFCURVE",
"-42 -226 OFFCURVE",
"-42 -249 CURVE",
"-42 -272 OFFCURVE",
"-24 -291 OFFCURVE",
"0 -291 CURVE SMOOTH"
);
}
);
width = 600;
},
{
anchors = (
{
name = _bottom;
position = "{0, 0}";
}
);
layerId = "F5FC6CB4-8346-45E7-8DEF-2B856C43F982";
paths = (
{
closed = 1;
nodes = (
"32 -193 OFFCURVE",
"58 -166 OFFCURVE",
"58 -134 CURVE SMOOTH",
"58 -102 OFFCURVE",
"32 -75 OFFCURVE",
"0 -75 CURVE SMOOTH",
"-33 -75 OFFCURVE",
"-59 -102 OFFCURVE",
"-59 -134 CURVE",
"-59 -166 OFFCURVE",
"-33 -193 OFFCURVE",
"0 -193 CURVE SMOOTH"
);
},
{
closed = 1;
nodes = (
"32 -328 OFFCURVE",
"58 -301 OFFCURVE",
"58 -269 CURVE SMOOTH",
"58 -237 OFFCURVE",
"32 -210 OFFCURVE",
"0 -210 CURVE SMOOTH",
"-33 -210 OFFCURVE",
"-59 -237 OFFCURVE",
"-59 -269 CURVE",
"-59 -301 OFFCURVE",
"-33 -328 OFFCURVE",
"0 -328 CURVE SMOOTH"
);
}
);
width = 600;
}
);
unicode = 05B0;
},
{
glyphname = "hatafsegol-hb";
lastChange = "2019-10-27 18:00:11 +0000";
layers = (
{
anchors = (
{
name = _bottom;
position = "{0, 0}";
}
);
layerId = "3BB9E4C4-DEF2-48EE-A047-AEFABDBAAE6E";
paths = (
{
closed = 1;
nodes = (
"123 -118 OFFCURVE",
"129 -112 OFFCURVE",
"129 -104 CURVE SMOOTH",
"129 -96 OFFCURVE",
"123 -90 OFFCURVE",
"116 -90 CURVE SMOOTH",
"108 -90 OFFCURVE",
"102 -96 OFFCURVE",
"102 -104 CURVE",
"102 -112 OFFCURVE",
"108 -118 OFFCURVE",
"116 -118 CURVE SMOOTH"
);
},
{
closed = 1;
nodes = (
"123 -233 OFFCURVE",
"129 -227 OFFCURVE",
"129 -219 CURVE SMOOTH",
"129 -211 OFFCURVE",
"123 -205 OFFCURVE",
"116 -205 CURVE SMOOTH",
"108 -205 OFFCURVE",
"102 -211 OFFCURVE",
"102 -219 CURVE",
"102 -227 OFFCURVE",
"108 -233 OFFCURVE",
"116 -233 CURVE SMOOTH"
);
},
{
closed = 1;
nodes = (
"-108 -118 OFFCURVE",
"-102 -112 OFFCURVE",
"-102 -104 CURVE SMOOTH",
"-102 -96 OFFCURVE",
"-108 -90 OFFCURVE",
"-115 -90 CURVE SMOOTH",
"-123 -90 OFFCURVE",
"-129 -96 OFFCURVE",
"-129 -104 CURVE",
"-129 -112 OFFCURVE",
"-123 -118 OFFCURVE",
"-115 -118 CURVE SMOOTH"
);
},
{
closed = 1;
nodes = (
"6 -118 OFFCURVE",
"12 -112 OFFCURVE",
"12 -104 CURVE SMOOTH",
"12 -96 OFFCURVE",
"6 -90 OFFCURVE",
"-1 -90 CURVE SMOOTH",
"-9 -90 OFFCURVE",
"-15 -96 OFFCURVE",
"-15 -104 CURVE",
"-15 -112 OFFCURVE",
"-9 -118 OFFCURVE",
"-1 -118 CURVE SMOOTH"
);
},
{
closed = 1;
nodes = (
"-51 -233 OFFCURVE",
"-45 -227 OFFCURVE",
"-45 -219 CURVE SMOOTH",
"-45 -211 OFFCURVE",
"-51 -205 OFFCURVE",
"-58 -205 CURVE SMOOTH",
"-66 -205 OFFCURVE",
"-72 -211 OFFCURVE",
"-72 -219 CURVE",
"-72 -227 OFFCURVE",
"-66 -233 OFFCURVE",
"-58 -233 CURVE SMOOTH"
);
}
);
width = 600;
},
{
anchors = (
{
name = _bottom;
position = "{0, 0}";
}
);
layerId = "8609C873-3DB2-4A65-A2BD-5F22606290B7";
paths = (
{
closed = 1;
nodes = (
"139 -176 OFFCURVE",
"157 -157 OFFCURVE",
"157 -134 CURVE SMOOTH",
"157 -111 OFFCURVE",
"139 -92 OFFCURVE",
"116 -92 CURVE SMOOTH",
"92 -92 OFFCURVE",
"74 -111 OFFCURVE",
"74 -134 CURVE",
"74 -157 OFFCURVE",
"92 -176 OFFCURVE",
"116 -176 CURVE SMOOTH"
);
},
{
closed = 1;
nodes = (
"139 -291 OFFCURVE",
"157 -272 OFFCURVE",
"157 -249 CURVE SMOOTH",
"157 -226 OFFCURVE",
"139 -207 OFFCURVE",
"116 -207 CURVE SMOOTH",
"92 -207 OFFCURVE",
"74 -226 OFFCURVE",
"74 -249 CURVE",
"74 -272 OFFCURVE",
"92 -291 OFFCURVE",
"116 -291 CURVE SMOOTH"
);
},
{
closed = 1;
nodes = (
"-92 -176 OFFCURVE",
"-74 -157 OFFCURVE",
"-74 -134 CURVE SMOOTH",
"-74 -111 OFFCURVE",
"-92 -92 OFFCURVE",
"-115 -92 CURVE SMOOTH",
"-139 -92 OFFCURVE",
"-157 -111 OFFCURVE",
"-157 -134 CURVE",
"-157 -157 OFFCURVE",
"-139 -176 OFFCURVE",
"-115 -176 CURVE SMOOTH"
);
},
{
closed = 1;
nodes = (
"22 -176 OFFCURVE",
"40 -157 OFFCURVE",
"40 -134 CURVE SMOOTH",
"40 -111 OFFCURVE",
"22 -92 OFFCURVE",
"-1 -92 CURVE SMOOTH",
"-25 -92 OFFCURVE",
"-43 -111 OFFCURVE",
"-43 -134 CURVE",
"-43 -157 OFFCURVE",
"-25 -176 OFFCURVE",
"-1 -176 CURVE SMOOTH"
);
},
{
closed = 1;
nodes = (
"-35 -291 OFFCURVE",
"-17 -272 OFFCURVE",
"-17 -249 CURVE SMOOTH",
"-17 -226 OFFCURVE",
"-35 -207 OFFCURVE",
"-58 -207 CURVE SMOOTH",
"-82 -207 OFFCURVE",
"-100 -226 OFFCURVE",
"-100 -249 CURVE",
"-100 -272 OFFCURVE",
"-82 -291 OFFCURVE",
"-58 -291 CURVE SMOOTH"
);
}
);
width = 600;
},
{
anchors = (
{
name = _bottom;
position = "{0, 0}";
}
);
layerId = "F5FC6CB4-8346-45E7-8DEF-2B856C43F982";
paths = (
{
closed = 1;
nodes = (
"181 -193 OFFCURVE",
"207 -166 OFFCURVE",
"207 -134 CURVE SMOOTH",
"207 -102 OFFCURVE",
"181 -75 OFFCURVE",
"149 -75 CURVE SMOOTH",
"116 -75 OFFCURVE",
"90 -102 OFFCURVE",
"90 -134 CURVE",
"90 -166 OFFCURVE",
"116 -193 OFFCURVE",
"149 -193 CURVE SMOOTH"
);
},
{
closed = 1;
nodes = (
"181 -328 OFFCURVE",
"207 -301 OFFCURVE",
"207 -269 CURVE SMOOTH",
"207 -237 OFFCURVE",
"181 -210 OFFCURVE",
"149 -210 CURVE SMOOTH",
"116 -210 OFFCURVE",
"90 -237 OFFCURVE",
"90 -269 CURVE",
"90 -301 OFFCURVE",
"116 -328 OFFCURVE",
"149 -328 CURVE SMOOTH"
);
},
{
closed = 1;
nodes = (
"-119 -193 OFFCURVE",
"-93 -166 OFFCURVE",
"-93 -134 CURVE SMOOTH",
"-93 -102 OFFCURVE",
"-119 -75 OFFCURVE",
"-151 -75 CURVE SMOOTH",
"-184 -75 OFFCURVE",
"-210 -102 OFFCURVE",
"-210 -134 CURVE",
"-210 -166 OFFCURVE",
"-184 -193 OFFCURVE",
"-151 -193 CURVE SMOOTH"
);
},
{
closed = 1;
nodes = (
"35 -193 OFFCURVE",
"61 -166 OFFCURVE",
"61 -134 CURVE SMOOTH",
"61 -102 OFFCURVE",
"35 -75 OFFCURVE",
"3 -75 CURVE SMOOTH",
"-30 -75 OFFCURVE",
"-56 -102 OFFCURVE",
"-56 -134 CURVE",
"-56 -166 OFFCURVE",
"-30 -193 OFFCURVE",
"3 -193 CURVE SMOOTH"
);
},
{
closed = 1;
nodes = (
"-42 -328 OFFCURVE",
"-16 -301 OFFCURVE",
"-16 -269 CURVE SMOOTH",
"-16 -237 OFFCURVE",
"-42 -210 OFFCURVE",
"-74 -210 CURVE SMOOTH",
"-107 -210 OFFCURVE",
"-133 -237 OFFCURVE",
"-133 -269 CURVE",
"-133 -301 OFFCURVE",
"-107 -328 OFFCURVE",
"-74 -328 CURVE SMOOTH"
);
}
);
width = 600;
}
);
unicode = 05B1;
},
{
glyphname = "hatafpatah-hb";
lastChange = "2019-10-27 17:59:59 +0000";
layers = (
{
anchors = (
{
name = _bottom;
position = "{0, 0}";
}
);
layerId = "3BB9E4C4-DEF2-48EE-A047-AEFABDBAAE6E";
paths = (
{
closed = 1;
nodes = (
"121 -118 OFFCURVE",
"127 -112 OFFCURVE",
"127 -104 CURVE SMOOTH",
"127 -96 OFFCURVE",
"121 -90 OFFCURVE",
"114 -90 CURVE SMOOTH",
"106 -90 OFFCURVE",
"100 -96 OFFCURVE",
"100 -104 CURVE",
"100 -112 OFFCURVE",
"106 -118 OFFCURVE",
"114 -118 CURVE SMOOTH"
);
},
{
closed = 1;
nodes = (
"121 -233 OFFCURVE",
"127 -227 OFFCURVE",
"127 -219 CURVE SMOOTH",
"127 -211 OFFCURVE",
"121 -205 OFFCURVE",
"114 -205 CURVE SMOOTH",
"106 -205 OFFCURVE",
"100 -211 OFFCURVE",
"100 -219 CURVE",
"100 -227 OFFCURVE",
"106 -233 OFFCURVE",
"114 -233 CURVE SMOOTH"
);
},
{
closed = 1;
nodes = (
"27 -104 LINE",
"27 -99 LINE",
"-149 -99 LINE",
"-149 -104 LINE"
);
}
);
width = 600;
},
{
anchors = (
{
name = _bottom;
position = "{0, 0}";
}
);
layerId = "8609C873-3DB2-4A65-A2BD-5F22606290B7";
paths = (
{
closed = 1;
nodes = (
"126 -176 OFFCURVE",
"144 -157 OFFCURVE",
"144 -134 CURVE SMOOTH",
"144 -111 OFFCURVE",
"126 -92 OFFCURVE",
"103 -92 CURVE SMOOTH",
"79 -92 OFFCURVE",
"61 -111 OFFCURVE",
"61 -134 CURVE",
"61 -157 OFFCURVE",
"79 -176 OFFCURVE",
"103 -176 CURVE SMOOTH"
);
},
{
closed = 1;
nodes = (
"126 -291 OFFCURVE",
"144 -272 OFFCURVE",
"144 -249 CURVE SMOOTH",
"144 -226 OFFCURVE",
"126 -207 OFFCURVE",
"103 -207 CURVE SMOOTH",
"79 -207 OFFCURVE",
"61 -226 OFFCURVE",
"61 -249 CURVE",
"61 -272 OFFCURVE",
"79 -291 OFFCURVE",
"103 -291 CURVE SMOOTH"
);
},
{
closed = 1;
nodes = (
"17 -159 LINE",
"17 -99 LINE",
"-159 -99 LINE",
"-159 -159 LINE"
);
}
);
width = 600;
},
{
anchors = (
{
name = _bottom;
position = "{0, 0}";
}
);
layerId = "F5FC6CB4-8346-45E7-8DEF-2B856C43F982";
paths = (
{
closed = 1;
nodes = (
"165 -193 OFFCURVE",
"191 -166 OFFCURVE",
"191 -134 CURVE SMOOTH",
"191 -102 OFFCURVE",
"165 -75 OFFCURVE",
"133 -75 CURVE SMOOTH",
"100 -75 OFFCURVE",
"74 -102 OFFCURVE",
"74 -134 CURVE",
"74 -166 OFFCURVE",
"100 -193 OFFCURVE",
"133 -193 CURVE SMOOTH"
);
},
{
closed = 1;
nodes = (
"165 -328 OFFCURVE",
"191 -301 OFFCURVE",
"191 -269 CURVE SMOOTH",
"191 -237 OFFCURVE",
"165 -210 OFFCURVE",
"133 -210 CURVE SMOOTH",
"100 -210 OFFCURVE",
"74 -237 OFFCURVE",
"74 -269 CURVE",
"74 -301 OFFCURVE",
"100 -328 OFFCURVE",
"133 -328 CURVE SMOOTH"
);
},
{
closed = 1;
nodes = (
"42 -171 LINE",
"42 -87 LINE",
"-204 -87 LINE",
"-204 -171 LINE"
);
}
);
width = 600;
}
);
unicode = 05B2;
},
{
glyphname = "hatafqamats-hb";
lastChange = "2019-10-27 17:59:49 +0000";
layers = (
{
anchors = (
{
name = _bottom;
position = "{0, 0}";
}
);
layerId = "3BB9E4C4-DEF2-48EE-A047-AEFABDBAAE6E";
paths = (
{
closed = 1;
nodes = (
"-79 -224 LINE",
"-79 -104 LINE",
"7 -104 LINE",
"7 -99 LINE",
"-169 -99 LINE",
"-169 -104 LINE",
"-84 -104 LINE",
"-84 -224 LINE"
);
},
{
closed = 1;
nodes = (
"101 -233 OFFCURVE",
"107 -227 OFFCURVE",
"107 -219 CURVE SMOOTH",
"107 -211 OFFCURVE",
"101 -205 OFFCURVE",
"94 -205 CURVE SMOOTH",
"86 -205 OFFCURVE",
"80 -211 OFFCURVE",
"80 -219 CURVE",
"80 -227 OFFCURVE",
"86 -233 OFFCURVE",
"94 -233 CURVE SMOOTH"
);
},
{
closed = 1;
nodes = (
"101 -118 OFFCURVE",
"107 -112 OFFCURVE",
"107 -104 CURVE SMOOTH",
"107 -96 OFFCURVE",
"101 -90 OFFCURVE",
"94 -90 CURVE SMOOTH",
"86 -90 OFFCURVE",
"80 -96 OFFCURVE",
"80 -104 CURVE",
"80 -112 OFFCURVE",
"86 -118 OFFCURVE",
"94 -118 CURVE SMOOTH"
);
}
);
width = 600;
},
{
anchors = (
{
name = _bottom;
position = "{0, 0}";
}
);
layerId = "8609C873-3DB2-4A65-A2BD-5F22606290B7";
paths = (
{
closed = 1;
nodes = (
"-40 -294 LINE",
"-44 -159 LINE",
"17 -159 LINE",
"17 -99 LINE",
"-159 -99 LINE",
"-159 -159 LINE",
"-98 -159 LINE",
"-102 -294 LINE"
);
},
{
closed = 1;
nodes = (
"126 -291 OFFCURVE",
"144 -272 OFFCURVE",
"144 -249 CURVE SMOOTH",
"144 -226 OFFCURVE",
"126 -207 OFFCURVE",
"103 -207 CURVE SMOOTH",
"79 -207 OFFCURVE",
"61 -226 OFFCURVE",
"61 -249 CURVE SMOOTH",
"61 -272 OFFCURVE",
"79 -291 OFFCURVE",
"103 -291 CURVE SMOOTH"
);
},
{
closed = 1;
nodes = (
"126 -176 OFFCURVE",
"144 -157 OFFCURVE",
"144 -134 CURVE SMOOTH",
"144 -111 OFFCURVE",
"126 -92 OFFCURVE",
"103 -92 CURVE SMOOTH",
"79 -92 OFFCURVE",
"61 -111 OFFCURVE",
"61 -134 CURVE SMOOTH",
"61 -157 OFFCURVE",
"79 -176 OFFCURVE",
"103 -176 CURVE SMOOTH"
);
}
);
width = 600;
},
{
anchors = (
{
name = _bottom;
position = "{0, 0}";
}
);
layerId = "F5FC6CB4-8346-45E7-8DEF-2B856C43F982";
paths = (
{
closed = 1;
nodes = (
"-38 -325 LINE",
"-43 -171 LINE",
"42 -171 LINE",
"42 -87 LINE",
"-204 -87 LINE",
"-204 -171 LINE",
"-119 -171 LINE",
"-124 -325 LINE"
);
},
{
closed = 1;
nodes = (
"165 -328 OFFCURVE",
"191 -301 OFFCURVE",
"191 -269 CURVE SMOOTH",
"191 -237 OFFCURVE",
"165 -210 OFFCURVE",
"133 -210 CURVE SMOOTH",
"100 -210 OFFCURVE",
"74 -237 OFFCURVE",
"74 -269 CURVE",
"74 -301 OFFCURVE",
"100 -328 OFFCURVE",
"133 -328 CURVE SMOOTH"
);
},
{
closed = 1;
nodes = (
"165 -193 OFFCURVE",
"191 -166 OFFCURVE",
"191 -134 CURVE SMOOTH",
"191 -102 OFFCURVE",
"165 -75 OFFCURVE",
"133 -75 CURVE SMOOTH",
"100 -75 OFFCURVE",
"74 -102 OFFCURVE",
"74 -134 CURVE",
"74 -166 OFFCURVE",
"100 -193 OFFCURVE",
"133 -193 CURVE SMOOTH"
);
}
);
width = 600;
}
);
unicode = 05B3;
},
{
glyphname = "hiriq-hb";
lastChange = "2019-10-06 22:53:36 +0000";
layers = (
{
anchors = (
{
name = _bottom;
position = "{0, 0}";
}
);
layerId = "3BB9E4C4-DEF2-48EE-A047-AEFABDBAAE6E";
paths = (
{
closed = 1;
nodes = (
"5 -115 OFFCURVE",
"10 -110 OFFCURVE",
"10 -104 CURVE SMOOTH",
"10 -98 OFFCURVE",
"5 -94 OFFCURVE",
"0 -94 CURVE SMOOTH",
"-6 -94 OFFCURVE",
"-11 -98 OFFCURVE",
"-11 -104 CURVE",
"-11 -110 OFFCURVE",
"-6 -115 OFFCURVE",
"0 -115 CURVE SMOOTH"
);
}
);
width = 600;
},
{
anchors = (
{
name = _bottom;
position = "{0, 0}";
}
);
layerId = "8609C873-3DB2-4A65-A2BD-5F22606290B7";
paths = (
{
closed = 1;
nodes = (
"23 -176 OFFCURVE",
"41 -157 OFFCURVE",
"41 -134 CURVE SMOOTH",
"41 -111 OFFCURVE",
"23 -92 OFFCURVE",
"0 -92 CURVE SMOOTH",
"-24 -92 OFFCURVE",
"-42 -111 OFFCURVE",
"-42 -134 CURVE",
"-42 -157 OFFCURVE",
"-24 -176 OFFCURVE",
"0 -176 CURVE SMOOTH"
);
}
);
width = 600;
},
{
anchors = (
{
name = _bottom;
position = "{0, 0}";
}
);
layerId = "F5FC6CB4-8346-45E7-8DEF-2B856C43F982";
paths = (
{
closed = 1;
nodes = (
"32 -193 OFFCURVE",
"58 -166 OFFCURVE",
"58 -134 CURVE SMOOTH",
"58 -102 OFFCURVE",
"32 -75 OFFCURVE",
"0 -75 CURVE SMOOTH",
"-33 -75 OFFCURVE",
"-59 -102 OFFCURVE",
"-59 -134 CURVE",
"-59 -166 OFFCURVE",
"-33 -193 OFFCURVE",
"0 -193 CURVE SMOOTH"
);
}
);
width = 600;
}
);
unicode = 05B4;
},
